<svg width="902" height="936" viewBox="0 0 902 936" fill="none" xmlns="http://www.w3.org/2000/svg">
<path d="M294.417 556.767C294.417 556.767 222.723 816.175 242.545 832.247C262.366 848.32 368.309 936.732 521.013 868.475C566.227 848.256 610.379 554.309 610.379 554.309" fill="#002FFF"/>
<path d="M294.417 556.767C294.417 556.767 222.723 816.175 242.545 832.247C262.366 848.32 368.309 936.732 521.013 868.475C566.227 848.256 610.379 554.309 610.379 554.309" stroke="#000180" stroke-width="16" stroke-linecap="round" stroke-linejoin="round"/>
<path d="M332.233 426.414C332.233 426.414 147.738 358.95 74.9865 394.17C2.23535 429.39 12.1961 560.856 446.361 601.849C880.526 642.842 938.429 467.665 777.388 446.143C616.346 424.62 475.014 435.391 475.014 435.391" fill="#002FFF"/>
<path d="M332.233 426.414C332.233 426.414 147.738 358.95 74.9865 394.17C2.23535 429.39 12.1961 560.856 446.361 601.849C880.526 642.842 938.429 467.665 777.388 446.143C616.346 424.62 475.014 435.391 475.014 435.391" stroke="#000180" stroke-width="16" stroke-linecap="round" stroke-linejoin="round"/>
<path d="M413.476 483.725C413.476 483.725 387.382 496.97 364.627 530.148C341.871 563.326 294.626 556.785 303.998 515.334C313.37 473.884 352.195 458.307 359.12 458.988C359.12 458.988 301.711 448.074 307.046 374.396C312.592 300.738 385.298 283.221 385.298 283.221C385.298 283.221 324.614 70.6685 386.642 53.9992C448.69 37.1212 448.492 271.937 448.492 271.937C448.492 271.937 548.504 47.7763 596.139 50.3509C643.774 52.9255 519.676 306.55 519.676 306.55C519.676 306.55 536.126 335.36 555.2 393.52C574.254 451.888 564.321 505.51 564.321 505.51" fill="#002FFF"/>
<path d="M413.476 483.725C413.476 483.725 387.382 496.97 364.627 530.148C341.871 563.326 294.626 556.785 303.998 515.334C313.37 473.884 352.195 458.307 359.12 458.988C359.12 458.988 301.711 448.074 307.046 374.396C312.592 300.738 385.298 283.221 385.298 283.221C385.298 283.221 324.614 70.6685 386.642 53.9992C448.69 37.1212 448.492 271.937 448.492 271.937C448.492 271.937 548.504 47.7763 596.139 50.3509C643.774 52.9255 519.676 306.55 519.676 306.55C519.676 306.55 536.126 335.36 555.2 393.52C574.254 451.888 564.321 505.51 564.321 505.51" stroke="#000180" stroke-width="16" stroke-linecap="round" stroke-linejoin="round"/>
<path d="M448.065 459.513C441.139 458.832 402.315 474.409 392.943 515.859C383.571 557.31 430.836 563.642 453.571 530.673C476.306 497.704 502.42 484.25 502.42 484.25" fill="#002FFF"/>
<path d="M448.065 459.513C441.139 458.832 402.315 474.409 392.943 515.859C383.571 557.31 430.836 563.642 453.571 530.673C476.306 497.704 502.42 484.25 502.42 484.25" stroke="#000180" stroke-width="16" stroke-linecap="round" stroke-linejoin="round"/>
<path d="M478.242 510.331C478.242 510.331 599.544 522.256 723.284 507.226L478.242 510.331Z" fill="#002FFF"/>
<path d="M478.242 510.331C478.242 510.331 599.544 522.256 723.284 507.226" stroke="#000180" stroke-width="16" stroke-linecap="round" stroke-linejoin="round"/>
<path d="M305.102 501.952C305.102 501.952 235.003 492.953 171.915 466.515L305.102 501.952Z" fill="#002FFF"/>
<path d="M305.102 501.952C305.102 501.952 235.003 492.953 171.915 466.515" stroke="#000180" stroke-width="16" stroke-linecap="round" stroke-linejoin="round"/>
<path d="M363.008 328.881L354.224 351.416" stroke="#000180" stroke-width="16" stroke-linecap="round" stroke-linejoin="round"/>
<path d="M397.924 329.363L389.14 351.898" stroke="#000180" stroke-width="16" stroke-linecap="round" stroke-linejoin="round"/>
<path d="M334.719 411.898C334.719 411.898 350.703 400.189 360.794 390.219C366.657 384.471 370.778 379.185 368.864 377.099C363.501 371.302 350.248 374.637 353.926 386.804C357.813 398.991 362.864 405.811 372.705 415.632" fill="#002FFF"/>
<path d="M334.719 411.898C334.719 411.898 350.703 400.189 360.794 390.219C366.657 384.471 370.778 379.185 368.864 377.099C363.501 371.302 350.248 374.637 353.926 386.804C357.813 398.991 362.864 405.811 372.705 415.632" stroke="#000180" stroke-width="16" stroke-linecap="round" stroke-linejoin="round"/>
</svg>
