<svg width="600" height="454" viewBox="0 0 600 454" fill="none" xmlns="http://www.w3.org/2000/svg">
<path d="M462.627 97.4946L200.865 231.953C200.865 231.953 179.526 237.804 170.282 222.351C161.039 206.897 180.161 190.889 180.161 190.889C180.161 190.889 443.429 55.9381 553.151 -0.170552C586.759 -17.4231 607.77 24.5096 575.096 41.8624C537.747 61.8024 462.627 97.4946 462.627 97.4946Z" fill="#002FFF" stroke="#000180" stroke-width="16" stroke-linecap="round" stroke-linejoin="round"/>
<path d="M283.962 189.303C283.962 189.303 283.487 175.444 276.334 166.247C269.181 157.05 256.043 152.153 256.043 152.153" fill="#002FFF"/>
<path d="M283.962 189.303C283.962 189.303 283.487 175.444 276.334 166.247C269.181 157.05 256.043 152.153 256.043 152.153" stroke="#000180" stroke-width="16" stroke-linecap="round" stroke-linejoin="round"/>
<path d="M167.995 248.085C166.781 251.951 93.207 339.298 93.207 339.298L167.995 248.085Z" fill="#002FFF"/>
<path d="M167.995 248.085C166.781 251.951 93.207 339.298 93.207 339.298" stroke="#000180" stroke-width="16" stroke-linecap="round" stroke-linejoin="round"/>
<path d="M148.291 230.893L38.5919 294.925" stroke="#000180" stroke-width="16" stroke-linecap="round" stroke-linejoin="round"/>
<path d="M141.491 211.96L24.8054 233.056" stroke="#000180" stroke-width="16" stroke-linecap="round" stroke-linejoin="round"/>
</svg>
