<svg width="145" height="34" viewBox="0 0 145 34" fill="none" xmlns="http://www.w3.org/2000/svg">
<path d="M127.394 0.00683594C117.238 0.00683594 110.685 6.54641 110.685 16.9936C110.685 27.4408 117.291 33.9804 127.394 33.9804C137.498 33.9804 144.103 27.4408 144.103 16.9936C144.103 6.54641 137.55 0.00683594 127.394 0.00683594ZM127.394 26.6217C121.311 26.6217 117.995 23.2512 117.995 17.007C117.995 10.7495 121.389 7.39239 127.394 7.39239C133.399 7.39239 136.793 10.7629 136.793 17.007C136.793 23.2512 133.477 26.6217 127.394 26.6217Z" fill="white"/>
<path d="M26.7754 22.8484C23.9819 25.722 21.2276 26.7828 17.4942 26.7828C12.5729 26.7828 8.94393 24.2986 8.21291 20.2298H33.3807C33.5112 19.1556 33.5765 18.0679 33.5765 16.9936C33.6417 6.54641 27.2845 0.00683594 17.1156 0.00683594C6.95975 0.00683594 0.602539 6.8284 0.602539 17.289C0.602539 27.7497 7.87351 33.9938 17.4028 33.9938C23.3814 33.9938 28.0547 32.0602 31.8664 27.4005L26.7754 22.8484ZM17.207 7.2044C22.1935 7.2044 25.1176 9.64835 26.0966 13.8917H8.13459C9.12668 9.64835 12.2335 7.2044 17.207 7.2044Z" fill="white"/>
<path d="M62.9084 0.611178H54.0579L47.4396 10.4541L40.6386 0.611178H31.4617L42.5836 16.5371L31.0962 33.3896H39.8814L47.1785 22.8618L54.3189 33.3896H63.4958L52.0998 16.3223L62.9084 0.611178Z" fill="white"/>
<path d="M103.662 0.0471139C101.757 0.0471139 100.321 1.05424 99.5374 2.54478L90.5956 19.8136V4.58587C90.5956 1.91365 88.6636 0.0471139 86.1703 0.0471139C84.2906 0.0471139 82.8938 0.987094 82.1106 2.54478L73.2601 19.3167V0.611102H65.7933V33.3761H72.986L83.3638 14.026V28.9985C83.3638 31.6976 85.2044 33.9267 87.6846 33.9267C89.4599 33.9267 91.0264 32.9196 91.8749 31.3619C94.2376 26.9843 100.804 13.9185 100.804 13.9185V33.3895H107.996V4.9753C107.983 2.28964 106.156 0.0471139 103.662 0.0471139Z" fill="white"/>
</svg>
