<?xml version="1.0" encoding="utf-8"?>
<!-- Generator: Adobe Illustrator 26.3.1, SVG Export Plug-In . SVG Version: 6.00 Build 0)  -->
<svg version="1.1" id="Layer_1" xmlns="http://www.w3.org/2000/svg" xmlns:xlink="http://www.w3.org/1999/xlink" x="0px" y="0px"
	 viewBox="0 0 23 23" style="enable-background:new 0 0 23 23;" xml:space="preserve">
<style type="text/css">
	.st0{fill:#002fff;}
</style>
<path class="st0" d="M22.4,3.6c0,1.5-1.3,2.8-2.8,2.8c-1.6,0-2.8-1.3-2.8-2.8c0-1.6,1.2-2.8,2.8-2.8C21.1,0.8,22.4,2.1,22.4,3.6z
	 M18.9,9.2c1.3,0.7,1.8,2.5,1,3.8c-0.7,1.3-2.4,1.8-3.7,1c-1.3-0.7-1.8-2.5-1-3.8c0.6-0.9,1.5-1.4,2.4-1.4
	C18.1,8.8,18.5,8.9,18.9,9.2z M14.2,16.1c0.8,1.3,0.4,3-1,3.8c-1.3,0.7-3.1,0.4-3.8-1c-0.7-1.3-0.4-3.1,1-3.8
	c0.5-0.3,0.9-0.4,1.4-0.4C12.8,14.7,13.7,15.1,14.2,16.1z M6.7,19.6c0,1.5-1.2,2.8-2.8,2.8c-1.6,0-2.8-1.2-2.8-2.8
	c0-1.6,1.2-2.8,2.8-2.8C5.4,16.8,6.7,18,6.7,19.6z"/>
</svg>
