<?xml version="1.0" encoding="utf-8"?>
<!-- Generator: Adobe Illustrator 26.3.1, SVG Export Plug-In . SVG Version: 6.00 Build 0)  -->
<svg version="1.1" id="Layer_1" xmlns="http://www.w3.org/2000/svg" xmlns:xlink="http://www.w3.org/1999/xlink" x="0px" y="0px"
	 viewBox="0 0 23 23" style="enable-background:new 0 0 23 23;" xml:space="preserve">
<style type="text/css">
	.st0{fill:#002fff;}
</style>
<path class="st0" d="M19.6,22.4c-1.6,0-2.8-1.2-2.8-2.8c0-1.5,1.2-2.8,2.8-2.8c1.5,0,2.8,1.3,2.8,2.8S21.1,22.4,19.6,22.4z
	 M17.6,14.4c-0.9,0-1.8-0.5-2.4-1.4c-0.8-1.3-0.3-3.1,1-3.8c1.3-0.8,3-0.3,3.7,1c0.8,1.3,0.3,3.1-1,3.8
	C18.5,14.3,18.1,14.4,17.6,14.4z M11.8,8.5c-0.5,0-0.9-0.1-1.4-0.4C9,7.4,8.7,5.6,9.4,4.3c0.7-1.4,2.5-1.7,3.8-1
	c1.4,0.8,1.8,2.5,1,3.8C13.7,8.1,12.8,8.5,11.8,8.5z M3.9,6.4c-1.6,0-2.8-1.2-2.8-2.8s1.2-2.8,2.8-2.8c1.6,0,2.8,1.3,2.8,2.8
	C6.7,5.2,5.4,6.4,3.9,6.4z"/>
</svg>
