<?xml version="1.0" encoding="utf-8"?>
<!-- Generator: Adobe Illustrator 26.3.1, SVG Export Plug-In . SVG Version: 6.00 Build 0)  -->
<svg version="1.1" id="Layer_1" xmlns="http://www.w3.org/2000/svg" xmlns:xlink="http://www.w3.org/1999/xlink" x="0px" y="0px"
	 viewBox="0 0 23 23" style="enable-background:new 0 0 23 23;" xml:space="preserve" transform="scale(-1,1)">
<style type="text/css">
	.st0{fill:#002fff;}
</style>
<path class="st0" d="M1.1,19.6c0-1.5,1.3-2.8,2.8-2.8c1.6,0,2.8,1.3,2.8,2.8c0,1.6-1.2,2.8-2.8,2.8C2.4,22.4,1.1,21.1,1.1,19.6z
	 M4.6,14c-1.3-0.7-1.8-2.5-1-3.8c0.7-1.3,2.4-1.8,3.7-1c1.3,0.7,1.8,2.5,1,3.8c-0.6,0.9-1.5,1.4-2.4,1.4C5.4,14.4,5,14.3,4.6,14z
	 M9.3,7.1c-0.8-1.3-0.4-3,1-3.8c1.3-0.7,3.1-0.4,3.8,1c0.7,1.3,0.4,3.1-1,3.8c-0.5,0.3-0.9,0.4-1.4,0.4C10.7,8.5,9.8,8.1,9.3,7.1z
	 M16.8,3.6c0-1.5,1.2-2.8,2.8-2.8c1.6,0,2.8,1.2,2.8,2.8c0,1.6-1.2,2.8-2.8,2.8C18.1,6.4,16.8,5.2,16.8,3.6z"/>
</svg>
