<?xml version="1.0" encoding="utf-8"?>
<!-- Generator: Adobe Illustrator 26.3.1, SVG Export Plug-In . SVG Version: 6.00 Build 0)  -->
<svg version="1.1" id="Layer_1" xmlns="http://www.w3.org/2000/svg" xmlns:xlink="http://www.w3.org/1999/xlink" x="0px" y="0px"
	 viewBox="0 0 23 23" style="enable-background:new 0 0 23 23;" xml:space="preserve">
<style type="text/css">
	.st0{fill:#002fff;}
</style>
<path class="st0" d="M3.9,0.8c1.6,0,2.8,1.2,2.8,2.8c0,1.5-1.2,2.8-2.8,2.8c-1.5,0-2.8-1.3-2.8-2.8S2.4,0.8,3.9,0.8z M5.9,8.8
	c0.9,0,1.8,0.5,2.4,1.4c0.8,1.3,0.3,3.1-1,3.8c-1.3,0.8-3,0.3-3.7-1c-0.8-1.3-0.3-3.1,1-3.8C5,8.9,5.4,8.8,5.9,8.8z M11.7,14.7
	c0.5,0,0.9,0.1,1.4,0.4c1.4,0.7,1.7,2.5,1,3.8c-0.7,1.4-2.5,1.7-3.8,1c-1.4-0.8-1.8-2.5-1-3.8C9.8,15.1,10.7,14.7,11.7,14.7z
	 M19.6,16.8c1.6,0,2.8,1.2,2.8,2.8c0,1.6-1.2,2.8-2.8,2.8c-1.6,0-2.8-1.3-2.8-2.8C16.8,18,18.1,16.8,19.6,16.8z"/>
</svg>
