<svg width="24" height="24" viewBox="0 0 24 24" fill="none" xmlns="http://www.w3.org/2000/svg">
<path fill-rule="evenodd" clip-rule="evenodd" d="M16.0016 21.0037H7.9983C5.23572 21.0037 2.99622 18.7642 2.99622 16.0016V7.9983C2.99622 5.23572 5.23572 2.99622 7.9983 2.99622H16.0016C18.7642 2.99622 21.0037 5.23572 21.0037 7.9983V16.0016C21.0037 18.7642 18.7642 21.0037 16.0016 21.0037Z" stroke="#7D7D7D" stroke-width="1.5" stroke-linecap="round" stroke-linejoin="round"/>
<path d="M12 12.7114L13.3276 11.9738C13.9901 11.6058 14.401 10.9075 14.401 10.1496C14.3225 8.88929 13.2417 7.92852 11.9808 7.99833C10.8543 7.95156 9.85385 8.71311 9.599 9.81149" stroke="#7D7D7D" stroke-width="1.5" stroke-linecap="round" stroke-linejoin="round"/>
<path d="M12.1001 15.9018C12.1001 15.957 12.0553 16.0017 12 16.0017C11.9448 16.0017 11.9001 15.9569 11.9 15.9017C11.9 15.8465 11.9447 15.8017 12 15.8016C12.0265 15.8016 12.052 15.8121 12.0708 15.8309C12.0896 15.8497 12.1002 15.8752 12.1001 15.9018" stroke="#7D7D7D" stroke-width="1.5" stroke-linecap="round" stroke-linejoin="round"/>
</svg>
