<?xml version="1.0" encoding="utf-8"?><svg xmlns="http://www.w3.org/2000/svg" xmlns:xlink="http://www.w3.org/1999/xlink"><symbol viewBox="51.711 135.685 374.574 244.872" id="clip" xmlns="http://www.w3.org/2000/svg"><path d="M401.763 380.557H76.232c-13.521 0-24.521-11-24.521-24.52V335.1c0-13.52 11-24.521 24.52-24.521h305.745a5.5 5.5 0 110 11H76.232c-7.456 0-13.521 6.066-13.521 13.521v20.936c0 7.456 6.065 13.521 13.52 13.521h325.532c7.456 0 13.522-6.065 13.522-13.52v-195.83c0-7.456-6.066-13.522-13.522-13.522H76.232c-7.456 0-13.521 6.066-13.521 13.521V239.1c0 7.456 6.065 13.521 13.52 13.521h305.745a5.5 5.5 0 110 11H76.232c-13.521 0-24.521-11-24.521-24.521v-78.894c0-13.52 11-24.52 24.52-24.52h325.532c13.521 0 24.522 11 24.522 24.52v195.83c0 13.521-11 24.521-24.522 24.521z"/></symbol><symbol viewBox="1761.869 -153.758 284.284 284.283" id="contact" xmlns="http://www.w3.org/2000/svg"><path d="M2046.153-11.617c0-78.377-63.765-142.141-142.142-142.141-78.378 0-142.142 63.764-142.142 142.141s63.764 142.141 142.142 142.141c32.302 0 62.746-10.562 88.042-30.547a5.5 5.5 0 10-6.818-8.631c-23.335 18.435-51.422 28.179-81.224 28.179-72.312 0-131.142-58.83-131.142-131.142s58.83-131.141 131.142-131.141 131.142 58.83 131.142 131.141c0 20.14-4.45 39.467-13.224 57.444-.218.447-.44.891-.663 1.335a22.873 22.873 0 01-22.022 12.086c-11.005-.864-19.986-9.82-20.891-20.834a22.24 22.24 0 01-.07-1.28 5.533 5.533 0 00-.04-.528c-.443-10.36-8.986-18.66-19.454-18.66-10.579 0-19.197 8.473-19.47 18.986-.01.1-.012.2-.016.301 0 .07-.01.138-.01.208l.002.055-.002.062c.166 7.825-.413 12.97-5.151 17.077-4.413 2.71-7.902 4.569-11.343 5.826-.627.217-1.278.433-1.953.65-4.65 1.396-9.534 1.8-16.835 1.8-41.094 0-74.528-33.433-74.528-74.528s33.434-74.527 74.528-74.527c38.676 0 70.57 28.997 74.19 67.45a5.495 5.495 0 005.992 4.96 5.5 5.5 0 004.96-5.99c-1.986-21.101-11.723-40.633-27.416-54.998-15.795-14.46-36.296-22.422-57.726-22.422-47.16 0-85.528 38.367-85.528 85.527s38.368 85.528 85.528 85.528c8.106 0 13.934-.52 19.437-2.094.045-.012.09-.017.135-.03.186-.059.362-.119.544-.177.833-.253 1.663-.53 2.491-.835 17.973-6.299 24.035-15.045 23.675-33.336 0-4.684 3.812-8.494 8.496-8.494 4.684 0 8.496 3.812 8.496 8.496 0 .21.014.415.037.618.018.42.033.837.068 1.258 1.342 16.332 14.666 29.615 30.992 30.897A33.867 33.867 0 002031 52.288l.002-.003.117-.215c.137-.252.273-.504.4-.762l.003-.009c0-.002.002-.003.003-.005.095-.195.184-.394.271-.592l.082-.183.004-.01c9.469-19.452 14.272-40.353 14.272-62.126z"/></symbol><symbol viewBox="1291.088 649.418 237.724 316.971" id="face" xmlns="http://www.w3.org/2000/svg"><path d="M1528.812 768.28c0-65.54-53.322-118.862-118.862-118.862s-118.862 53.321-118.862 118.861v80.929c0 56.82 40.48 105.882 96.253 116.66 1.817.35 3.638.52 5.443.52 8.894 0 17.35-4.155 22.51-11.36a27.715 27.715 0 005.207-16.234l-.001-.25c-.107-12.178-10.247-22.085-22.603-22.085h-17.936c-7.371 0-13.369-5.997-13.369-13.37s5.998-13.368 13.37-13.368h8.538c5.915 0 11.106-3.591 13.226-9.149 2.081-5.456.631-11.475-3.692-15.335l-.079-.068-.087-.077a16.912 16.912 0 01-5.794-12.74 16.883 16.883 0 0110.326-15.579c7.337-3.104 12.078-10.12 12.078-17.878v-16.977c0-.039-.005-.077-.006-.115a5.479 5.479 0 00-.31-1.916c-3.936-11.12-14.51-18.59-26.31-18.59h-52.796c-2.747 0-4.982-2.236-4.982-4.983s2.235-4.982 4.982-4.982h152.17a5.5 5.5 0 000-11h-152.17c-.19 0-.378.01-.563.029-8.551.3-15.42 7.331-15.42 15.953s6.869 15.654 15.42 15.954c.185.019.373.029.563.029h52.797c6.864 0 13.032 4.177 15.625 10.471v16.127c0 3.329-2.105 6.37-5.363 7.748a27.86 27.86 0 00-17.04 25.709 27.91 27.91 0 009.557 21.025l3.618-4.143-3.542 4.21c1.275 1.137 1.011 2.498.74 3.208-.185.486-.944 2.069-2.948 2.069h-8.539c-13.437 0-24.369 10.931-24.369 24.369s10.932 24.369 24.37 24.369h17.935c6.344 0 11.549 5.017 11.603 11.174l.001.16c0 3.555-1.09 6.954-3.15 9.83-3.713 5.184-10.354 7.713-16.923 6.443-50.608-9.779-87.34-54.298-87.34-105.858v-80.929c0-59.474 48.387-107.861 107.862-107.861s107.862 48.387 107.862 107.861v80.92l-.001.009c0 48.418-32.564 91.19-79.19 104.012a5.5 5.5 0 102.916 10.605c51.38-14.13 87.266-61.253 87.274-114.6v-80.946z"/></symbol><symbol viewBox="1785.975 -578.198 235.891 316.833" id="home" xmlns="http://www.w3.org/2000/svg"><path d="M2015.53-473.142a6.08 6.08 0 00-.163-.173l-95.211-96.84a24.665 24.665 0 00-18.207-8.043 24.663 24.663 0 00-18.247 8.089l-91.308 96.878-.083.09a24.585 24.585 0 00-6.336 16.49v170.66c0 13.578 11.047 24.626 24.626 24.626h80.34a5.5 5.5 0 000-11h-80.34c-7.514 0-13.626-6.113-13.626-13.626v-170.66c0-3.358 1.232-6.58 3.468-9.083l91.305-96.873.082-.09c2.617-2.903 6.21-4.501 10.119-4.501s7.504 1.598 10.12 4.502c.054.058.108.116.164.172l95.2 96.83a13.6 13.6 0 013.433 9.042v170.66c0 7.514-6.113 13.627-13.626 13.627h-58.462c-7.514 0-13.626-6.113-13.626-13.626v-78.684c0-7.514 6.112-13.626 13.626-13.626h21.237c7.514 0 13.626 6.112 13.626 13.626v64.998a5.5 5.5 0 0011 0v-64.998c0-13.579-11.047-24.626-24.626-24.626h-21.237c-13.58 0-24.626 11.047-24.626 24.626v78.684c0 13.578 11.047 24.626 24.626 24.626h58.462c13.579 0 24.626-11.048 24.626-24.626v-170.66a24.58 24.58 0 00-6.336-16.49z"/></symbol><symbol viewBox="1222.663 -134.053 374.574 244.873" id="mountain" xmlns="http://www.w3.org/2000/svg"><path d="M1534.717-88.444c5.346-.49 10.477 1.485 14.078 5.415 5.494 5.997 13.214 9.457 21.182 9.493l3.335.015c13.192 0 23.925-10.733 23.925-23.925v-12.085c0-13.521-11-24.522-24.521-24.522h-325.532c-13.521 0-24.521 11-24.521 24.522V.393c0 15.386 12.517 27.904 27.903 27.904 12.734 0 23.827-8.59 27.013-20.896l34.3-81.298c.05-.12.09-.24.131-.36.006-.014.013-.026.018-.04 2.43-6.634 8.811-11.092 15.88-11.092a16.878 16.878 0 0115.558 10.285l.067.152.003.005v.002l45.673 102.592 3.526 7.92.003.005.003.009.006.014c.13.288.285.555.455.81.006.008.009.017.015.026 5.545 8.126 12.809 11.911 22.86 11.911 10.304 0 18.444-4.711 24.195-14.003.108-.173.177-.358.263-.538.1-.153.202-.304.288-.47l29.705-57.225.002-.003.282-.544c2.879-5.6 8.728-9.2 15.04-9.2 6.118 0 11.76 3.316 14.754 8.658l49.154 102.05a5.5 5.5 0 109.91-4.773l-49.246-102.242c-.022-.047-.05-.09-.074-.137-.024-.045-.043-.092-.068-.138-.028-.05-.06-.097-.088-.147-.023-.039-.045-.078-.07-.116-4.955-8.736-14.223-14.156-24.272-14.156-10.102 0-19.49 5.581-24.38 14.343-.04.069-.083.134-.12.205l-.587 1.132-.001.003-29.704 57.222c-.044.084-.078.17-.117.256-.007.011-.017.02-.024.031-3.763 6.08-8.34 8.792-14.842 8.792-6.264 0-10.09-1.906-13.517-6.751l-3.302-7.418-45.667-102.579-.002-.006-.083-.186c-.03-.067-.065-.128-.097-.193a27.846 27.846 0 00-25.5-16.598c-11.667 0-22.2 7.359-26.21 18.31-.006.016-.01.033-.015.049l-34.41 81.559c-.149.35-.257.708-.329 1.068-1.912 7.478-8.647 12.7-16.379 12.7-9.32 0-16.903-7.583-16.903-16.904v-109.924c0-7.456 6.065-13.522 13.52-13.522h325.533c7.455 0 13.52 6.066 13.52 13.522v12.085c0 7.127-5.798 12.925-12.9 12.925l-3.31-.015c-4.91-.022-9.692-2.181-13.12-5.924-5.942-6.484-14.39-9.741-23.192-8.938-13.11 1.2-23.673 11.558-25.117 24.63-.876 7.931 1.653 15.864 6.938 21.765a27.947 27.947 0 0020.792 9.293c7.62 0 14.736-3.014 20.04-8.487 3.566-3.679 8.145-5.708 12.897-5.716l4.048-.007c7.126 0 12.925 5.798 12.925 12.926V86.298c0 7.456-6.066 13.522-13.522 13.522h-325.531c-7.456 0-13.521-6.066-13.521-13.522V65.362a5.5 5.5 0 10-11 0v20.936c0 13.521 11 24.522 24.52 24.522h325.532c13.521 0 24.522-11 24.522-24.522V-44.994c0-13.193-10.733-23.926-23.935-23.926l-4.056.007c-7.748.012-15.127 3.23-20.778 9.06a16.771 16.771 0 01-12.141 5.143c-4.8 0-9.392-2.052-12.598-5.631-3.249-3.627-4.74-8.322-4.199-13.22.873-7.899 7.26-14.157 15.187-14.883z"/></symbol><symbol viewBox="1795.588 220.667 216.845 349.858" id="river" xmlns="http://www.w3.org/2000/svg"><path d="M1986.235 426.526h-139.881c-8.38 0-15.198-6.818-15.198-15.216 0-8.38 6.818-15.198 15.198-15.198h120.477c14.445 0 26.198-11.753 26.198-26.199 0-14.443-11.751-26.195-26.196-26.198l-96.13-.005c-8.378-.001-15.195-6.818-15.195-15.208 0-8.38 6.819-15.198 15.199-15.198h52.048c14.675 0 26.614-11.94 26.614-26.615 0-14.22-11.569-25.793-25.788-25.797h-.002c-.06 0-.12.007-.18.009-.022-.002-.043-.009-.066-.01a8.674 8.674 0 00-.393-.015h-.002c-7.405-.108-13.428-6.211-13.428-13.613v-21.096a5.5 5.5 0 00-11 0v21.096c0 13.333 10.805 24.332 24.12 24.605.01 0 .018.004.028.004.158.01.317.017.48.017.064 0 .127-.008.19-.01.084.004.165.013.249.013 8.156.002 14.792 6.641 14.792 14.797 0 8.61-7.004 15.615-15.614 15.615h-52.048c-14.446 0-26.199 11.753-26.199 26.209 0 14.444 11.751 26.196 26.196 26.197l96.128.005c8.38 0 15.197 6.82 15.197 15.2s-6.819 15.197-15.198 15.197h-120.477c-14.445 0-26.198 11.753-26.198 26.216 0 14.445 11.753 26.198 26.198 26.198h139.88c8.38 0 15.2 6.819 15.2 15.199s-6.818 15.198-15.198 15.198l-164.45.008c-14.446 0-26.198 11.753-26.198 26.207 0 14.445 11.753 26.198 26.199 26.198h73.546c7.397.117 13.408 6.217 13.408 13.613v31.076a5.5 5.5 0 0011 0V533.95c0-13.353-10.837-24.37-24.18-24.611a6.615 6.615 0 00-.823-.002h-72.951c-8.38 0-15.199-6.818-15.199-15.207 0-8.38 6.818-15.198 15.198-15.198l164.45-.008c14.445 0 26.197-11.753 26.197-26.198s-11.753-26.199-26.198-26.199z"/></symbol><symbol viewBox="1292.004 232.197 235.89 316.833" id="snail" xmlns="http://www.w3.org/2000/svg"><path d="M1411.05 356.45c23.555 0 45.287 12.812 56.716 33.438 4.282 7.728 12.523 12.52 21.516 12.52h.079l17.01-.036c11.868-.05 21.524-9.748 21.524-21.616V256.823c0-13.579-11.048-24.626-24.626-24.626h-65.543c-13.192 0-23.925 10.734-23.925 23.935l.006 4.056c.013 7.75 3.232 15.128 9.062 20.779a16.768 16.768 0 015.142 12.14c0 4.801-2.053 9.392-5.632 12.598-3.627 3.248-8.321 4.738-13.219 4.198-7.899-.872-14.159-7.259-14.884-15.185-.489-5.346 1.485-10.478 5.415-14.078 5.998-5.496 9.458-13.215 9.494-21.181l.015-3.336c0-13.192-10.733-23.926-23.926-23.926h-68.644c-13.578 0-24.626 11.047-24.626 24.626v267.581c0 13.58 11.048 24.626 24.626 24.626h186.639c13.578 0 24.626-11.047 24.626-24.626v-91.79a5.5 5.5 0 00-11 0v91.79c0 7.514-6.113 13.626-13.626 13.626H1316.63c-7.513 0-13.626-6.112-13.626-13.626v-267.58c0-7.514 6.113-13.627 13.626-13.627h68.644c7.127 0 12.926 5.799 12.926 12.9l-.015 3.312c-.022 4.908-2.182 9.69-5.924 13.12-6.486 5.942-9.744 14.395-8.939 23.19 1.2 13.111 11.558 23.674 24.63 25.118 1.034.114 2.067.17 3.095.17 6.869 0 13.538-2.512 18.671-7.108a27.949 27.949 0 009.293-20.792c0-7.62-3.014-14.737-8.488-20.04-3.678-3.564-5.708-8.144-5.716-12.896l-.006-4.048c0-7.127 5.798-12.926 12.925-12.926h65.543c7.513 0 13.626 6.113 13.626 13.626v123.933c0 5.829-4.743 10.59-10.56 10.616l-17.002.035h-.045c-5 0-9.558-2.622-11.9-6.851-13.367-24.122-38.785-39.107-66.337-39.107-20.583 0-39.84 8.11-54.223 22.837-14.38 14.722-22.032 34.176-21.547 54.778.455 19.341 8.277 37.625 22.023 51.487 13.748 13.862 31.967 21.832 51.302 22.441.8.026 1.597.038 2.393.038 23.878 0 46.467-11.275 60.808-30.472 5.587-7.48 6.448-17.332 2.247-25.714-4.244-8.47-12.751-13.73-22.201-13.73h-.311c-7.504.001-14.625 3.482-19.536 9.549-4.656 5.753-11.566 9.053-18.956 9.053-6.808 0-13.124-2.738-17.784-7.707-4.656-4.966-6.976-11.463-6.536-18.294.781-12.097 10.882-22.072 22.996-22.71 7.14-.368 14.053 2.368 18.968 7.525a5.5 5.5 0 007.963-7.59 35.367 35.367 0 00-27.509-10.92c-17.885.94-32.242 15.122-33.395 32.986-.639 9.898 2.73 19.32 9.489 26.526 6.663 7.108 16.07 11.184 25.808 11.184 10.725 0 20.751-4.786 27.506-13.132 2.814-3.476 6.819-5.469 10.987-5.47h.31c5.34 0 9.963 2.863 12.367 7.658 2.36 4.707 1.9 10.017-1.226 14.203-12.67 16.962-32.864 26.675-54.041 26.023-34.337-1.082-61.867-28.84-62.675-63.192-.414-17.617 6.127-34.25 18.42-46.834 12.296-12.59 28.758-19.523 46.353-19.523z"/></symbol></svg>