<?xml version="1.0" encoding="utf-8"?><svg xmlns="http://www.w3.org/2000/svg" xmlns:xlink="http://www.w3.org/1999/xlink"><symbol fill="none" viewBox="0 0 24 25" id="icon-arrow-up" xmlns="http://www.w3.org/2000/svg"><g clip-path="url(#aa)"><path d="M7.05 8.676L5.636 7.262 12 .9l6.364 6.363-1.414 1.414L13 4.727v18.485h-2V4.727l-3.95 3.95z" fill="#F0F0F0"/></g><defs><clipPath id="aa"><path fill="#fff" transform="matrix(0 1 1 0 0 .21)" d="M0 0h24v24H0z"/></clipPath></defs></symbol><symbol fill="none" viewBox="0 0 25 25" id="icon-cart" xmlns="http://www.w3.org/2000/svg"><path d="M3.933 3.812H5.8l2.571 10.17c.093.37.43.63.815.63h9.445a.424.424 0 00.412-.32l1.678-6.635a.417.417 0 00-.078-.36.427.427 0 00-.335-.162H6.678m3.495 12.817c0 .066-.107.12-.24.12-.132 0-.24-.054-.24-.12m8.16 0a.12.12 0 11-.24 0" stroke="#F0F0F0" stroke-width="2" stroke-linecap="round" stroke-linejoin="round"/></symbol><symbol fill="none" viewBox="0 0 20 20" id="icon-close" xmlns="http://www.w3.org/2000/svg"><path d="M1 1l18 18M1 19L19 1" stroke="#7D7D7D" stroke-width="2" stroke-linecap="round" stroke-linejoin="round"/></symbol><symbol fill="none" viewBox="0 0 24 24" id="icon-cross" xmlns="http://www.w3.org/2000/svg"><path d="M6 6l12 12M6 18L18 6" stroke="#F0F0F0" stroke-width="2" stroke-linecap="round" stroke-linejoin="round"/></symbol><symbol fill="none" viewBox="0 0 64 65" id="icon-drop" xmlns="http://www.w3.org/2000/svg"><path d="M36.197 8.598A24.447 24.447 0 0032 8.211c-1.435 0-2.832.15-4.197.387M54.715 24.14a24.086 24.086 0 011.48 8.266M50.528 16.86a24.287 24.287 0 00-6.44-5.39m-24.176 0a24.33 24.33 0 00-6.44 5.39M7.805 32.406c0-2.91.539-5.685 1.48-8.267m10.627 29.203a23.986 23.986 0 007.89 2.87M9.285 40.673a24.191 24.191 0 004.187 7.28m22.725 8.258a24.008 24.008 0 007.891-2.869m6.44-5.389a24.19 24.19 0 004.187-7.28" stroke="#202023" stroke-width="2" stroke-linecap="round" stroke-linejoin="round"/><path clip-rule="evenodd" d="M34.133 19.947l6.39 8.55c5.256 7.03.245 17.048-8.523 17.048v0c-8.768 0-13.779-10.019-8.525-17.048l6.392-8.55a2.662 2.662 0 014.266 0z" stroke="#202023" stroke-width="2" stroke-linecap="round" stroke-linejoin="round"/></symbol><symbol fill="none" viewBox="0 0 64 65" id="icon-flower" xmlns="http://www.w3.org/2000/svg"><path d="M27.392 22.15a4.512 4.512 0 014.28-5.939h.655a4.512 4.512 0 014.281 5.94m-9.216 20.121a4.513 4.513 0 004.28 5.94h.655a4.512 4.512 0 004.281-5.94M25.592 23.19a4.512 4.512 0 00-7.285.738l-.327.567a4.512 4.512 0 003.003 6.677m22.034 2.078a4.512 4.512 0 013.003 6.678l-.327.567a4.513 4.513 0 01-7.285.738M20.983 33.25a4.512 4.512 0 00-3.003 6.678l.327.567a4.513 4.513 0 007.285.738m17.425-10.061a4.512 4.512 0 003.003-6.677l-.327-.567a4.512 4.512 0 00-7.285-.738M20.983 33.25l2.17-.443a.608.608 0 000-1.19l-2.17-.445" stroke="#202023" stroke-width="2" stroke-linecap="round" stroke-linejoin="round"/><path d="M43.017 31.172l-2.17.444a.608.608 0 000 1.19l2.17.445m-15.625 9.021l.7-2.1a.607.607 0 00-1.031-.596l-1.47 1.657M36.608 22.15l-.7 2.102a.608.608 0 001.031.595l1.47-1.657m-.001 18.043l-1.469-1.657a.608.608 0 00-1.03.595l.7 2.101M25.592 23.19l1.469 1.657a.608.608 0 001.03-.595l-.7-2.101" stroke="#202023" stroke-width="2" stroke-linecap="round" stroke-linejoin="round"/><rect x="8" y="8.211" width="48" height="48" rx="5" stroke="#202023" stroke-width="2" stroke-linecap="round" stroke-linejoin="round"/></symbol><symbol fill="none" viewBox="0 0 108 129" id="icon-gorilla" xmlns="http://www.w3.org/2000/svg"><path d="M48.663 24.914c13.979 0 27.957 10.161 27.957 38.387 0 20.819-19.844 41.066-23.81 48.352 0 4.335-.06 4.079 0 5.449 4.147 0 4.84 10.658.467 10.658-7.796.376-7.283 0-10.435 0-3.151 0-4.735-2.635-4.735-5.901V92.625c-.09-4.2 2.353-7.361 6.922-16.333.528-1.054-.784-2.063-1.659-1.28-4.825 4.38-10.013 9.5-12.516 11.637-3.845-3.628-8.821-8.084-12.621-11.471-.89-.798-2.217.301-1.584 1.325 3.499 5.705 7.54 12.238 9.018 15.189.18 5.088-.181 18.997-.181 21.827 0 2.83 6.409 3.192 6.409 7.346 0 4.155.754 7.346-6.41 7.346C7.392 128.211.033 83.427.033 52.297c0-4.426 8.384-11.652 11.58-13.955.302 3.763 7.586 17.312 10.858 17.312 5.278 0 14.145-6.549 15.833-13.67.905-3.793 1.388-18.44-3.015-18.44-4.042 0-8.083 2.319-11.446 4.727a3.084 3.084 0 01-3.408.105c-2.744-1.67-5.624-3.176-5.624-4.2C14.81 22.928 18.203.212 28.38.212c10.179 0 20.297 15.686 20.297 24.718l-.015-.015z" fill="#202023"/><path d="M27.537 34.925l-4.886 2.062c5.097.482 3.982.482 3.982.482l.904-2.53v-.014zm-12.396 0l4.886 2.062c-5.097.482-3.981.482-3.981.482l-.905-2.529v-.015z" fill="#202023" stroke="#202023" stroke-linejoin="round"/><path d="M89.06 55.021c4.267 1.069 13.797 7.271 13.797 27.097 0 4.56-2.262 11.65-2.126 16.92.12 5.283 7.193 14.617 7.193 18.877 0 7.421.904 10.01-3.514 10.01H91.216c-3.59 0-3.68-5.178-.287-5.178 3.393 0 3.483-2.078 3.483-4.983s-8.323-25.2-17.552-24.883c2.473 0 2.91 5.69 2.91 21.315 0 15.626 0 13.729-3.77 13.729H63.56c-2.835 0-2.835-5.178 0-5.178s4.343-1.505 4.343-4.893c0-3.387-1.614-16.739-3.966-16.739 4.81-5.269 15.848-21.421 16.014-39.425 0-2.725-.377-4.983-.663-6.398 2.352-.467 6.243-1.174 9.786-.286l-.015.015zM17.582 41.729c.331-.557 1.191-.663 1.93-.241.739.422 1.086 1.234.754 1.791-.332.557-1.191.663-1.93.241-.74-.421-1.086-1.234-.754-1.791zm6.413 0c-.332-.557-1.191-.663-1.93-.241-.74.422-1.086 1.234-.754 1.791.332.557 1.191.663 1.93.241.739-.436 1.086-1.234.754-1.791z" fill="#202023"/></symbol><symbol fill="none" viewBox="0 0 64 65" id="icon-guard" xmlns="http://www.w3.org/2000/svg"><path clip-rule="evenodd" d="M18.99 53.868l-8.647-8.647A8 8 0 018 39.564V24.861a8 8 0 012.343-5.657l8.65-8.65a8 8 0 015.657-2.343h14.7a8 8 0 015.657 2.344l8.65 8.65A8 8 0 0156 24.86v14.703a8 8 0 01-2.342 5.656l-8.645 8.647a8 8 0 01-5.657 2.344H24.647a8 8 0 01-5.657-2.343v0z" stroke="#202023" stroke-width="2" stroke-linecap="round" stroke-linejoin="round"/><path clip-rule="evenodd" d="M44 25.524v8.075c0 5.607-6.834 9.786-10.193 11.507a3.941 3.941 0 01-3.61.002C26.839 43.388 20 39.2 20 33.598v-8.074a1.352 1.352 0 011.272-1.315 17.087 17.087 0 009.162-3.467 2.579 2.579 0 013.132 0 17.087 17.087 0 009.162 3.467A1.352 1.352 0 0144 25.524z" stroke="#202023" stroke-width="2" stroke-linecap="round" stroke-linejoin="round"/></symbol><symbol fill="none" viewBox="0 0 64 65" id="icon-lock" xmlns="http://www.w3.org/2000/svg"><rect x="21.333" y="28.878" width="21.333" height="14" rx="1" stroke="#202023" stroke-width="2" stroke-linecap="round" stroke-linejoin="round"/><path d="M26.667 28.878v-4.666a2.667 2.667 0 012.666-2.667h5.334a2.667 2.667 0 012.666 2.666v4.667" stroke="#202023" stroke-width="2" stroke-linecap="round" stroke-linejoin="round"/><circle cx="32" cy="32.211" r="24" stroke="#202023" stroke-width="2" stroke-linecap="round" stroke-linejoin="round"/></symbol><symbol fill="none" viewBox="0 0 64 64" id="icon-michelin" xmlns="http://www.w3.org/2000/svg"><path clip-rule="evenodd" d="M22.455 31.363l-2.042-.418a5.144 5.144 0 01-3.424-7.612v0a5.144 5.144 0 018.304-.84l1.383 1.559a.65.65 0 001.103-.637l-.66-1.977A5.144 5.144 0 0132 14.667v0a5.144 5.144 0 014.88 6.77l-.659 1.978a.65.65 0 001.103.637l1.383-1.56a5.144 5.144 0 018.304.841v0a5.144 5.144 0 01-3.424 7.612l-2.042.418a.65.65 0 000 1.274l2.042.417a5.144 5.144 0 013.424 7.612v0a5.144 5.144 0 01-8.304.842l-1.383-1.56a.65.65 0 00-1.103.637l.66 1.977A5.144 5.144 0 0132 49.333v0a5.144 5.144 0 01-4.88-6.77l.659-1.978a.65.65 0 00-1.103-.637l-1.384 1.561a5.143 5.143 0 01-8.302-.84l-.001-.002a5.144 5.144 0 013.424-7.612l2.042-.418a.65.65 0 000-1.274z" stroke="#202023" stroke-width="2" stroke-linecap="round" stroke-linejoin="round"/><circle cx="32" cy="32" r="26.667" stroke="#202023" stroke-width="2" stroke-linecap="round" stroke-linejoin="round"/></symbol><symbol fill="none" viewBox="0 0 24 24" id="icon-navi" xmlns="http://www.w3.org/2000/svg"><path clip-rule="evenodd" d="M21 17.25v0A3.75 3.75 0 0117.25 21v0a3.75 3.75 0 01-3.75-3.75v0a3.75 3.75 0 013.75-3.75v0A3.75 3.75 0 0121 17.25zm-10.5 0v0A3.75 3.75 0 016.75 21v0A3.75 3.75 0 013 17.25v0a3.75 3.75 0 013.75-3.75v0a3.75 3.75 0 013.75 3.75zM21 6.75v0a3.75 3.75 0 01-3.75 3.75v0a3.75 3.75 0 01-3.75-3.75v0A3.75 3.75 0 0117.25 3v0A3.75 3.75 0 0121 6.75zm-10.5 0v0a3.75 3.75 0 01-3.75 3.75v0A3.75 3.75 0 013 6.75v0A3.75 3.75 0 016.75 3v0a3.75 3.75 0 013.75 3.75z" stroke="#F0F0F0" stroke-width="2" stroke-linecap="round" stroke-linejoin="round"/></symbol><symbol fill="none" viewBox="0 0 64 65" id="icon-rouble" xmlns="http://www.w3.org/2000/svg"><path d="M48.947 45.777c9.405-9.24 9.405-24.064 0-33.304-9.406-9.24-24.491-9.24-33.894 0-9.402 9.24-9.405 24.064 0 33.304" stroke="#202023" stroke-width="2" stroke-linecap="round" stroke-linejoin="round"/><path clip-rule="evenodd" d="M10.933 56.212H53.6 10.933z" stroke="#202023" stroke-width="2" stroke-linecap="round" stroke-linejoin="round"/><path d="M34.667 37.545h-12m4.53 5.333v-24h8.472v0a5.664 5.664 0 015.664 5.664v0a5.664 5.664 0 01-5.664 5.664v0H22.667" stroke="#202023" stroke-width="2" stroke-linecap="round" stroke-linejoin="round"/></symbol><symbol fill="none" viewBox="0 0 24 25" id="icon-telegram" xmlns="http://www.w3.org/2000/svg"><path d="M11.795 17.117L9.73 19.126a.666.666 0 01-1.102-.284l-1.376-4.53" stroke="#202023" stroke-width="2" stroke-linecap="round" stroke-linejoin="round"/><path d="M14.104 11.138l-3.917 3.535a.843.843 0 00.066 1.305l5.378 3.973a.904.904 0 001.422-.54l2.641-12.447a.775.775 0 00-1.037-.884L3.142 12.064a.516.516 0 00.032.975L7.25 14.31" stroke="#202023" stroke-width="2" stroke-linecap="round" stroke-linejoin="round"/></symbol><symbol fill="none" viewBox="0 0 24 24" id="icon-tip" xmlns="http://www.w3.org/2000/svg"><path clip-rule="evenodd" d="M16.002 21.004H7.998a5.002 5.002 0 01-5.002-5.002V7.998a5.002 5.002 0 015.002-5.002h8.004a5.002 5.002 0 015.002 5.002v8.004a5.002 5.002 0 01-5.002 5.002z" stroke="#7D7D7D" stroke-width="1.5" stroke-linecap="round" stroke-linejoin="round"/><path d="M12 12.711l1.328-.737A2.087 2.087 0 0014.4 10.15a2.298 2.298 0 00-2.42-2.152 2.345 2.345 0 00-2.382 1.813m2.502 6.091a.1.1 0 11-.2 0 .1.1 0 01.2 0" stroke="#7D7D7D" stroke-width="1.5" stroke-linecap="round" stroke-linejoin="round"/></symbol><symbol fill="none" viewBox="0 0 24 25" id="icon-vk" xmlns="http://www.w3.org/2000/svg"><path d="M10.484 7.21h2.139v10.696h-.003c-2.202 0-4.623-1.338-6.339-3.802C3.704 10.492 3 7.762 3 7.213m18 10.693s-.778-1.64-2.357-3.445c-1.053-1.234-2.535-1.9-3.883-1.9 1.348 0 2.83-.67 3.883-1.902C20.222 8.853 21 7.213 21 7.213m-6.24 5.35h-2.14" stroke="#202023" stroke-width="2" stroke-linecap="round" stroke-linejoin="round"/></symbol></svg>