<svg width="384" height="29" fill="none" xmlns="http://www.w3.org/2000/svg"><rect x="1.5" y="1.211" width="88" height="26" rx="13" stroke="#2FF3FF" stroke-width="2"/><path d="M18.24 9.711h2.145l-3.27 10.5h-3.15l-3.225-10.5h2.19l2.64 9.21 2.67-9.21zm10.227 0h2.1v10.5h-2.1v-4.485h-4.59v4.485h-2.1v-10.5h2.1v4.305h4.59V9.711zm11.028 0h2.145l-3.27 10.5h-3.15l-3.225-10.5h2.19l2.64 9.21 2.67-9.21zm3.537 10.5v-10.5h2.1v10.5h-2.1zm6.94-10.5h7.726v1.395c-2.04 3-3.35 6.035-3.93 9.105h-2.16c.6-2.95 1.97-5.9 4.11-8.85h-5.745v-1.65zm9.876 9.24c-.72-.96-1.08-2.29-1.08-3.99 0-1.7.36-3.03 1.08-3.99.72-.96 1.75-1.44 3.09-1.44 1.34 0 2.37.48 3.09 1.44.72.96 1.08 2.29 1.08 3.99 0 1.7-.36 3.03-1.08 3.99-.72.96-1.75 1.44-3.09 1.44-1.34 0-2.37-.48-3.09-1.44zm1.53-6.795c-.38.65-.57 1.585-.57 2.805 0 1.22.19 2.155.57 2.805.38.65.9.975 1.56.975s1.18-.325 1.56-.975c.39-.65.585-1.585.585-2.805 0-1.22-.195-2.155-.585-2.805-.38-.65-.9-.975-1.56-.975s-1.18.325-1.56.975zm7.566 1.995c-.47-.47-.705-1.11-.705-1.92 0-.81.235-1.445.705-1.905.48-.47 1.12-.705 1.92-.705.81 0 1.45.235 1.92.705.47.46.705 1.095.705 1.905s-.235 1.45-.705 1.92-1.11.705-1.92.705c-.8 0-1.44-.235-1.92-.705zm.855 6.06l7.32-10.5h1.275l-7.305 10.5H69.8zm.18-9.045c-.21.25-.315.605-.315 1.065 0 .46.105.82.315 1.08.22.26.515.39.885.39s.665-.13.885-.39c.22-.26.33-.62.33-1.08 0-.46-.11-.815-.33-1.065-.22-.26-.515-.39-.885-.39s-.665.13-.885.39zm5.445 8.43c-.47-.47-.705-1.11-.705-1.92 0-.81.235-1.445.705-1.905.47-.47 1.11-.705 1.92-.705.81 0 1.45.235 1.92.705.47.46.705 1.095.705 1.905s-.235 1.45-.705 1.92-1.11.705-1.92.705c-.8 0-1.44-.235-1.92-.705zm1.02-3c-.22.26-.33.62-.33 1.08 0 .46.11.82.33 1.08.23.26.53.39.9.39s.665-.13.885-.39c.22-.26.33-.62.33-1.08 0-.46-.11-.82-.33-1.08-.22-.26-.515-.39-.885-.39s-.67.13-.9.39z" fill="#2FF3FF"/><rect x="91.5" y="1.211" width="65" height="26" rx="13" stroke="#39A7E4" stroke-width="2"/><path d="M108.645 20.211l-.765-2.445h-4.335l-.765 2.445h-2.07l3.42-10.5h3.225l3.435 10.5h-2.145zm-4.59-4.05h3.315l-1.65-5.31-1.665 5.31zm15.123-6.45h1.995v10.5h-3.51l-3.495-9.165v9.165h-2.01v-10.5h3.525l3.495 9.165V9.711zm11.673 3.45c1.01 0 1.825.315 2.445.945.63.63.945 1.5.945 2.61 0 1.17-.37 2.075-1.11 2.715-.74.64-1.7.96-2.88.96-1.06 0-1.96-.26-2.7-.78-.74-.53-1.185-1.28-1.335-2.25l1.965-.135c.11.5.355.88.735 1.14.38.25.825.375 1.335.375.58 0 1.05-.175 1.41-.525.37-.36.555-.86.555-1.5 0-.66-.19-1.16-.57-1.5-.37-.35-.85-.525-1.44-.525-.86 0-1.5.33-1.92.99l-1.8-.15.435-5.82h6.72v1.65h-5.205l-.21 2.835c.66-.69 1.535-1.035 2.625-1.035zm4.817.99c-.47-.47-.705-1.11-.705-1.92 0-.81.235-1.445.705-1.905.48-.47 1.12-.705 1.92-.705.81 0 1.45.235 1.92.705.47.46.705 1.095.705 1.905s-.235 1.45-.705 1.92-1.11.705-1.92.705c-.8 0-1.44-.235-1.92-.705zm.855 6.06l7.32-10.5h1.275l-7.305 10.5h-1.29zm.18-9.045c-.21.25-.315.605-.315 1.065 0 .46.105.82.315 1.08.22.26.515.39.885.39s.665-.13.885-.39c.22-.26.33-.62.33-1.08 0-.46-.11-.815-.33-1.065-.22-.26-.515-.39-.885-.39s-.665.13-.885.39zm5.445 8.43c-.47-.47-.705-1.11-.705-1.92 0-.81.235-1.445.705-1.905.47-.47 1.11-.705 1.92-.705.81 0 1.45.235 1.92.705.47.46.705 1.095.705 1.905s-.235 1.45-.705 1.92-1.11.705-1.92.705c-.8 0-1.44-.235-1.92-.705zm1.02-3c-.22.26-.33.62-.33 1.08 0 .46.11.82.33 1.08.23.26.53.39.9.39s.665-.13.885-.39c.22-.26.33-.62.33-1.08 0-.46-.11-.82-.33-1.08-.22-.26-.515-.39-.885-.39s-.67.13-.9.39z" fill="#39A7E4"/><rect x="158.5" y="1.211" width="91" height="26" rx="13" stroke="#00AEC6" stroke-width="2"/><path d="M168.67 20.211v-10.5h7.65v1.65h-5.55v2.73h4.35v1.56h-4.35v2.91h5.76v1.65h-7.86zm8.654-3.42l1.965-.075c.09 1.35.91 2.025 2.46 2.025.6 0 1.1-.1 1.5-.3.4-.21.6-.545.6-1.005 0-.33-.13-.595-.39-.795-.25-.2-.685-.4-1.305-.6l-2.19-.72c-1.5-.49-2.25-1.425-2.25-2.805 0-.67.18-1.235.54-1.695.36-.47.815-.8 1.365-.99.55-.2 1.175-.3 1.875-.3 1.16 0 2.115.29 2.865.87.76.57 1.175 1.375 1.245 2.415l-1.965.105c-.04-.53-.235-.95-.585-1.26-.35-.32-.875-.48-1.575-.48-.55 0-.965.105-1.245.315-.28.21-.42.495-.42.855 0 .31.11.57.33.78.23.21.59.395 1.08.555l2.19.705c.84.27 1.47.63 1.89 1.08.43.45.645 1.055.645 1.815 0 1.04-.38 1.82-1.14 2.34-.75.51-1.775.765-3.075.765-1.4 0-2.47-.305-3.21-.915-.74-.61-1.14-1.505-1.2-2.685zm9.227-5.355V9.711h8.595v1.725h-3.24v8.775h-2.1v-8.775h-3.255zm10.098 8.775v-10.5h7.65v1.65h-5.55v2.73h4.35v1.56h-4.35v2.91h5.76v1.65h-7.86zm18.548 0h-2.505l-2.79-4.065h-1.515v4.065h-2.1v-10.5h4.68c.69 0 1.31.105 1.86.315.55.2 1.01.555 1.38 1.065.37.51.555 1.14.555 1.89 0 .91-.24 1.615-.72 2.115-.48.5-1.125.82-1.935.96l3.09 4.155zm-6.81-8.82v3.18h2.325c.61 0 1.085-.135 1.425-.405.35-.27.525-.665.525-1.185s-.175-.915-.525-1.185c-.34-.27-.815-.405-1.425-.405h-2.325zm17.996 3.225c.62.53.93 1.305.93 2.325 0 1.13-.385 1.99-1.155 2.58-.76.58-1.725.87-2.895.87-1.11 0-2.02-.275-2.73-.825-.7-.55-1.105-1.36-1.215-2.43l1.965-.135c.16 1.16.82 1.74 1.98 1.74.62 0 1.11-.155 1.47-.465.37-.32.555-.765.555-1.335 0-.54-.165-.97-.495-1.29-.33-.32-.825-.48-1.485-.48-.44 0-.97.065-1.59.195v-1.395l2.685-2.61h-4.545v-1.65h7.155v1.47l-3 2.625c1.04.07 1.83.34 2.37.81zm2.55-.465c-.47-.47-.705-1.11-.705-1.92 0-.81.235-1.445.705-1.905.48-.47 1.12-.705 1.92-.705.81 0 1.45.235 1.92.705.47.46.705 1.095.705 1.905s-.235 1.45-.705 1.92-1.11.705-1.92.705c-.8 0-1.44-.235-1.92-.705zm.855 6.06l7.32-10.5h1.275l-7.305 10.5h-1.29zm.18-9.045c-.21.25-.315.605-.315 1.065 0 .46.105.82.315 1.08.22.26.515.39.885.39s.665-.13.885-.39c.22-.26.33-.62.33-1.08 0-.46-.11-.815-.33-1.065-.22-.26-.515-.39-.885-.39s-.665.13-.885.39zm5.445 8.43c-.47-.47-.705-1.11-.705-1.92 0-.81.235-1.445.705-1.905.47-.47 1.11-.705 1.92-.705.81 0 1.45.235 1.92.705.47.46.705 1.095.705 1.905s-.235 1.45-.705 1.92-1.11.705-1.92.705c-.8 0-1.44-.235-1.92-.705zm1.02-3c-.22.26-.33.62-.33 1.08 0 .46.11.82.33 1.08.23.26.53.39.9.39s.665-.13.885-.39c.22-.26.33-.62.33-1.08 0-.46-.11-.82-.33-1.08-.22-.26-.515-.39-.885-.39s-.67.13-.9.39z" fill="#00AEC6"/><rect x="251.5" y="1.211" width="131" height="26" rx="13" fill="#202023"/><rect x="251.5" y="1.211" width="131" height="26" rx="13" stroke="#00C6A2" stroke-width="2"/><path d="M268.645 20.211l-.765-2.445h-4.335l-.765 2.445h-2.07l3.42-10.5h3.225l3.435 10.5h-2.145zm-4.59-4.05h3.315l-1.65-5.31-1.665 5.31zm8.103 4.05v-10.5h4.245c1.53 0 2.71.465 3.54 1.395.84.93 1.26 2.215 1.26 3.855 0 1.64-.42 2.925-1.26 3.855-.83.93-2.01 1.395-3.54 1.395h-4.245zm2.1-1.725h1.92c.95 0 1.675-.31 2.175-.93.5-.63.75-1.495.75-2.595s-.25-1.96-.75-2.58c-.5-.63-1.225-.945-2.175-.945h-1.92v7.05zm8.725 1.725v-10.5h4.245c1.53 0 2.71.465 3.54 1.395.84.93 1.26 2.215 1.26 3.855 0 1.64-.42 2.925-1.26 3.855-.83.93-2.01 1.395-3.54 1.395h-4.245zm2.1-1.725h1.92c.95 0 1.675-.31 2.175-.93.5-.63.75-1.495.75-2.595s-.25-1.96-.75-2.58c-.5-.63-1.225-.945-2.175-.945h-1.92v7.05zm8.726 1.725v-10.5h2.1v10.5h-2.1zm3.598-8.775V9.711h8.595v1.725h-3.24v8.775h-2.1v-8.775h-3.255zm10.098 8.775v-10.5h2.1v10.5h-2.1zm11.008-10.5h2.145l-3.27 10.5h-3.15l-3.225-10.5h2.19l2.64 9.21 2.67-9.21zm3.538 10.5v-10.5h7.65v1.65h-5.55v2.73h4.35v1.56h-4.35v2.91h5.76v1.65h-7.86zm8.654-3.42l1.965-.075c.09 1.35.91 2.025 2.46 2.025.6 0 1.1-.1 1.5-.3.4-.21.6-.545.6-1.005 0-.33-.13-.595-.39-.795-.25-.2-.685-.4-1.305-.6l-2.19-.72c-1.5-.49-2.25-1.425-2.25-2.805 0-.67.18-1.235.54-1.695.36-.47.815-.8 1.365-.99.55-.2 1.175-.3 1.875-.3 1.16 0 2.115.29 2.865.87.76.57 1.175 1.375 1.245 2.415l-1.965.105c-.04-.53-.235-.95-.585-1.26-.35-.32-.875-.48-1.575-.48-.55 0-.965.105-1.245.315-.28.21-.42.495-.42.855 0 .31.11.57.33.78.23.21.59.395 1.08.555l2.19.705c.84.27 1.47.63 1.89 1.08.43.45.645 1.055.645 1.815 0 1.04-.38 1.82-1.14 2.34-.75.51-1.775.765-3.075.765-1.4 0-2.47-.305-3.21-.915-.74-.61-1.14-1.505-1.2-2.685zm15.631 1.77h4.995v1.65h-7.77v-1.515l3.315-3.105c.41-.38.7-.655.87-.825.18-.17.39-.395.63-.675.25-.29.42-.55.51-.78.09-.24.135-.485.135-.735 0-.44-.135-.78-.405-1.02-.26-.25-.61-.375-1.05-.375-.5 0-.91.185-1.23.555-.31.36-.495.92-.555 1.68l-1.95-.15c.09-1.25.475-2.185 1.155-2.805.68-.62 1.54-.93 2.58-.93 1.01 0 1.845.265 2.505.795.66.52.99 1.27.99 2.25 0 .61-.17 1.185-.51 1.725-.33.54-.915 1.195-1.755 1.965l-2.46 2.295zm8.35 0h4.995v1.65h-7.77v-1.515l3.315-3.105c.41-.38.7-.655.87-.825.18-.17.39-.395.63-.675.25-.29.42-.55.51-.78.09-.24.135-.485.135-.735 0-.44-.135-.78-.405-1.02-.26-.25-.61-.375-1.05-.375-.5 0-.91.185-1.23.555-.31.36-.495.92-.555 1.68l-1.95-.15c.09-1.25.475-2.185 1.155-2.805.68-.62 1.54-.93 2.58-.93 1.01 0 1.845.265 2.505.795.66.52.99 1.27.99 2.25 0 .61-.17 1.185-.51 1.725-.33.54-.915 1.195-1.755 1.965l-2.46 2.295zm6.504-4.41c-.47-.47-.705-1.11-.705-1.92 0-.81.235-1.445.705-1.905.48-.47 1.12-.705 1.92-.705.81 0 1.45.235 1.92.705.47.46.705 1.095.705 1.905s-.235 1.45-.705 1.92-1.11.705-1.92.705c-.8 0-1.44-.235-1.92-.705zm.855 6.06l7.32-10.5h1.275l-7.305 10.5h-1.29zm.18-9.045c-.21.25-.315.605-.315 1.065 0 .46.105.82.315 1.08.22.26.515.39.885.39s.665-.13.885-.39c.22-.26.33-.62.33-1.08 0-.46-.11-.815-.33-1.065-.22-.26-.515-.39-.885-.39s-.665.13-.885.39zm5.445 8.43c-.47-.47-.705-1.11-.705-1.92 0-.81.235-1.445.705-1.905.47-.47 1.11-.705 1.92-.705.81 0 1.45.235 1.92.705.47.46.705 1.095.705 1.905s-.235 1.45-.705 1.92-1.11.705-1.92.705c-.8 0-1.44-.235-1.92-.705zm1.02-3c-.22.26-.33.62-.33 1.08 0 .46.11.82.33 1.08.23.26.53.39.9.39s.665-.13.885-.39c.22-.26.33-.62.33-1.08 0-.46-.11-.82-.33-1.08-.22-.26-.515-.39-.885-.39s-.67.13-.9.39z" fill="#00C6A2"/></svg>