<svg width="150" height="40" fill="none" xmlns="http://www.w3.org/2000/svg"><path d="M18.51 7.72c-4.36 0-8.72 3.175-8.72 11.995 0 6.506 6.19 12.833 7.427 15.11 0 1.355.019 1.275 0 1.703-1.293 0-1.51 3.33-.146 3.33 2.432.119 2.272 0 3.256 0 .983 0 1.477-.822 1.477-1.843v-9.136c.028-1.312-.734-2.3-2.16-5.104-.164-.33.245-.644.518-.4 1.505 1.37 3.124 2.969 3.905 3.637 1.2-1.134 2.752-2.527 3.937-3.585.278-.25.691.094.494.414-1.091 1.783-2.352 3.825-2.813 4.747-.057 1.59.056 5.936.056 6.82 0 .885-1.999.998-1.999 2.296 0 1.299-.235 2.296 2 2.296 5.644 0 7.94-13.995 7.94-23.723 0-1.383-2.616-3.642-3.613-4.361-.094 1.176-2.366 5.41-3.387 5.41-1.646 0-4.412-2.047-4.94-4.272-.282-1.185-.432-5.762.941-5.762 1.261 0 2.522.724 3.571 1.477a.96.96 0 001.063.033c.856-.523 1.755-.993 1.755-1.313C29.072 7.1 28.013 0 24.838 0s-6.332 4.902-6.332 7.724l.005-.004z" fill="#F0F0F0"/><path d="M25.101 10.848l1.525.644c-1.59.15-1.242.15-1.242.15l-.283-.79v-.004zm3.867 0l-1.524.644c1.59.15 1.242.15 1.242.15l.282-.79v-.004zm-23.059 6.28c-1.331.334-4.304 2.272-4.304 8.467 0 1.426.705 3.641.663 5.288C2.23 32.534.024 35.45.024 36.782c0 2.32-.282 3.128 1.096 3.128h4.116c1.12 0 1.148-1.618.09-1.618-1.059 0-1.087-.65-1.087-1.557 0-.908 2.597-7.875 5.476-7.776-.772 0-.908 1.778-.908 6.661 0 4.883 0 4.29 1.176 4.29h3.88c.885 0 .885-1.618 0-1.618-.884 0-1.354-.47-1.354-1.529 0-1.058.503-5.23 1.237-5.23-1.5-1.647-4.944-6.695-4.996-12.321 0-.852.118-1.557.207-2-.734-.145-1.947-.366-3.053-.089l.005.005zm22.298-4.154c-.103-.174-.372-.207-.602-.075-.23.132-.339.386-.235.56.103.174.371.207.602.075.23-.132.339-.386.235-.56zm-2.001 0c.104-.174.372-.207.603-.075.23.132.338.386.235.56-.104.174-.372.207-.602.075-.23-.136-.339-.386-.236-.56zM62.729.873h-3.8c-.475 0-.865.307-.865.684V16.04L51.125 1.5c-.16-.335-.614-.51-1.039-.405a.962.962 0 00-.635-.223h-3.793c-.474 0-.865.307-.865.684v25.258c0 .376.384.683.865.683h3.8c.475 0 .865-.307.865-.683V11.682l7.273 15.23c.133.272.468.44.816.433.147.09.328.146.53.146h3.8c.475 0 .866-.307.866-.683V1.55c0-.377-.384-.684-.865-.684l-.014.007zm44.004 0l-3.619.014c-.46-.07-.907.174-.997.544l-4.645 19.582L92.94 1.466c-.084-.37-.53-.607-.998-.544l-3.73-.056c-.46.07-.767.419-.684.788l5.879 25.063c.084.37.53.607.997.544l3.061-.021 3.062.02c.46.07.906-.173.997-.543l5.879-25.056c.083-.37-.224-.718-.684-.788h.014zm20.837.635c0-.349-.363-.635-.802-.635h-3.919c-.447 0-.802.286-.802.635v21.931h-.161c-.062-.042-5.293-.042-5.355 0h-.168V1.515c0-.356-.362-.642-.809-.642h-3.912c-.446 0-.809.286-.809.642l-.146 21.924c-.049 0 .042 0 0 0 0 2.26 2.315 4.094 5.174 4.094.237 0 .474-.021.705-.042a.354.354 0 00.174.042h4.916a.396.396 0 00.126-.021 6 6 0 00.502.02c2.796 0 5.07-1.764 5.16-3.96a.524.524 0 00.119-.328V1.508h.007zm21.574 3.772c0-2.259-2.315-4.093-5.174-4.093-.216 0-.425.014-.635.035a.382.382 0 00-.16-.035h-4.923a.409.409 0 00-.133.02 6.235 6.235 0 00-.516-.02c-2.726 0-4.951 1.667-5.153 3.787a.351.351 0 00-.105.237v8.8c0 .23.23.412.516.412h.007c.049.028.098.056.161.076l10.523 2.853v5.955h-5.719a.24.24 0 00.035-.126v-4.316c0-.16-.167-.293-.369-.293h-4.784c-.202 0-.37.132-.37.293v4.316c0 .07.035.133.091.182.042 2.231 2.336 4.037 5.167 4.037.175 0 .342-.007.516-.02a.41.41 0 00.133.02h4.923a.408.408 0 00.16-.034c.21.02.419.034.635.034 2.824 0 5.119-1.799 5.167-4.023V14.84a.25.25 0 00-.034-.125c.083-.237-.07-.495-.377-.572L137.861 11.2V5.3h5.684v4.373c0 .167.167.3.376.3h4.84c.209 0 .376-.133.376-.3V5.3l.007-.02zm-64.357-.118c-.077-2.204-2.358-3.975-5.168-3.975-.195 0-.383.014-.579.028a.456.456 0 00-.146-.028H73.97a.455.455 0 00-.147.028 7.848 7.848 0 00-.579-.028c-2.859 0-5.174 1.834-5.174 4.093h.042s-.014.07-.014.105V23.3h-.028c0 2.26 2.315 4.093 5.174 4.093.154 0 .3 0 .447-.014.062.07.16.119.279.119h4.916a.371.371 0 00.279-.119c.146.007.3.014.446.014 2.685 0 4.896-1.624 5.147-3.703a.462.462 0 00.076-.25V5.384a.504.504 0 00-.055-.223h.007zm-5.468.223v17.908h-5.683V5.378c0-.035 0-.07-.014-.105h5.711s-.014.07-.014.105v.007zM45.042 33.181a.279.279 0 00-.055-.18c-.035-.047-.097-.068-.194-.068v-.124h3.474c.683 0 1.174.124 1.464.38.297.255.441.614.441 1.077 0 .517-.144.918-.441 1.201-.29.283-.774.421-1.444.421h-2.375v1.982c0 .076.014.138.048.18.035.041.097.069.194.069v.124h-1.36v-.124c.096 0 .158-.021.193-.07a.293.293 0 00.055-.179v-4.695.007zm3.204 2.003c.421 0 .718-.083.89-.235.173-.159.263-.373.263-.649s-.076-.47-.235-.594c-.151-.124-.462-.193-.918-.193h-2.334v1.678h2.334v-.007zm5.179 2.686c0 .076.014.138.048.18.035.041.097.069.2.069v.124h-1.367v-.124c.097 0 .16-.021.2-.07a.29.29 0 00.049-.179v-4.695c0-.076-.014-.139-.048-.18-.035-.048-.104-.069-.2-.069v-.124h3.466c.683 0 1.174.131 1.464.386.297.256.442.636.442 1.12 0 .434-.118.78-.339 1.035-.228.255-.6.414-1.118.483l1.305 2.017c.076.11.138.179.18.213.04.035.117.049.22.049v.124h-1.491v-.124c.09 0 .145 0 .172-.02.028-.015.035-.035.035-.077 0-.041-.02-.076-.055-.11l-1.271-2.024h-1.899v1.982l.007.014zm2.265-2.686c.421 0 .718-.083.89-.235.173-.159.256-.373.256-.649a1.06 1.06 0 00-.048-.352.491.491 0 00-.187-.242.944.944 0 00-.366-.145 2.814 2.814 0 00-.593-.048h-2.21v1.678h2.265l-.007-.007zm4.785-2.002c0-.076-.014-.139-.048-.18-.035-.048-.104-.069-.2-.069v-.124h4.329c.18 0 .29-.014.338-.049.049-.027.07-.082.07-.158h.124v1.18h-.125a.286.286 0 00-.083-.214c-.055-.055-.158-.076-.317-.076h-3.225v1.637h2.1c.124 0 .227-.02.303-.062.076-.042.117-.118.117-.228h.125v1.25h-.124c0-.104-.028-.173-.09-.214-.062-.042-.166-.063-.311-.063h-2.12v1.754h3.453a.551.551 0 00.317-.076c.07-.055.104-.145.104-.276h.124v1.23h-.124c0-.132-.118-.201-.36-.201H60.22v-.124c.097 0 .16-.021.2-.07a.29.29 0 00.05-.179v-4.695l.006.007zm7.161 4.937c.11 0 .18-.021.214-.07a.292.292 0 00.055-.179v-4.695a.279.279 0 00-.055-.18c-.042-.048-.118-.069-.235-.069v-.124h1.747v.124c-.159 0-.235.048-.235.131 0 .042.014.083.042.118l1.684 3.307 1.748-3.307s.013-.042.027-.063a.187.187 0 00.014-.062c0-.034-.02-.062-.055-.09-.035-.027-.104-.034-.2-.034v-.124h1.85v.124c-.117 0-.193.02-.235.07a.279.279 0 00-.055.179v4.695c0 .076.02.138.055.18.042.041.118.069.235.069v.124h-1.45v-.124c.117 0 .193-.021.235-.07a.292.292 0 00.055-.179v-4.08l-.035-.021-2.202 4.37-2.203-4.37v.02l-.007 4.081c0 .076 0 .138.041.18.035.041.097.069.194.069v.124h-1.23v-.124zm9.149 0c.097 0 .159-.021.193-.07a.292.292 0 00.056-.179v-4.695a.279.279 0 00-.056-.18c-.034-.048-.096-.069-.193-.069v-.124h1.367v.124c-.097 0-.159.02-.193.07-.035.04-.049.103-.049.179v4.695c0 .076.014.138.049.18.034.041.096.069.193.069v.124h-1.367v-.124zm4.046-4.938a.279.279 0 00-.055-.18c-.034-.047-.097-.068-.193-.068v-.124h1.367v.124c-.097 0-.159.02-.193.069a.279.279 0 00-.056.18v3.307c0 .394.145.67.442.836.29.165.725.241 1.305.241s1.015-.083 1.305-.242c.29-.158.442-.441.442-.835v-3.307a.278.278 0 00-.055-.18c-.034-.048-.097-.07-.193-.07v-.123h1.367v.124c-.097 0-.159.02-.193.069a.278.278 0 00-.056.18v3.08c0 .413-.062.752-.18 1.014a1.43 1.43 0 01-.517.622 1.944 1.944 0 01-.822.303 6.54 6.54 0 01-1.098.076c-.407 0-.773-.027-1.097-.075a1.943 1.943 0 01-.822-.304 1.531 1.531 0 01-.518-.622c-.117-.262-.18-.6-.18-1.015v-3.08zm7.872 4.938c.11 0 .18-.021.214-.07a.292.292 0 00.055-.179v-4.695a.278.278 0 00-.055-.18c-.041-.048-.117-.069-.235-.069v-.124h1.747v.124c-.159 0-.234.048-.234.131 0 .042.013.083.041.118l1.685 3.307 1.747-3.307s.014-.042.027-.063a.187.187 0 00.014-.062c0-.034-.02-.062-.055-.09-.034-.027-.103-.034-.2-.034v-.124h1.85v.124c-.117 0-.193.02-.234.07a.279.279 0 00-.056.179v4.695c0 .076.021.138.056.18.041.041.117.069.234.069v.124h-1.45v-.124c.118 0 .194-.021.235-.07a.292.292 0 00.055-.179v-4.08l-.027-.021-2.203 4.37-2.203-4.37v.02l-.007 4.081c0 .076 0 .138.042.18.034.041.096.069.193.069v.124H88.71v-.124h-.007zm18.768.945s.055-.062.055-.09v-.069c0-.034-.041-.11-.124-.234-.083-.125-.242-.29-.483-.511a4.795 4.795 0 01-1.119.124c-.449 0-.863-.055-1.243-.173-.38-.11-.711-.29-.987-.524a2.382 2.382 0 01-.649-.87 2.913 2.913 0 01-.235-1.188c0-.449.076-.843.235-1.188.151-.345.372-.635.649-.877.276-.234.607-.414.987-.538a4.19 4.19 0 011.243-.18c.449 0 .863.062 1.243.18.38.117.711.297.987.538.277.235.498.532.649.877.152.345.235.739.235 1.188 0 .538-.11 1.001-.338 1.388a2.483 2.483 0 01-.925.925c.158.166.283.29.366.373a.369.369 0 00.255.124c.035 0 .062-.014.09-.041l.083.083-.919.752-.062-.076.007.007zm-1.726-2.492c.317 0 .58.069.787.207.207.138.407.303.601.504a1.68 1.68 0 00.656-.698c.145-.29.221-.649.221-1.056 0-.65-.194-1.153-.573-1.526-.38-.366-.926-.553-1.63-.553-.704 0-1.243.187-1.63.553-.379.366-.573.877-.573 1.519 0 .642.194 1.153.573 1.52.38.365.926.551 1.63.551.097 0 .193 0 .283-.013.09-.014.18-.021.262-.035-.145-.131-.262-.235-.345-.318a1.717 1.717 0 00-.228-.193.759.759 0 00-.193-.103.733.733 0 00-.235-.035c-.034 0-.062 0-.083.014-.02 0-.041.007-.062.007-.062 0-.09-.028-.09-.07 0-.075.056-.144.166-.193.111-.055.263-.083.463-.083zm5.427-3.391a.282.282 0 00-.055-.18c-.035-.047-.097-.068-.193-.068v-.124h1.367v.124c-.097 0-.159.02-.194.069a.282.282 0 00-.055.18v3.307c0 .394.145.67.442.836.29.165.725.241 1.305.241s1.015-.083 1.305-.242c.29-.158.442-.441.442-.835v-3.307a.282.282 0 00-.055-.18c-.035-.048-.097-.07-.193-.07v-.123h1.367v.124c-.097 0-.159.02-.194.069a.282.282 0 00-.055.18v3.08c0 .413-.062.752-.179 1.014-.118.263-.29.47-.518.622a1.943 1.943 0 01-.822.303 6.54 6.54 0 01-1.098.076c-.407 0-.773-.027-1.098-.075a1.943 1.943 0 01-.821-.304 1.53 1.53 0 01-.518-.622c-.118-.262-.18-.6-.18-1.015v-3.08zm8.411 4.44c-.028.063-.062.132-.09.208a.428.428 0 00-.048.172c0 .076.055.11.172.11v.125h-1.27v-.124c.041 0 .076 0 .11-.007.035 0 .062-.028.09-.062a.879.879 0 00.09-.152c.034-.062.076-.152.131-.263l1.871-4.177.124-.263a.331.331 0 00.042-.138c0-.082-.062-.124-.187-.124v-.124h1.513v.124c-.111 0-.166.041-.166.124a.37.37 0 00.055.16c.035.061.076.158.131.275l1.982 4.116.145.29a.861.861 0 00.097.152.165.165 0 00.097.062c.034 0 .082.007.145.007v.124h-1.437v-.124c.083 0 .138-.014.166-.035a.144.144 0 00.041-.11.232.232 0 00-.027-.11c-.014-.035-.055-.118-.111-.242l-.393-.829h-2.928l-.352.829.007.006zm2.927-1.512l-1.167-2.437-1.077 2.437h2.244zm5.276-3.176c-.097 0-.159.028-.193.07-.035.047-.049.117-.049.213v4.343h3.473c.242 0 .359-.103.359-.31h.125v1.187h-.125c0-.13-.117-.2-.359-.2h-4.591v-.124c.096 0 .158-.02.193-.07a.296.296 0 00.055-.179v-4.695a.281.281 0 00-.055-.18c-.035-.048-.097-.069-.193-.069v-.124h1.367v.124l-.007.014zm5.531 5.186c.097 0 .159-.021.193-.07a.29.29 0 00.055-.179v-4.695a.276.276 0 00-.055-.18c-.034-.048-.096-.069-.193-.069v-.124h1.367v.124c-.097 0-.159.02-.193.07-.035.04-.049.103-.049.179v4.695c0 .076.014.138.049.18.034.041.096.069.193.069v.124h-1.367v-.124zm5.393 0c.097 0 .159-.02.193-.07a.29.29 0 00.056-.179v-4.384h-1.741c-.131 0-.22.02-.276.055-.055.034-.083.11-.083.214h-.124v-1.222h.124c0 .18.118.269.359.269h4.344c.241 0 .359-.09.359-.27h.124v1.223h-.124c0-.104-.028-.173-.083-.214a.533.533 0 00-.276-.055h-1.74v4.384c0 .076.02.139.055.18.034.041.097.069.193.069v.124h-1.367v-.124h.007zm6.802 0c.096 0 .158-.021.193-.07a.296.296 0 00.055-.179v-1.878l-1.995-2.707a2.19 2.19 0 00-.235-.27.296.296 0 00-.214-.082v-.124h1.56v.124c-.172 0-.262.055-.262.145 0 .034.021.076.062.117a.88.88 0 01.117.152l1.43 1.94 1.512-2.002s.055-.069.09-.11c.034-.042.055-.083.055-.11 0-.084-.076-.125-.228-.125v-.124h1.492v.124a.312.312 0 00-.235.09c-.055.062-.138.145-.235.262l-2.044 2.707v1.878c0 .076.021.138.055.18.035.04.097.069.194.069v.124h-1.367v-.131z" fill="#F0F0F0"/></svg>