<svg width="120" height="121" fill="none" xmlns="http://www.w3.org/2000/svg"><g clip-path="url(#clip0_1259_5489)" fill="#F0F0F0"><path d="M59.02 14.282c7.361 0 14.723 5.351 14.723 20.216 0 10.963-10.451 21.626-12.54 25.463 0 2.283-.031 2.148 0 2.87 2.184 0 2.55 5.612.247 5.612-4.106.199-3.836 0-5.496 0-1.66 0-2.493-1.387-2.493-3.107V49.94c-.048-2.212 1.239-3.877 3.645-8.602.278-.555-.413-1.086-.874-.674-2.54 2.307-5.273 5.002-6.59 6.128-2.026-1.91-4.647-4.257-6.648-6.04-.468-.42-1.167.158-.834.697 1.843 3.005 3.971 6.445 4.75 7.999.095 2.68-.096 10.005-.096 11.495 0 1.49 3.375 1.68 3.375 3.869 0 2.188.397 3.868-3.375 3.868-9.53 0-13.405-23.584-13.405-39.979 0-2.33 4.416-6.136 6.099-7.349.159 1.982 3.994 9.117 5.718 9.117 2.78 0 7.449-3.448 8.338-7.198.477-1.998.73-9.711-1.588-9.711-2.129 0-4.257 1.22-6.028 2.489a1.624 1.624 0 01-1.794.055c-1.446-.88-2.962-1.672-2.962-2.211 0-.658 1.786-12.621 7.147-12.621 5.36 0 10.689 8.26 10.689 13.017l-.008-.008z"/><path d="M47.894 19.554l-2.573 1.086c2.684.254 2.096.254 2.096.254l.477-1.332v-.008zm-6.528 0l2.573 1.086c-2.684.254-2.097.254-2.097.254l-.476-1.332v-.008z" stroke="#F0F0F0" stroke-linejoin="round"/><path d="M80.293 30.137c2.248.563 7.266 3.83 7.266 14.27 0 2.402-1.19 6.136-1.12 8.91.064 2.783 3.789 7.698 3.789 9.942 0 3.908.476 5.272-1.85 5.272h-6.95c-1.89 0-1.937-2.727-.15-2.727 1.787 0 1.834-1.094 1.834-2.624S78.73 49.909 73.87 50.075c1.302 0 1.532 2.997 1.532 11.226 0 8.229 0 7.23-1.985 7.23h-6.551c-1.493 0-1.493-2.727 0-2.727s2.287-.793 2.287-2.577c0-1.783-.85-8.815-2.089-8.815 2.533-2.775 8.346-11.281 8.434-20.763 0-1.434-.199-2.624-.35-3.369 1.24-.246 3.288-.618 5.154-.15l-.008.008zm-37.642-7c.175-.293.628-.349 1.017-.127.39.222.572.65.397.944-.175.293-.627.348-1.016.127-.39-.222-.572-.65-.398-.944zm3.378 0c-.175-.293-.628-.349-1.017-.127-.389.222-.572.65-.397.944.175.293.627.348 1.017.127.389-.23.571-.65.397-.944zM.286 113.377a.32.32 0 00-.064-.206c-.04-.055-.11-.079-.222-.079v-.143h3.994c.787 0 1.35.143 1.684.436.341.294.508.706.508 1.237 0 .595-.167 1.054-.508 1.379-.334.325-.89.484-1.66.484H1.286v2.275c0 .087.016.159.056.206.04.048.111.08.222.08v.142H0v-.142c.111 0 .183-.024.222-.08a.335.335 0 00.064-.206v-5.391.008zm3.685 2.299c.484 0 .826-.095 1.024-.269.199-.183.302-.428.302-.745 0-.318-.088-.54-.27-.682-.175-.143-.532-.222-1.056-.222H1.286v1.926h2.685v-.008zm5.955 3.084c0 .087.016.159.055.206.04.048.111.08.23.08v.142H8.64v-.142c.111 0 .183-.024.23-.08a.332.332 0 00.056-.206v-5.39c0-.088-.016-.159-.056-.207-.04-.055-.119-.079-.23-.079v-.143h3.987c.786 0 1.35.151 1.683.444.342.294.508.73.508 1.285 0 .499-.135.895-.389 1.189-.262.293-.69.475-1.286.555l1.5 2.315c.088.126.16.206.207.245.048.04.135.056.254.056v.142h-1.715v-.142c.103 0 .167 0 .198-.024.032-.016.04-.04.04-.087 0-.048-.024-.087-.063-.127l-1.462-2.323H9.918v2.275l.008.016zm2.604-3.084c.485 0 .826-.095 1.025-.269.198-.182.294-.428.294-.745 0-.159-.016-.294-.056-.405a.561.561 0 00-.214-.277 1.095 1.095 0 00-.421-.167 3.287 3.287 0 00-.683-.055H9.934v1.926h2.604l-.008-.008zm5.505-2.299c0-.087-.016-.158-.056-.206-.04-.055-.12-.079-.23-.079v-.143h4.979c.206 0 .333-.016.389-.055.055-.032.08-.095.08-.183h.142v1.356h-.143a.33.33 0 00-.095-.246c-.063-.063-.183-.087-.365-.087h-3.709v1.879h2.414a.746.746 0 00.35-.071c.087-.048.135-.135.135-.262h.143v1.435h-.143c0-.119-.032-.198-.103-.246-.072-.047-.191-.071-.358-.071h-2.438v2.013h3.97c.168 0 .287-.031.366-.087.08-.063.12-.166.12-.317h.142v1.411h-.143c0-.15-.135-.23-.413-.23h-5.328v-.142c.11 0 .182-.024.23-.08a.332.332 0 00.056-.206v-5.391l.008.008zm8.235 5.669c.127 0 .207-.024.247-.08a.335.335 0 00.063-.206v-5.39a.321.321 0 00-.063-.207c-.048-.055-.136-.079-.27-.079v-.143h2.009v.143c-.183 0-.27.056-.27.151 0 .047.015.095.047.135l1.938 3.797 2.009-3.797s.016-.048.032-.072c.008-.024.016-.047.016-.071 0-.04-.024-.072-.064-.103-.04-.032-.119-.04-.23-.04v-.143h2.128v.143c-.135 0-.222.024-.27.079a.321.321 0 00-.063.207v5.39c0 .087.023.159.063.206.048.048.135.08.27.08v.142h-1.668v-.142c.135 0 .223-.024.27-.08a.334.334 0 00.064-.206v-4.685l-.04-.024-2.533 5.018-2.533-5.018v.024l-.008 4.685c0 .087 0 .159.047.206.04.048.112.08.223.08v.142H26.27v-.142zm10.52 0c.111 0 .183-.024.223-.08a.335.335 0 00.063-.206v-5.39a.321.321 0 00-.063-.207c-.04-.055-.111-.079-.223-.079v-.143h1.573v.143c-.111 0-.183.024-.223.079-.04.048-.055.119-.055.207v5.39c0 .087.016.159.055.206.04.048.111.08.223.08v.142H36.79v-.142zm4.654-5.669a.32.32 0 00-.064-.206c-.04-.055-.11-.079-.222-.079v-.143h1.572v.143c-.11 0-.182.024-.222.079a.32.32 0 00-.064.206v3.798c0 .451.167.769.509.959.333.19.833.277 1.5.277.668 0 1.168-.095 1.502-.277.333-.182.508-.508.508-.959v-3.798a.32.32 0 00-.064-.206c-.04-.055-.111-.079-.222-.079v-.143h1.572v.143c-.111 0-.183.024-.222.079a.32.32 0 00-.064.206v3.536c0 .476-.071.864-.206 1.165a1.644 1.644 0 01-.596.714 2.248 2.248 0 01-.945.349 7.684 7.684 0 01-1.262.087 8.68 8.68 0 01-1.263-.087 2.249 2.249 0 01-.945-.349 1.76 1.76 0 01-.596-.714c-.135-.301-.206-.689-.206-1.165v-3.536zm9.053 5.669c.127 0 .207-.024.246-.08a.335.335 0 00.064-.206v-5.39a.321.321 0 00-.064-.207c-.047-.055-.135-.079-.27-.079v-.143h2.01v.143c-.183 0-.27.056-.27.151 0 .047.015.095.047.135l1.938 3.797 2.009-3.797s.016-.048.032-.072c.008-.024.016-.047.016-.071 0-.04-.024-.072-.064-.103-.04-.032-.119-.04-.23-.04v-.143h2.128v.143c-.135 0-.222.024-.27.079a.321.321 0 00-.064.207v5.39c0 .087.024.159.064.206.048.048.135.08.27.08v.142h-1.668v-.142c.135 0 .223-.024.27-.08a.335.335 0 00.064-.206v-4.685l-.032-.024-2.533 5.018-2.533-5.018v.024l-.008 4.685c0 .087 0 .159.047.206.04.048.111.08.223.08v.142h-1.414v-.142h-.008zm21.586 1.086s.063-.072.063-.103v-.08c0-.039-.047-.126-.143-.269-.095-.143-.278-.333-.556-.587a5.52 5.52 0 01-1.286.143c-.516 0-.993-.064-1.43-.198a3.059 3.059 0 01-1.135-.603 2.748 2.748 0 01-.747-.999 3.337 3.337 0 01-.27-1.363c0-.516.088-.967.27-1.364.175-.396.43-.729.747-1.007a3.355 3.355 0 011.135-.618 4.82 4.82 0 011.43-.206c.516 0 .992.071 1.43.206a3.1 3.1 0 011.135.618c.317.27.572.611.746 1.007.175.397.27.848.27 1.364 0 .618-.127 1.149-.389 1.593a2.843 2.843 0 01-1.064 1.062c.183.191.326.333.421.429a.428.428 0 00.294.142c.04 0 .071-.016.103-.047l.095.095-1.056.864-.071-.087.008.008zm-1.986-2.862c.366 0 .667.079.906.238.238.158.468.348.69.578.334-.198.588-.467.755-.8.167-.333.254-.746.254-1.213 0-.745-.222-1.324-.66-1.752-.436-.42-1.063-.634-1.873-.634s-1.43.214-1.874.634c-.437.42-.66 1.007-.66 1.744 0 .737.223 1.324.66 1.744.436.42 1.064.634 1.874.634.111 0 .222 0 .325-.016.104-.016.207-.024.302-.039-.167-.151-.302-.27-.397-.365a1.933 1.933 0 00-.262-.222.868.868 0 00-.222-.119.838.838 0 00-.27-.04c-.04 0-.072 0-.096.016-.024 0-.047.008-.071.008-.072 0-.103-.032-.103-.079 0-.087.063-.167.19-.222.127-.063.302-.095.532-.095zm6.242-3.893a.32.32 0 00-.064-.206c-.04-.055-.111-.079-.222-.079v-.143h1.572v.143c-.111 0-.182.024-.222.079a.32.32 0 00-.064.206v3.798c0 .451.167.769.509.959.333.19.833.277 1.5.277.668 0 1.168-.095 1.501-.277.334-.182.509-.508.509-.959v-3.798a.32.32 0 00-.064-.206c-.04-.055-.111-.079-.222-.079v-.143h1.572v.143c-.111 0-.183.024-.222.079a.32.32 0 00-.064.206v3.536c0 .476-.071.864-.206 1.165a1.644 1.644 0 01-.596.714 2.248 2.248 0 01-.945.349 7.684 7.684 0 01-1.263.087 8.68 8.68 0 01-1.262-.087 2.249 2.249 0 01-.945-.349 1.76 1.76 0 01-.596-.714c-.135-.301-.206-.689-.206-1.165v-3.536zm9.672 5.098c-.032.071-.071.15-.103.238a.499.499 0 00-.056.198c0 .087.064.127.199.127v.142H84.59v-.142c.047 0 .087 0 .127-.008.04 0 .071-.032.103-.072a.985.985 0 00.103-.174c.04-.071.087-.174.151-.301l2.152-4.796c.064-.135.111-.238.143-.302a.383.383 0 00.048-.158c0-.095-.072-.143-.215-.143v-.143h1.74v.143c-.128 0-.191.048-.191.143 0 .047.024.111.063.182.04.071.088.182.151.317l2.28 4.725c.07.143.126.254.166.333a.94.94 0 00.111.174c.032.04.072.064.111.072.04 0 .096.008.167.008v.142h-1.65v-.142c.095 0 .158-.016.19-.04a.167.167 0 00.048-.127.274.274 0 00-.032-.127c-.016-.039-.064-.134-.127-.277l-.453-.951h-3.367l-.405.951.008.008zm3.367-1.736l-1.342-2.799-1.239 2.799h2.581zm6.067-3.647c-.111 0-.183.032-.223.079-.04.056-.055.135-.055.246v4.987h3.994c.278 0 .413-.119.413-.357h.143v1.363h-.143c0-.15-.135-.229-.413-.229h-5.28v-.143c.11 0 .182-.024.222-.079a.338.338 0 00.063-.207v-5.39a.316.316 0 00-.063-.206c-.04-.056-.112-.08-.223-.08v-.142h1.573v.142l-.008.016zm6.361 5.954c.111 0 .183-.024.222-.08a.333.333 0 00.064-.206v-5.39a.32.32 0 00-.064-.207c-.039-.055-.111-.079-.222-.079v-.143h1.572v.143c-.111 0-.182.024-.222.079-.04.048-.056.119-.056.207v5.39c0 .087.016.159.056.206.04.048.111.08.222.08v.142h-1.572v-.142zm6.202 0c.111 0 .182-.024.222-.08a.33.33 0 00.063-.206v-5.034h-2.001c-.151 0-.254.024-.317.064-.064.039-.096.127-.096.246h-.143v-1.404h.143c0 .206.135.309.413.309h4.995c.278 0 .413-.103.413-.309h.143v1.404h-.143c0-.119-.032-.199-.095-.246-.064-.04-.167-.064-.318-.064h-2.001v5.034c0 .088.024.159.064.206.039.048.111.08.222.08v.142H108v-.142h.008zm7.823 0c.111 0 .182-.024.222-.08a.333.333 0 00.064-.206v-2.156l-2.296-3.108a2.426 2.426 0 00-.27-.309.341.341 0 00-.246-.095v-.143h1.795v.143c-.199 0-.302.063-.302.166 0 .04.024.088.072.135.047.048.095.111.135.175l1.644 2.227 1.739-2.299.103-.127c.04-.047.063-.095.063-.126 0-.096-.087-.143-.262-.143v-.143h1.716v.143a.36.36 0 00-.27.103c-.064.071-.159.166-.27.301l-2.351 3.108v2.156c0 .087.024.159.064.206.039.048.111.079.222.079v.143h-1.572v-.15zM21.067 75.294h-4.328c-.54 0-.985.348-.985.776v16.466L7.853 76.007c-.183-.38-.7-.579-1.184-.46a1.096 1.096 0 00-.722-.253h-4.32c-.54 0-.985.348-.985.776v28.714c0 .428.437.777.985.777h4.328c.54 0 .984-.349.984-.777V87.581l8.283 17.314c.151.309.532.5.93.492.166.103.373.166.603.166h4.328c.54 0 .985-.349.985-.777V76.063c0-.428-.437-.777-.985-.777l-.016.008zm50.11 0l-4.121.015c-.524-.079-1.032.199-1.136.619l-5.289 22.26-5.161-22.22c-.096-.42-.604-.69-1.136-.619l-4.249-.063c-.524.079-.873.475-.778.895l6.695 28.492c.095.42.603.69 1.135.619l3.486-.024 3.487.024c.524.079 1.032-.199 1.135-.619l6.695-28.484c.095-.42-.254-.816-.779-.895h.016zm23.727.721c0-.397-.412-.722-.913-.722h-4.463c-.508 0-.913.325-.913.722v24.932h-.183c-.071-.047-6.027-.047-6.099 0h-.19V76.023c0-.404-.413-.73-.921-.73h-4.455c-.508 0-.921.325-.921.73l-.167 24.924c-.056 0 .047 0 0 0 0 2.569 2.636 4.654 5.892 4.654.27 0 .54-.024.802-.048a.405.405 0 00.199.048h5.598a.447.447 0 00.143-.024c.19.016.382.024.572.024 3.184 0 5.773-2.006 5.877-4.503a.598.598 0 00.135-.373v-24.71h.007zm24.571 4.289c0-2.569-2.636-4.654-5.892-4.654-.246 0-.484.016-.723.04a.438.438 0 00-.182-.04h-5.607a.467.467 0 00-.151.024 7.1 7.1 0 00-.587-.024c-3.105 0-5.639 1.895-5.869 4.305a.402.402 0 00-.119.27v10.004c0 .262.262.468.588.468h.008a.968.968 0 00.182.087l11.984 3.243v6.77h-6.512a.272.272 0 00.039-.143v-4.907c0-.183-.19-.333-.42-.333h-5.448c-.23 0-.421.15-.421.333v4.907c0 .079.04.151.103.206.048 2.537 2.661 4.59 5.885 4.59a7.2 7.2 0 00.587-.024.464.464 0 00.151.024h5.607a.482.482 0 00.182-.039c.239.023.477.039.723.039 3.216 0 5.829-2.045 5.884-4.574v-9.703a.272.272 0 00-.039-.143c.095-.27-.08-.563-.429-.65l-12.373-3.346v-6.706h6.473v4.97c0 .19.19.341.428.341h5.512c.238 0 .428-.15.428-.34v-4.971l.008-.024zm-73.291-.134c-.087-2.506-2.684-4.52-5.884-4.52-.223 0-.437.016-.66.032a.518.518 0 00-.166-.032h-5.607a.518.518 0 00-.166.032 8.928 8.928 0 00-.66-.032c-3.255 0-5.892 2.085-5.892 4.654h.048s-.016.08-.016.119v20.366h-.032c0 2.568 2.636 4.653 5.892 4.653.175 0 .342 0 .509-.016a.42.42 0 00.317.135h5.599a.42.42 0 00.318-.135c.166.008.341.016.508.016 3.057 0 5.575-1.847 5.86-4.209a.526.526 0 00.088-.286V80.423a.57.57 0 00-.064-.254h.008zm-6.226.253v20.358h-6.472V80.415c0-.04 0-.08-.016-.119h6.504s-.016.08-.016.119v.008z"/></g><defs><clipPath id="clip0_1259_5489"><path fill="#fff" transform="translate(0 .21)" d="M0 0h120v120H0z"/></clipPath></defs></svg>