<svg width="310" height="310" viewBox="0 0 310 310" fill="none" xmlns="http://www.w3.org/2000/svg">
<path d="M284.634 218.55C273.372 241.42 256.259 260.904 235.033 275.024C213.807 289.143 189.223 297.396 163.777 298.945C138.331 300.493 112.928 295.282 90.1461 283.84C67.3646 272.398 48.0157 255.133 34.0632 233.797C20.1106 212.46 12.0511 187.813 10.7026 162.355C9.35408 136.897 14.7646 111.536 26.3851 88.8452C38.0055 66.1543 55.4222 46.9416 76.8674 33.157C98.3126 19.3725 123.023 11.5068 148.49 10.3582" stroke="#2FF3FF" stroke-width="20"/>
<path d="M155 10.2114C170.163 10.2114 185.232 12.5981 199.653 17.2838" stroke="#39A7E4" stroke-width="20"/>
<path d="M205.805 19.4376C214.311 22.6321 222.497 26.6218 230.253 31.3537" stroke="#00AEC6" stroke-width="20"/>
<path d="M234.982 34.3664C262.987 52.9787 283.624 80.7751 293.338 112.967C303.052 145.159 301.235 179.731 288.2 210.727" stroke="#00C6A2" stroke-width="20"/>
</svg>
