<svg width="384" height="29" viewBox="0 0 384 29" fill="none" xmlns="http://www.w3.org/2000/svg">
<rect x="1.5" y="1.21143" width="88" height="26" rx="13" stroke="#2FF3FF" stroke-width="2"/>
<path d="M18.24 9.71143H20.385L17.115 20.2114H13.965L10.74 9.71143H12.93L15.57 18.9214L18.24 9.71143ZM28.4674 9.71143H30.5674V20.2114H28.4674V15.7264H23.8774V20.2114H21.7774V9.71143H23.8774V14.0164H28.4674V9.71143ZM39.4949 9.71143H41.6399L38.3699 20.2114H35.2199L31.9949 9.71143H34.1849L36.8249 18.9214L39.4949 9.71143ZM43.0323 20.2114V9.71143H45.1323V20.2114H43.0323ZM49.9727 9.71143H57.6977V11.1064C55.6577 14.1064 54.3477 17.1414 53.7677 20.2114H51.6077C52.2077 17.2614 53.5777 14.3114 55.7177 11.3614H49.9727V9.71143ZM59.8481 18.9514C59.1281 17.9914 58.7681 16.6614 58.7681 14.9614C58.7681 13.2614 59.1281 11.9314 59.8481 10.9714C60.5681 10.0114 61.5981 9.53143 62.9381 9.53143C64.2781 9.53143 65.3081 10.0114 66.0281 10.9714C66.7481 11.9314 67.1081 13.2614 67.1081 14.9614C67.1081 16.6614 66.7481 17.9914 66.0281 18.9514C65.3081 19.9114 64.2781 20.3914 62.9381 20.3914C61.5981 20.3914 60.5681 19.9114 59.8481 18.9514ZM61.3781 12.1564C60.9981 12.8064 60.8081 13.7414 60.8081 14.9614C60.8081 16.1814 60.9981 17.1164 61.3781 17.7664C61.7581 18.4164 62.2781 18.7414 62.9381 18.7414C63.5981 18.7414 64.1181 18.4164 64.4981 17.7664C64.8881 17.1164 65.0831 16.1814 65.0831 14.9614C65.0831 13.7414 64.8881 12.8064 64.4981 12.1564C64.1181 11.5064 63.5981 11.1814 62.9381 11.1814C62.2781 11.1814 61.7581 11.5064 61.3781 12.1564ZM68.9443 14.1514C68.4743 13.6814 68.2393 13.0414 68.2393 12.2314C68.2393 11.4214 68.4743 10.7864 68.9443 10.3264C69.4243 9.85643 70.0643 9.62143 70.8643 9.62143C71.6743 9.62143 72.3143 9.85643 72.7843 10.3264C73.2543 10.7864 73.4893 11.4214 73.4893 12.2314C73.4893 13.0414 73.2543 13.6814 72.7843 14.1514C72.3143 14.6214 71.6743 14.8564 70.8643 14.8564C70.0643 14.8564 69.4243 14.6214 68.9443 14.1514ZM69.7993 20.2114L77.1193 9.71143H78.3943L71.0893 20.2114H69.7993ZM69.9793 11.1664C69.7693 11.4164 69.6643 11.7714 69.6643 12.2314C69.6643 12.6914 69.7693 13.0514 69.9793 13.3114C70.1993 13.5714 70.4943 13.7014 70.8643 13.7014C71.2343 13.7014 71.5293 13.5714 71.7493 13.3114C71.9693 13.0514 72.0793 12.6914 72.0793 12.2314C72.0793 11.7714 71.9693 11.4164 71.7493 11.1664C71.5293 10.9064 71.2343 10.7764 70.8643 10.7764C70.4943 10.7764 70.1993 10.9064 69.9793 11.1664ZM75.4243 19.5964C74.9543 19.1264 74.7193 18.4864 74.7193 17.6764C74.7193 16.8664 74.9543 16.2314 75.4243 15.7714C75.8943 15.3014 76.5343 15.0664 77.3443 15.0664C78.1543 15.0664 78.7943 15.3014 79.2643 15.7714C79.7343 16.2314 79.9693 16.8664 79.9693 17.6764C79.9693 18.4864 79.7343 19.1264 79.2643 19.5964C78.7943 20.0664 78.1543 20.3014 77.3443 20.3014C76.5443 20.3014 75.9043 20.0664 75.4243 19.5964ZM76.4443 16.5964C76.2243 16.8564 76.1143 17.2164 76.1143 17.6764C76.1143 18.1364 76.2243 18.4964 76.4443 18.7564C76.6743 19.0164 76.9743 19.1464 77.3443 19.1464C77.7143 19.1464 78.0093 19.0164 78.2293 18.7564C78.4493 18.4964 78.5593 18.1364 78.5593 17.6764C78.5593 17.2164 78.4493 16.8564 78.2293 16.5964C78.0093 16.3364 77.7143 16.2064 77.3443 16.2064C76.9743 16.2064 76.6743 16.3364 76.4443 16.5964Z" fill="#2FF3FF"/>
<rect x="91.5" y="1.21143" width="65" height="26" rx="13" stroke="#39A7E4" stroke-width="2"/>
<path d="M108.645 20.2114L107.88 17.7664H103.545L102.78 20.2114H100.71L104.13 9.71143H107.355L110.79 20.2114H108.645ZM104.055 16.1614H107.37L105.72 10.8514L104.055 16.1614ZM119.178 9.71143H121.173V20.2114H117.663L114.168 11.0464V20.2114H112.158V9.71143H115.683L119.178 18.8764V9.71143ZM130.851 13.1614C131.861 13.1614 132.676 13.4764 133.296 14.1064C133.926 14.7364 134.241 15.6064 134.241 16.7164C134.241 17.8864 133.871 18.7914 133.131 19.4314C132.391 20.0714 131.431 20.3914 130.251 20.3914C129.191 20.3914 128.291 20.1314 127.551 19.6114C126.811 19.0814 126.366 18.3314 126.216 17.3614L128.181 17.2264C128.291 17.7264 128.536 18.1064 128.916 18.3664C129.296 18.6164 129.741 18.7414 130.251 18.7414C130.831 18.7414 131.301 18.5664 131.661 18.2164C132.031 17.8564 132.216 17.3564 132.216 16.7164C132.216 16.0564 132.026 15.5564 131.646 15.2164C131.276 14.8664 130.796 14.6914 130.206 14.6914C129.346 14.6914 128.706 15.0214 128.286 15.6814L126.486 15.5314L126.921 9.71143H133.641V11.3614H128.436L128.226 14.1964C128.886 13.5064 129.761 13.1614 130.851 13.1614ZM135.668 14.1514C135.198 13.6814 134.963 13.0414 134.963 12.2314C134.963 11.4214 135.198 10.7864 135.668 10.3264C136.148 9.85643 136.788 9.62143 137.588 9.62143C138.398 9.62143 139.038 9.85643 139.508 10.3264C139.978 10.7864 140.213 11.4214 140.213 12.2314C140.213 13.0414 139.978 13.6814 139.508 14.1514C139.038 14.6214 138.398 14.8564 137.588 14.8564C136.788 14.8564 136.148 14.6214 135.668 14.1514ZM136.523 20.2114L143.843 9.71143H145.118L137.813 20.2114H136.523ZM136.703 11.1664C136.493 11.4164 136.388 11.7714 136.388 12.2314C136.388 12.6914 136.493 13.0514 136.703 13.3114C136.923 13.5714 137.218 13.7014 137.588 13.7014C137.958 13.7014 138.253 13.5714 138.473 13.3114C138.693 13.0514 138.803 12.6914 138.803 12.2314C138.803 11.7714 138.693 11.4164 138.473 11.1664C138.253 10.9064 137.958 10.7764 137.588 10.7764C137.218 10.7764 136.923 10.9064 136.703 11.1664ZM142.148 19.5964C141.678 19.1264 141.443 18.4864 141.443 17.6764C141.443 16.8664 141.678 16.2314 142.148 15.7714C142.618 15.3014 143.258 15.0664 144.068 15.0664C144.878 15.0664 145.518 15.3014 145.988 15.7714C146.458 16.2314 146.693 16.8664 146.693 17.6764C146.693 18.4864 146.458 19.1264 145.988 19.5964C145.518 20.0664 144.878 20.3014 144.068 20.3014C143.268 20.3014 142.628 20.0664 142.148 19.5964ZM143.168 16.5964C142.948 16.8564 142.838 17.2164 142.838 17.6764C142.838 18.1364 142.948 18.4964 143.168 18.7564C143.398 19.0164 143.698 19.1464 144.068 19.1464C144.438 19.1464 144.733 19.0164 144.953 18.7564C145.173 18.4964 145.283 18.1364 145.283 17.6764C145.283 17.2164 145.173 16.8564 144.953 16.5964C144.733 16.3364 144.438 16.2064 144.068 16.2064C143.698 16.2064 143.398 16.3364 143.168 16.5964Z" fill="#39A7E4"/>
<rect x="158.5" y="1.21143" width="91" height="26" rx="13" stroke="#00AEC6" stroke-width="2"/>
<path d="M168.67 20.2114V9.71143H176.32V11.3614H170.77V14.0914H175.12V15.6514H170.77V18.5614H176.53V20.2114H168.67ZM177.324 16.7914L179.289 16.7164C179.379 18.0664 180.199 18.7414 181.749 18.7414C182.349 18.7414 182.849 18.6414 183.249 18.4414C183.649 18.2314 183.849 17.8964 183.849 17.4364C183.849 17.1064 183.719 16.8414 183.459 16.6414C183.209 16.4414 182.774 16.2414 182.154 16.0414L179.964 15.3214C178.464 14.8314 177.714 13.8964 177.714 12.5164C177.714 11.8464 177.894 11.2814 178.254 10.8214C178.614 10.3514 179.069 10.0214 179.619 9.83143C180.169 9.63143 180.794 9.53143 181.494 9.53143C182.654 9.53143 183.609 9.82143 184.359 10.4014C185.119 10.9714 185.534 11.7764 185.604 12.8164L183.639 12.9214C183.599 12.3914 183.404 11.9714 183.054 11.6614C182.704 11.3414 182.179 11.1814 181.479 11.1814C180.929 11.1814 180.514 11.2864 180.234 11.4964C179.954 11.7064 179.814 11.9914 179.814 12.3514C179.814 12.6614 179.924 12.9214 180.144 13.1314C180.374 13.3414 180.734 13.5264 181.224 13.6864L183.414 14.3914C184.254 14.6614 184.884 15.0214 185.304 15.4714C185.734 15.9214 185.949 16.5264 185.949 17.2864C185.949 18.3264 185.569 19.1064 184.809 19.6264C184.059 20.1364 183.034 20.3914 181.734 20.3914C180.334 20.3914 179.264 20.0864 178.524 19.4764C177.784 18.8664 177.384 17.9714 177.324 16.7914ZM186.551 11.4364V9.71143H195.146V11.4364H191.906V20.2114H189.806V11.4364H186.551ZM196.649 20.2114V9.71143H204.299V11.3614H198.749V14.0914H203.099V15.6514H198.749V18.5614H204.509V20.2114H196.649ZM215.197 20.2114H212.692L209.902 16.1464H208.387V20.2114H206.287V9.71143H210.967C211.657 9.71143 212.277 9.81643 212.827 10.0264C213.377 10.2264 213.837 10.5814 214.207 11.0914C214.577 11.6014 214.762 12.2314 214.762 12.9814C214.762 13.8914 214.522 14.5964 214.042 15.0964C213.562 15.5964 212.917 15.9164 212.107 16.0564L215.197 20.2114ZM208.387 11.3914V14.5714H210.712C211.322 14.5714 211.797 14.4364 212.137 14.1664C212.487 13.8964 212.662 13.5014 212.662 12.9814C212.662 12.4614 212.487 12.0664 212.137 11.7964C211.797 11.5264 211.322 11.3914 210.712 11.3914H208.387ZM226.383 14.6164C227.003 15.1464 227.313 15.9214 227.313 16.9414C227.313 18.0714 226.928 18.9314 226.158 19.5214C225.398 20.1014 224.433 20.3914 223.263 20.3914C222.153 20.3914 221.243 20.1164 220.533 19.5664C219.833 19.0164 219.428 18.2064 219.318 17.1364L221.283 17.0014C221.443 18.1614 222.103 18.7414 223.263 18.7414C223.883 18.7414 224.373 18.5864 224.733 18.2764C225.103 17.9564 225.288 17.5114 225.288 16.9414C225.288 16.4014 225.123 15.9714 224.793 15.6514C224.463 15.3314 223.968 15.1714 223.308 15.1714C222.868 15.1714 222.338 15.2364 221.718 15.3664V13.9714L224.403 11.3614H219.858V9.71143H227.013V11.1814L224.013 13.8064C225.053 13.8764 225.843 14.1464 226.383 14.6164ZM228.933 14.1514C228.463 13.6814 228.228 13.0414 228.228 12.2314C228.228 11.4214 228.463 10.7864 228.933 10.3264C229.413 9.85643 230.053 9.62143 230.853 9.62143C231.663 9.62143 232.303 9.85643 232.773 10.3264C233.243 10.7864 233.478 11.4214 233.478 12.2314C233.478 13.0414 233.243 13.6814 232.773 14.1514C232.303 14.6214 231.663 14.8564 230.853 14.8564C230.053 14.8564 229.413 14.6214 228.933 14.1514ZM229.788 20.2114L237.108 9.71143H238.383L231.078 20.2114H229.788ZM229.968 11.1664C229.758 11.4164 229.653 11.7714 229.653 12.2314C229.653 12.6914 229.758 13.0514 229.968 13.3114C230.188 13.5714 230.483 13.7014 230.853 13.7014C231.223 13.7014 231.518 13.5714 231.738 13.3114C231.958 13.0514 232.068 12.6914 232.068 12.2314C232.068 11.7714 231.958 11.4164 231.738 11.1664C231.518 10.9064 231.223 10.7764 230.853 10.7764C230.483 10.7764 230.188 10.9064 229.968 11.1664ZM235.413 19.5964C234.943 19.1264 234.708 18.4864 234.708 17.6764C234.708 16.8664 234.943 16.2314 235.413 15.7714C235.883 15.3014 236.523 15.0664 237.333 15.0664C238.143 15.0664 238.783 15.3014 239.253 15.7714C239.723 16.2314 239.958 16.8664 239.958 17.6764C239.958 18.4864 239.723 19.1264 239.253 19.5964C238.783 20.0664 238.143 20.3014 237.333 20.3014C236.533 20.3014 235.893 20.0664 235.413 19.5964ZM236.433 16.5964C236.213 16.8564 236.103 17.2164 236.103 17.6764C236.103 18.1364 236.213 18.4964 236.433 18.7564C236.663 19.0164 236.963 19.1464 237.333 19.1464C237.703 19.1464 237.998 19.0164 238.218 18.7564C238.438 18.4964 238.548 18.1364 238.548 17.6764C238.548 17.2164 238.438 16.8564 238.218 16.5964C237.998 16.3364 237.703 16.2064 237.333 16.2064C236.963 16.2064 236.663 16.3364 236.433 16.5964Z" fill="#00AEC6"/>
<rect x="251.5" y="1.21143" width="131" height="26" rx="13" fill="#202023"/>
<rect x="251.5" y="1.21143" width="131" height="26" rx="13" stroke="#00C6A2" stroke-width="2"/>
<path d="M268.645 20.2114L267.88 17.7664H263.545L262.78 20.2114H260.71L264.13 9.71143H267.355L270.79 20.2114H268.645ZM264.055 16.1614H267.37L265.72 10.8514L264.055 16.1614ZM272.158 20.2114V9.71143H276.403C277.933 9.71143 279.113 10.1764 279.943 11.1064C280.783 12.0364 281.203 13.3214 281.203 14.9614C281.203 16.6014 280.783 17.8864 279.943 18.8164C279.113 19.7464 277.933 20.2114 276.403 20.2114H272.158ZM274.258 18.4864H276.178C277.128 18.4864 277.853 18.1764 278.353 17.5564C278.853 16.9264 279.103 16.0614 279.103 14.9614C279.103 13.8614 278.853 13.0014 278.353 12.3814C277.853 11.7514 277.128 11.4364 276.178 11.4364H274.258V18.4864ZM282.983 20.2114V9.71143H287.228C288.758 9.71143 289.938 10.1764 290.768 11.1064C291.608 12.0364 292.028 13.3214 292.028 14.9614C292.028 16.6014 291.608 17.8864 290.768 18.8164C289.938 19.7464 288.758 20.2114 287.228 20.2114H282.983ZM285.083 18.4864H287.003C287.953 18.4864 288.678 18.1764 289.178 17.5564C289.678 16.9264 289.928 16.0614 289.928 14.9614C289.928 13.8614 289.678 13.0014 289.178 12.3814C288.678 11.7514 287.953 11.4364 287.003 11.4364H285.083V18.4864ZM293.809 20.2114V9.71143H295.909V20.2114H293.809ZM297.407 11.4364V9.71143H306.002V11.4364H302.762V20.2114H300.662V11.4364H297.407ZM307.505 20.2114V9.71143H309.605V20.2114H307.505ZM318.513 9.71143H320.658L317.388 20.2114H314.238L311.013 9.71143H313.203L315.843 18.9214L318.513 9.71143ZM322.051 20.2114V9.71143H329.701V11.3614H324.151V14.0914H328.501V15.6514H324.151V18.5614H329.911V20.2114H322.051ZM330.705 16.7914L332.67 16.7164C332.76 18.0664 333.58 18.7414 335.13 18.7414C335.73 18.7414 336.23 18.6414 336.63 18.4414C337.03 18.2314 337.23 17.8964 337.23 17.4364C337.23 17.1064 337.1 16.8414 336.84 16.6414C336.59 16.4414 336.155 16.2414 335.535 16.0414L333.345 15.3214C331.845 14.8314 331.095 13.8964 331.095 12.5164C331.095 11.8464 331.275 11.2814 331.635 10.8214C331.995 10.3514 332.45 10.0214 333 9.83143C333.55 9.63143 334.175 9.53143 334.875 9.53143C336.035 9.53143 336.99 9.82143 337.74 10.4014C338.5 10.9714 338.915 11.7764 338.985 12.8164L337.02 12.9214C336.98 12.3914 336.785 11.9714 336.435 11.6614C336.085 11.3414 335.56 11.1814 334.86 11.1814C334.31 11.1814 333.895 11.2864 333.615 11.4964C333.335 11.7064 333.195 11.9914 333.195 12.3514C333.195 12.6614 333.305 12.9214 333.525 13.1314C333.755 13.3414 334.115 13.5264 334.605 13.6864L336.795 14.3914C337.635 14.6614 338.265 15.0214 338.685 15.4714C339.115 15.9214 339.33 16.5264 339.33 17.2864C339.33 18.3264 338.95 19.1064 338.19 19.6264C337.44 20.1364 336.415 20.3914 335.115 20.3914C333.715 20.3914 332.645 20.0864 331.905 19.4764C331.165 18.8664 330.765 17.9714 330.705 16.7914ZM346.336 18.5614H351.331V20.2114H343.561V18.6964L346.876 15.5914C347.286 15.2114 347.576 14.9364 347.746 14.7664C347.926 14.5964 348.136 14.3714 348.376 14.0914C348.626 13.8014 348.796 13.5414 348.886 13.3114C348.976 13.0714 349.021 12.8264 349.021 12.5764C349.021 12.1364 348.886 11.7964 348.616 11.5564C348.356 11.3064 348.006 11.1814 347.566 11.1814C347.066 11.1814 346.656 11.3664 346.336 11.7364C346.026 12.0964 345.841 12.6564 345.781 13.4164L343.831 13.2664C343.921 12.0164 344.306 11.0814 344.986 10.4614C345.666 9.84143 346.526 9.53143 347.566 9.53143C348.576 9.53143 349.411 9.79643 350.071 10.3264C350.731 10.8464 351.061 11.5964 351.061 12.5764C351.061 13.1864 350.891 13.7614 350.551 14.3014C350.221 14.8414 349.636 15.4964 348.796 16.2664L346.336 18.5614ZM354.686 18.5614H359.681V20.2114H351.911V18.6964L355.226 15.5914C355.636 15.2114 355.926 14.9364 356.096 14.7664C356.276 14.5964 356.486 14.3714 356.726 14.0914C356.976 13.8014 357.146 13.5414 357.236 13.3114C357.326 13.0714 357.371 12.8264 357.371 12.5764C357.371 12.1364 357.236 11.7964 356.966 11.5564C356.706 11.3064 356.356 11.1814 355.916 11.1814C355.416 11.1814 355.006 11.3664 354.686 11.7364C354.376 12.0964 354.191 12.6564 354.131 13.4164L352.181 13.2664C352.271 12.0164 352.656 11.0814 353.336 10.4614C354.016 9.84143 354.876 9.53143 355.916 9.53143C356.926 9.53143 357.761 9.79643 358.421 10.3264C359.081 10.8464 359.411 11.5964 359.411 12.5764C359.411 13.1864 359.241 13.7614 358.901 14.3014C358.571 14.8414 357.986 15.4964 357.146 16.2664L354.686 18.5614ZM361.19 14.1514C360.72 13.6814 360.485 13.0414 360.485 12.2314C360.485 11.4214 360.72 10.7864 361.19 10.3264C361.67 9.85643 362.31 9.62143 363.11 9.62143C363.92 9.62143 364.56 9.85643 365.03 10.3264C365.5 10.7864 365.735 11.4214 365.735 12.2314C365.735 13.0414 365.5 13.6814 365.03 14.1514C364.56 14.6214 363.92 14.8564 363.11 14.8564C362.31 14.8564 361.67 14.6214 361.19 14.1514ZM362.045 20.2114L369.365 9.71143H370.64L363.335 20.2114H362.045ZM362.225 11.1664C362.015 11.4164 361.91 11.7714 361.91 12.2314C361.91 12.6914 362.015 13.0514 362.225 13.3114C362.445 13.5714 362.74 13.7014 363.11 13.7014C363.48 13.7014 363.775 13.5714 363.995 13.3114C364.215 13.0514 364.325 12.6914 364.325 12.2314C364.325 11.7714 364.215 11.4164 363.995 11.1664C363.775 10.9064 363.48 10.7764 363.11 10.7764C362.74 10.7764 362.445 10.9064 362.225 11.1664ZM367.67 19.5964C367.2 19.1264 366.965 18.4864 366.965 17.6764C366.965 16.8664 367.2 16.2314 367.67 15.7714C368.14 15.3014 368.78 15.0664 369.59 15.0664C370.4 15.0664 371.04 15.3014 371.51 15.7714C371.98 16.2314 372.215 16.8664 372.215 17.6764C372.215 18.4864 371.98 19.1264 371.51 19.5964C371.04 20.0664 370.4 20.3014 369.59 20.3014C368.79 20.3014 368.15 20.0664 367.67 19.5964ZM368.69 16.5964C368.47 16.8564 368.36 17.2164 368.36 17.6764C368.36 18.1364 368.47 18.4964 368.69 18.7564C368.92 19.0164 369.22 19.1464 369.59 19.1464C369.96 19.1464 370.255 19.0164 370.475 18.7564C370.695 18.4964 370.805 18.1364 370.805 17.6764C370.805 17.2164 370.695 16.8564 370.475 16.5964C370.255 16.3364 369.96 16.2064 369.59 16.2064C369.22 16.2064 368.92 16.3364 368.69 16.5964Z" fill="#00C6A2"/>
</svg>
