<svg width="308" height="29" viewBox="0 0 308 29" fill="none" xmlns="http://www.w3.org/2000/svg">
<rect x="1" y="1.21143" width="80" height="26" rx="13" stroke="#2FF3FF" stroke-width="2"/>
<path d="M11.17 20.2114V9.71143H15.715C16.225 9.71143 16.7 9.77643 17.14 9.90643C17.58 10.0264 17.98 10.2114 18.34 10.4614C18.7 10.7114 18.985 11.0564 19.195 11.4964C19.405 11.9364 19.51 12.4514 19.51 13.0414C19.51 14.1814 19.165 15.0064 18.475 15.5164C17.785 16.0164 16.885 16.2664 15.775 16.2664H13.27V20.2114H11.17ZM13.27 14.6464H15.46C16.76 14.6464 17.41 14.1114 17.41 13.0414C17.41 11.9714 16.76 11.4364 15.46 11.4364H13.27V14.6464ZM27.1391 20.2114L26.3741 17.7664H22.0391L21.2741 20.2114H19.2041L22.6241 9.71143H25.8491L29.2841 20.2114H27.1391ZM22.5491 16.1614H25.8641L24.2141 10.8514L22.5491 16.1614ZM31.0802 18.9364C30.2102 17.9564 29.7752 16.6314 29.7752 14.9614C29.7752 13.2914 30.2102 11.9714 31.0802 11.0014C31.9502 10.0214 33.1802 9.53143 34.7702 9.53143C36.3602 9.53143 37.5902 10.0214 38.4602 11.0014C39.3302 11.9714 39.7652 13.2914 39.7652 14.9614C39.7652 16.6314 39.3302 17.9564 38.4602 18.9364C37.5902 19.9064 36.3602 20.3914 34.7702 20.3914C33.1802 20.3914 31.9502 19.9064 31.0802 18.9364ZM32.6402 12.2764C32.1302 12.9564 31.8752 13.8514 31.8752 14.9614C31.8752 16.0714 32.1302 16.9714 32.6402 17.6614C33.1602 18.3414 33.8702 18.6814 34.7702 18.6814C35.6802 18.6814 36.3902 18.3414 36.9002 17.6614C37.4102 16.9714 37.6652 16.0714 37.6652 14.9614C37.6652 13.8514 37.4102 12.9564 36.9002 12.2764C36.3902 11.5864 35.6802 11.2414 34.7702 11.2414C33.8702 11.2414 33.1602 11.5864 32.6402 12.2764ZM44.0528 9.71143H51.7778V11.1064C49.7378 14.1064 48.4278 17.1414 47.8478 20.2114H45.6878C46.2878 17.2614 47.6578 14.3114 49.7978 11.3614H44.0528V9.71143ZM55.5332 9.71143H57.1682V20.2114H55.1282V11.9464L52.7132 13.4914V11.4964L55.5332 9.71143ZM59.7578 14.1514C59.2878 13.6814 59.0528 13.0414 59.0528 12.2314C59.0528 11.4214 59.2878 10.7864 59.7578 10.3264C60.2378 9.85643 60.8778 9.62143 61.6778 9.62143C62.4878 9.62143 63.1278 9.85643 63.5978 10.3264C64.0678 10.7864 64.3028 11.4214 64.3028 12.2314C64.3028 13.0414 64.0678 13.6814 63.5978 14.1514C63.1278 14.6214 62.4878 14.8564 61.6778 14.8564C60.8778 14.8564 60.2378 14.6214 59.7578 14.1514ZM60.6128 20.2114L67.9328 9.71143H69.2078L61.9028 20.2114H60.6128ZM60.7928 11.1664C60.5828 11.4164 60.4778 11.7714 60.4778 12.2314C60.4778 12.6914 60.5828 13.0514 60.7928 13.3114C61.0128 13.5714 61.3078 13.7014 61.6778 13.7014C62.0478 13.7014 62.3428 13.5714 62.5628 13.3114C62.7828 13.0514 62.8928 12.6914 62.8928 12.2314C62.8928 11.7714 62.7828 11.4164 62.5628 11.1664C62.3428 10.9064 62.0478 10.7764 61.6778 10.7764C61.3078 10.7764 61.0128 10.9064 60.7928 11.1664ZM66.2378 19.5964C65.7678 19.1264 65.5328 18.4864 65.5328 17.6764C65.5328 16.8664 65.7678 16.2314 66.2378 15.7714C66.7078 15.3014 67.3478 15.0664 68.1578 15.0664C68.9678 15.0664 69.6078 15.3014 70.0778 15.7714C70.5478 16.2314 70.7828 16.8664 70.7828 17.6764C70.7828 18.4864 70.5478 19.1264 70.0778 19.5964C69.6078 20.0664 68.9678 20.3014 68.1578 20.3014C67.3578 20.3014 66.7178 20.0664 66.2378 19.5964ZM67.2578 16.5964C67.0378 16.8564 66.9278 17.2164 66.9278 17.6764C66.9278 18.1364 67.0378 18.4964 67.2578 18.7564C67.4878 19.0164 67.7878 19.1464 68.1578 19.1464C68.5278 19.1464 68.8228 19.0164 69.0428 18.7564C69.2628 18.4964 69.3728 18.1364 69.3728 17.6764C69.3728 17.2164 69.2628 16.8564 69.0428 16.5964C68.8228 16.3364 68.5278 16.2064 68.1578 16.2064C67.7878 16.2064 67.4878 16.3364 67.2578 16.5964Z" fill="#2FF3FF"/>
<rect x="83" y="1.21143" width="91" height="26" rx="13" stroke="#00AEC6" stroke-width="2"/>
<path d="M93.17 20.2114V9.71143H100.82V11.3614H95.27V14.0914H99.62V15.6514H95.27V18.5614H101.03V20.2114H93.17ZM101.824 16.7914L103.789 16.7164C103.879 18.0664 104.699 18.7414 106.249 18.7414C106.849 18.7414 107.349 18.6414 107.749 18.4414C108.149 18.2314 108.349 17.8964 108.349 17.4364C108.349 17.1064 108.219 16.8414 107.959 16.6414C107.709 16.4414 107.274 16.2414 106.654 16.0414L104.464 15.3214C102.964 14.8314 102.214 13.8964 102.214 12.5164C102.214 11.8464 102.394 11.2814 102.754 10.8214C103.114 10.3514 103.569 10.0214 104.119 9.83143C104.669 9.63143 105.294 9.53143 105.994 9.53143C107.154 9.53143 108.109 9.82143 108.859 10.4014C109.619 10.9714 110.034 11.7764 110.104 12.8164L108.139 12.9214C108.099 12.3914 107.904 11.9714 107.554 11.6614C107.204 11.3414 106.679 11.1814 105.979 11.1814C105.429 11.1814 105.014 11.2864 104.734 11.4964C104.454 11.7064 104.314 11.9914 104.314 12.3514C104.314 12.6614 104.424 12.9214 104.644 13.1314C104.874 13.3414 105.234 13.5264 105.724 13.6864L107.914 14.3914C108.754 14.6614 109.384 15.0214 109.804 15.4714C110.234 15.9214 110.449 16.5264 110.449 17.2864C110.449 18.3264 110.069 19.1064 109.309 19.6264C108.559 20.1364 107.534 20.3914 106.234 20.3914C104.834 20.3914 103.764 20.0864 103.024 19.4764C102.284 18.8664 101.884 17.9714 101.824 16.7914ZM111.051 11.4364V9.71143H119.646V11.4364H116.406V20.2114H114.306V11.4364H111.051ZM121.149 20.2114V9.71143H128.799V11.3614H123.249V14.0914H127.599V15.6514H123.249V18.5614H129.009V20.2114H121.149ZM139.697 20.2114H137.192L134.402 16.1464H132.887V20.2114H130.787V9.71143H135.467C136.157 9.71143 136.777 9.81643 137.327 10.0264C137.877 10.2264 138.337 10.5814 138.707 11.0914C139.077 11.6014 139.262 12.2314 139.262 12.9814C139.262 13.8914 139.022 14.5964 138.542 15.0964C138.062 15.5964 137.417 15.9164 136.607 16.0564L139.697 20.2114ZM132.887 11.3914V14.5714H135.212C135.822 14.5714 136.297 14.4364 136.637 14.1664C136.987 13.8964 137.162 13.5014 137.162 12.9814C137.162 12.4614 136.987 12.0664 136.637 11.7964C136.297 11.5264 135.822 11.3914 135.212 11.3914H132.887ZM148.513 13.1614C149.523 13.1614 150.338 13.4764 150.958 14.1064C151.588 14.7364 151.903 15.6064 151.903 16.7164C151.903 17.8864 151.533 18.7914 150.793 19.4314C150.053 20.0714 149.093 20.3914 147.913 20.3914C146.853 20.3914 145.953 20.1314 145.213 19.6114C144.473 19.0814 144.028 18.3314 143.878 17.3614L145.843 17.2264C145.953 17.7264 146.198 18.1064 146.578 18.3664C146.958 18.6164 147.403 18.7414 147.913 18.7414C148.493 18.7414 148.963 18.5664 149.323 18.2164C149.693 17.8564 149.878 17.3564 149.878 16.7164C149.878 16.0564 149.688 15.5564 149.308 15.2164C148.938 14.8664 148.458 14.6914 147.868 14.6914C147.008 14.6914 146.368 15.0214 145.948 15.6814L144.148 15.5314L144.583 9.71143H151.303V11.3614H146.098L145.888 14.1964C146.548 13.5064 147.423 13.1614 148.513 13.1614ZM153.33 14.1514C152.86 13.6814 152.625 13.0414 152.625 12.2314C152.625 11.4214 152.86 10.7864 153.33 10.3264C153.81 9.85643 154.45 9.62143 155.25 9.62143C156.06 9.62143 156.7 9.85643 157.17 10.3264C157.64 10.7864 157.875 11.4214 157.875 12.2314C157.875 13.0414 157.64 13.6814 157.17 14.1514C156.7 14.6214 156.06 14.8564 155.25 14.8564C154.45 14.8564 153.81 14.6214 153.33 14.1514ZM154.185 20.2114L161.505 9.71143H162.78L155.475 20.2114H154.185ZM154.365 11.1664C154.155 11.4164 154.05 11.7714 154.05 12.2314C154.05 12.6914 154.155 13.0514 154.365 13.3114C154.585 13.5714 154.88 13.7014 155.25 13.7014C155.62 13.7014 155.915 13.5714 156.135 13.3114C156.355 13.0514 156.465 12.6914 156.465 12.2314C156.465 11.7714 156.355 11.4164 156.135 11.1664C155.915 10.9064 155.62 10.7764 155.25 10.7764C154.88 10.7764 154.585 10.9064 154.365 11.1664ZM159.81 19.5964C159.34 19.1264 159.105 18.4864 159.105 17.6764C159.105 16.8664 159.34 16.2314 159.81 15.7714C160.28 15.3014 160.92 15.0664 161.73 15.0664C162.54 15.0664 163.18 15.3014 163.65 15.7714C164.12 16.2314 164.355 16.8664 164.355 17.6764C164.355 18.4864 164.12 19.1264 163.65 19.5964C163.18 20.0664 162.54 20.3014 161.73 20.3014C160.93 20.3014 160.29 20.0664 159.81 19.5964ZM160.83 16.5964C160.61 16.8564 160.5 17.2164 160.5 17.6764C160.5 18.1364 160.61 18.4964 160.83 18.7564C161.06 19.0164 161.36 19.1464 161.73 19.1464C162.1 19.1464 162.395 19.0164 162.615 18.7564C162.835 18.4964 162.945 18.1364 162.945 17.6764C162.945 17.2164 162.835 16.8564 162.615 16.5964C162.395 16.3364 162.1 16.2064 161.73 16.2064C161.36 16.2064 161.06 16.3364 160.83 16.5964Z" fill="#00AEC6"/>
<rect x="176" y="1.21143" width="131" height="26" rx="13" fill="#202023"/>
<rect x="176" y="1.21143" width="131" height="26" rx="13" stroke="#00C6A2" stroke-width="2"/>
<path d="M193.145 20.2114L192.38 17.7664H188.045L187.28 20.2114H185.21L188.63 9.71143H191.855L195.29 20.2114H193.145ZM188.555 16.1614H191.87L190.22 10.8514L188.555 16.1614ZM196.658 20.2114V9.71143H200.903C202.433 9.71143 203.613 10.1764 204.443 11.1064C205.283 12.0364 205.703 13.3214 205.703 14.9614C205.703 16.6014 205.283 17.8864 204.443 18.8164C203.613 19.7464 202.433 20.2114 200.903 20.2114H196.658ZM198.758 18.4864H200.678C201.628 18.4864 202.353 18.1764 202.853 17.5564C203.353 16.9264 203.603 16.0614 203.603 14.9614C203.603 13.8614 203.353 13.0014 202.853 12.3814C202.353 11.7514 201.628 11.4364 200.678 11.4364H198.758V18.4864ZM207.483 20.2114V9.71143H211.728C213.258 9.71143 214.438 10.1764 215.268 11.1064C216.108 12.0364 216.528 13.3214 216.528 14.9614C216.528 16.6014 216.108 17.8864 215.268 18.8164C214.438 19.7464 213.258 20.2114 211.728 20.2114H207.483ZM209.583 18.4864H211.503C212.453 18.4864 213.178 18.1764 213.678 17.5564C214.178 16.9264 214.428 16.0614 214.428 14.9614C214.428 13.8614 214.178 13.0014 213.678 12.3814C213.178 11.7514 212.453 11.4364 211.503 11.4364H209.583V18.4864ZM218.309 20.2114V9.71143H220.409V20.2114H218.309ZM221.907 11.4364V9.71143H230.502V11.4364H227.262V20.2114H225.162V11.4364H221.907ZM232.005 20.2114V9.71143H234.105V20.2114H232.005ZM243.013 9.71143H245.158L241.888 20.2114H238.738L235.513 9.71143H237.703L240.343 18.9214L243.013 9.71143ZM246.551 20.2114V9.71143H254.201V11.3614H248.651V14.0914H253.001V15.6514H248.651V18.5614H254.411V20.2114H246.551ZM255.205 16.7914L257.17 16.7164C257.26 18.0664 258.08 18.7414 259.63 18.7414C260.23 18.7414 260.73 18.6414 261.13 18.4414C261.53 18.2314 261.73 17.8964 261.73 17.4364C261.73 17.1064 261.6 16.8414 261.34 16.6414C261.09 16.4414 260.655 16.2414 260.035 16.0414L257.845 15.3214C256.345 14.8314 255.595 13.8964 255.595 12.5164C255.595 11.8464 255.775 11.2814 256.135 10.8214C256.495 10.3514 256.95 10.0214 257.5 9.83143C258.05 9.63143 258.675 9.53143 259.375 9.53143C260.535 9.53143 261.49 9.82143 262.24 10.4014C263 10.9714 263.415 11.7764 263.485 12.8164L261.52 12.9214C261.48 12.3914 261.285 11.9714 260.935 11.6614C260.585 11.3414 260.06 11.1814 259.36 11.1814C258.81 11.1814 258.395 11.2864 258.115 11.4964C257.835 11.7064 257.695 11.9914 257.695 12.3514C257.695 12.6614 257.805 12.9214 258.025 13.1314C258.255 13.3414 258.615 13.5264 259.105 13.6864L261.295 14.3914C262.135 14.6614 262.765 15.0214 263.185 15.4714C263.615 15.9214 263.83 16.5264 263.83 17.2864C263.83 18.3264 263.45 19.1064 262.69 19.6264C261.94 20.1364 260.915 20.3914 259.615 20.3914C258.215 20.3914 257.145 20.0864 256.405 19.4764C255.665 18.8664 255.265 17.9714 255.205 16.7914ZM270.836 18.5614H275.831V20.2114H268.061V18.6964L271.376 15.5914C271.786 15.2114 272.076 14.9364 272.246 14.7664C272.426 14.5964 272.636 14.3714 272.876 14.0914C273.126 13.8014 273.296 13.5414 273.386 13.3114C273.476 13.0714 273.521 12.8264 273.521 12.5764C273.521 12.1364 273.386 11.7964 273.116 11.5564C272.856 11.3064 272.506 11.1814 272.066 11.1814C271.566 11.1814 271.156 11.3664 270.836 11.7364C270.526 12.0964 270.341 12.6564 270.281 13.4164L268.331 13.2664C268.421 12.0164 268.806 11.0814 269.486 10.4614C270.166 9.84143 271.026 9.53143 272.066 9.53143C273.076 9.53143 273.911 9.79643 274.571 10.3264C275.231 10.8464 275.561 11.5964 275.561 12.5764C275.561 13.1864 275.391 13.7614 275.051 14.3014C274.721 14.8414 274.136 15.4964 273.296 16.2664L270.836 18.5614ZM283.364 16.2514H284.954V17.9014H283.364V20.2114H281.324V17.9014H276.194V16.3864L280.064 9.71143H283.364V16.2514ZM278.174 16.2514H281.324V10.8214L278.174 16.2514ZM286.101 14.1514C285.631 13.6814 285.396 13.0414 285.396 12.2314C285.396 11.4214 285.631 10.7864 286.101 10.3264C286.581 9.85643 287.221 9.62143 288.021 9.62143C288.831 9.62143 289.471 9.85643 289.941 10.3264C290.411 10.7864 290.646 11.4214 290.646 12.2314C290.646 13.0414 290.411 13.6814 289.941 14.1514C289.471 14.6214 288.831 14.8564 288.021 14.8564C287.221 14.8564 286.581 14.6214 286.101 14.1514ZM286.956 20.2114L294.276 9.71143H295.551L288.246 20.2114H286.956ZM287.136 11.1664C286.926 11.4164 286.821 11.7714 286.821 12.2314C286.821 12.6914 286.926 13.0514 287.136 13.3114C287.356 13.5714 287.651 13.7014 288.021 13.7014C288.391 13.7014 288.686 13.5714 288.906 13.3114C289.126 13.0514 289.236 12.6914 289.236 12.2314C289.236 11.7714 289.126 11.4164 288.906 11.1664C288.686 10.9064 288.391 10.7764 288.021 10.7764C287.651 10.7764 287.356 10.9064 287.136 11.1664ZM292.581 19.5964C292.111 19.1264 291.876 18.4864 291.876 17.6764C291.876 16.8664 292.111 16.2314 292.581 15.7714C293.051 15.3014 293.691 15.0664 294.501 15.0664C295.311 15.0664 295.951 15.3014 296.421 15.7714C296.891 16.2314 297.126 16.8664 297.126 17.6764C297.126 18.4864 296.891 19.1264 296.421 19.5964C295.951 20.0664 295.311 20.3014 294.501 20.3014C293.701 20.3014 293.061 20.0664 292.581 19.5964ZM293.601 16.5964C293.381 16.8564 293.271 17.2164 293.271 17.6764C293.271 18.1364 293.381 18.4964 293.601 18.7564C293.831 19.0164 294.131 19.1464 294.501 19.1464C294.871 19.1464 295.166 19.0164 295.386 18.7564C295.606 18.4964 295.716 18.1364 295.716 17.6764C295.716 17.2164 295.606 16.8564 295.386 16.5964C295.166 16.3364 294.871 16.2064 294.501 16.2064C294.131 16.2064 293.831 16.3364 293.601 16.5964Z" fill="#00C6A2"/>
</svg>
