<svg width="310" height="310" viewBox="0 0 310 310" fill="none" xmlns="http://www.w3.org/2000/svg">
<path d="M288.356 210.358C278.378 234.268 262.156 255.057 241.387 270.546C220.618 286.035 196.067 295.655 170.304 298.399C144.541 301.143 118.514 296.909 94.9488 286.142C71.3834 275.375 51.1464 258.47 36.3567 237.198C21.567 215.925 12.7687 191.068 10.8832 165.228C8.99763 139.388 14.0942 113.516 25.6391 90.322C37.184 67.1278 54.7527 47.4642 76.5054 33.3902C98.2581 19.3162 123.395 11.3496 149.283 10.3246" stroke="#2FF3FF" stroke-width="20"/>
<path d="M155 10.2114C170.163 10.2114 185.232 12.5981 199.653 17.2838" stroke="#00AEC6" stroke-width="20"/>
<path d="M205.669 19.3862C223.44 26.0401 239.726 36.1291 253.599 49.0773C267.471 62.0254 278.657 77.5791 286.518 94.8502C294.379 112.121 298.761 130.772 299.414 149.736C300.068 168.701 296.979 187.609 290.325 205.38" stroke="#00C6A2" stroke-width="20"/>
</svg>
