<svg width="276" height="52" fill="none" xmlns="http://www.w3.org/2000/svg"><g clip-path="url(#clip0_2501_2308)"><path d="M38.583 2.886A25.75 25.75 0 0026.679.006a25.75 25.75 0 00-11.904 2.88C6.646 7.174 1.078 15.75 1.078 25.606c0 9.856 5.568 18.432 13.76 22.72 3.52 1.792 7.553 2.88 11.84 2.88 4.288 0 8.256-1.088 11.84-2.944a25.453 25.453 0 0013.76-22.656c0-9.856-5.567-18.432-13.695-22.72zM3.638 25.606c0-8.384 4.48-15.68 11.2-19.776 3.264-1.984 7.04-3.136 11.2-3.264l-2.88 20.928-8.32 6.464L6.39 36.55c-1.728-3.264-2.752-6.976-2.752-10.944zm34.945 19.712c-3.52 2.112-7.552 3.328-11.904 3.328a22.803 22.803 0 01-11.904-3.328c-3.136-1.856-5.697-4.416-7.617-7.488l7.616-3.136L26.68 29.83l11.904 4.8 7.68 3.136c-1.92 3.136-4.608 5.696-7.68 7.552zm0-15.36l-8.256-6.4-2.945-20.992c4.032.128 7.872 1.28 11.137 3.264 6.72 4.032 11.2 11.392 11.2 19.776 0 3.968-.96 7.68-2.752 10.944l-8.384-6.592z" fill="#F0F0F0"/></g><path d="M275.187 24.713a1.03 1.03 0 00-1.072-1.072H255.01a1.024 1.024 0 00-1.072 1.073v1.606a1.194 1.194 0 001.072 1.25h11.964c.715 0 .715.357.715 1.249v.17c0 .893 0 1.073-.715 1.073h-24.462a1.024 1.024 0 01-1.072-1.072v-6.955a1.027 1.027 0 011.072-1.072h31.424a1.026 1.026 0 001.071-1.071v-2.679a1.01 1.01 0 00-.299-.772 1.023 1.023 0 00-.772-.3h-38.924a1.029 1.029 0 00-1.002.655 1.008 1.008 0 00-.068.417v17.32a1.027 1.027 0 001.07 1.072h38.924a1.026 1.026 0 001.071-1.072v-9.82m-62.135 4.643a2.665 2.665 0 01-1.607.714h-4.999a2.661 2.661 0 01-1.608-.714l-9.463-6.071c-.535-.358-1.071-.18-1.071.535v10.178a1.028 1.028 0 01-1.072 1.072h-5a1.198 1.198 0 01-1.249-1.072v-17.32c0-.714.535-1.071 1.249-1.071h5.357c.566.07 1.112.251 1.607.535l12.857 8.392a1.335 1.335 0 001.606 0l12.855-8.392a2.5 2.5 0 011.609-.535h5.356a1.029 1.029 0 011.002.654c.052.133.075.275.068.417v17.32a1.027 1.027 0 01-1.07 1.072H224.3a1.194 1.194 0 01-1.251-1.072V23.82c0-.715-.357-.893-1.072-.535l-9.105 6.07zm-55.709-8.572c-.357 0-.535.17-.892.537l-3.035 3.93c-.18.358 0 .536.171.536h21.961c.715 0 .715-.357.715-.892v-2.682c0-.892 0-1.25-.715-1.25h-18.205v-.179zm-12.855 14.463h-6.435a.602.602 0 01-.535-.892L151.085 16.5a1.82 1.82 0 011.252-.714h29.639a1.379 1.379 0 011.25 1.428v16.963a1.028 1.028 0 01-1.072 1.071h-5a1.023 1.023 0 01-1.071-1.071v-2.5c0-.714 0-.893-.715-.893h-26.06a1.194 1.194 0 00-1.072.714v.171l-1.964 2.5a3.098 3.098 0 01-1.964 1.07v.01zm-13.034 0a2.712 2.712 0 001.784-1.071l13.392-17.32c.537-.714.171-1.25-.357-1.25h-2.679a1.8 1.8 0 00-1.249.715l-13.749 17.855a.602.602 0 00.537.894h2.321v.177zm-9.285 0a2.71 2.71 0 001.785-1.071l13.391-17.32c.535-.714.18-1.25-.357-1.25h-3.75a1.81 1.81 0 00-1.249.715L118.06 34.176a.602.602 0 00.536.894h3.393v.177zm-15.178 0a.602.602 0 01-.535-.892L120.025 16.5a1.817 1.817 0 011.25-.714h5.534c.715 0 .894.536.358 1.25l-13.394 17.32a2.434 2.434 0 01-1.784 1.072h-5.179l.001-.18zm-12.677 0a.601.601 0 01-.535-.892L107.348 16.5a1.805 1.805 0 011.25-.714h7.32c.715 0 .892.536.357 1.25l-13.391 17.32a2.435 2.435 0 01-1.787 1.072h-6.963v-.18zm-20.712 0a.602.602 0 01-.535-.892L86.636 16.5a1.809 1.809 0 011.25-.714h16.247c.714 0 .894.536.357 1.25l-13.391 17.32a2.436 2.436 0 01-1.785 1.072H73.418l.004-.18z" fill="#F0F0F0"/><defs><clipPath id="clip0_2501_2308"><path fill="#fff" transform="translate(.812 .006)" d="M0 0h52v51.2H0z"/></clipPath></defs></svg>