<svg width="245" height="41" fill="none" xmlns="http://www.w3.org/2000/svg"><g clip-path="url(#clip0_2501_2309)"><path d="M74.642 17.997a12.986 12.986 0 00-.754-2.435 12.928 12.928 0 00-2.776-4.122 12.937 12.937 0 00-4.122-2.776 12.697 12.697 0 00-2.435-.754 13.129 13.129 0 00-2.609-.264 12.984 12.984 0 00-5.043 1.018c-.767.322-1.508.728-2.203 1.191-.264.174-.516.367-.767.56a12.549 12.549 0 00-2.97-1.752 12.699 12.699 0 00-2.434-.753 13.082 13.082 0 00-2.609-.264 12.985 12.985 0 00-5.043 1.018 13.236 13.236 0 00-3.015 1.784 12.545 12.545 0 00-3.008-1.784 12.699 12.699 0 00-2.434-.754 13.082 13.082 0 00-2.61-.264 12.985 12.985 0 00-5.044 1.018c-.765.322-1.506.728-2.202 1.191-.277.187-.54.38-.798.586a12.549 12.549 0 00-3.002-1.778 12.697 12.697 0 00-2.435-.753 13.08 13.08 0 00-2.608-.264 12.985 12.985 0 00-5.043 1.018c-.767.322-1.508.728-2.204 1.191A13.023 13.023 0 002.97 13.36a14.678 14.678 0 00-1.166 2.202 12.72 12.72 0 00-.753 2.435 13.082 13.082 0 000 5.217c.167.831.425 1.65.753 2.429a13.25 13.25 0 001.192 2.203A13.028 13.028 0 006.5 31.35c.696.47 1.43.87 2.203 1.191.78.329 1.597.587 2.435.754a13.082 13.082 0 005.217 0 12.993 12.993 0 002.435-.754 13.225 13.225 0 002.203-1.191c.27-.187.54-.38.799-.586a12.538 12.538 0 003.002 1.778c.778.328 1.596.585 2.427.753a13.082 13.082 0 005.218 0 12.99 12.99 0 002.435-.754 13.23 13.23 0 003.014-1.784c.264.206.535.406.812.593.695.47 1.43.87 2.203 1.191.779.329 1.597.587 2.434.754a13.082 13.082 0 005.217 0 12.985 12.985 0 002.436-.754 13.225 13.225 0 002.202-1.191c.264-.174.516-.367.767-.56a12.546 12.546 0 002.97 1.752c.779.328 1.597.585 2.428.753a13.082 13.082 0 005.217 0 12.99 12.99 0 002.435-.754 12.935 12.935 0 004.122-2.776 12.94 12.94 0 001.585-1.92c.47-.695.87-1.43 1.191-2.202.329-.78.587-1.598.754-2.435.174-.857.264-1.733.264-2.609-.02-.87-.11-1.752-.283-2.602zM8.09 12.232a9.9 9.9 0 013.607-1.52 10.249 10.249 0 012.035-.206 10.078 10.078 0 013.93.792 9.603 9.603 0 011.713.934c.116.077.232.161.348.245-.232.283-.451.58-.65.882-.471.696-.87 1.43-1.192 2.203a12.7 12.7 0 00-.754 2.435 13.076 13.076 0 000 5.217c.168.831.425 1.65.754 2.429.322.766.727 1.507 1.191 2.203.206.302.425.599.657.882a10.26 10.26 0 01-2.068 1.185 9.906 9.906 0 01-1.893.587c-.664.135-1.353.206-2.036.206a10.08 10.08 0 01-3.93-.792 9.819 9.819 0 01-1.712-.935c-.535-.36-1.037-.78-1.494-1.23a10.268 10.268 0 01-2.164-3.208 9.905 9.905 0 01-.587-1.893 10.245 10.245 0 01-.206-2.036 10.083 10.083 0 01.792-3.93 9.595 9.595 0 01.934-1.712 10.64 10.64 0 011.23-1.495c.458-.463.96-.882 1.495-1.243zm13.36 14.023a9.906 9.906 0 01-1.52-3.607 10.25 10.25 0 01-.207-2.036 10.081 10.081 0 01.792-3.93 9.592 9.592 0 01.934-1.712c.103-.155.22-.31.335-.464.116.155.226.31.335.464a9.898 9.898 0 011.52 3.607 10.198 10.198 0 010 4.071c-.135.65-.328 1.288-.586 1.893a9.595 9.595 0 01-.934 1.714c-.103.154-.219.309-.335.463a6.08 6.08 0 01-.335-.463zm3.033 1.597c.47-.695.87-1.43 1.191-2.203.329-.78.587-1.597.754-2.435.174-.85.264-1.732.264-2.608a12.979 12.979 0 00-1.018-5.043 13.232 13.232 0 00-1.191-2.204 12.527 12.527 0 00-.657-.882c.116-.084.232-.168.348-.245a9.9 9.9 0 013.607-1.52 10.249 10.249 0 012.035-.206 10.081 10.081 0 013.93.792 9.597 9.597 0 011.713.934c.122.084.245.168.36.258a12.538 12.538 0 00-1.836 3.072 12.72 12.72 0 00-.753 2.435 13.076 13.076 0 000 5.217c.167.831.425 1.65.754 2.429a13.23 13.23 0 001.191 2.203c.206.302.419.592.65.876a10.26 10.26 0 01-2.08 1.192 9.907 9.907 0 01-1.893.586c-.664.135-1.353.206-2.036.206s-1.372-.071-2.035-.206a10.078 10.078 0 01-1.894-.587 9.818 9.818 0 01-2.061-1.185c.232-.277.45-.573.657-.876zm13.07-1.597a9.906 9.906 0 01-1.52-3.607 10.242 10.242 0 01-.207-2.036 10.088 10.088 0 01.792-3.93 9.604 9.604 0 01.934-1.712c.103-.155.213-.303.322-.451a10.26 10.26 0 011.256 2.164 10.181 10.181 0 01.586 5.965c-.135.65-.328 1.288-.586 1.893a9.589 9.589 0 01-.934 1.714c-.103.154-.212.302-.322.45-.11-.148-.219-.296-.322-.45zm3.014 1.597c.47-.695.87-1.43 1.191-2.203.329-.78.586-1.597.754-2.435.174-.85.264-1.732.264-2.608a12.986 12.986 0 00-1.018-5.043 13.225 13.225 0 00-1.836-3.08 10.275 10.275 0 012.074-1.192 9.906 9.906 0 011.894-.585 10.241 10.241 0 012.036-.207 10.19 10.19 0 013.929.793 9.598 9.598 0 011.713.934c.103.07.206.141.303.212-.238.297-.464.6-.676.915-.47.696-.87 1.43-1.192 2.203-.328.78-.586 1.597-.754 2.435a13.076 13.076 0 000 5.217c.168.83.425 1.649.754 2.428a13.24 13.24 0 001.192 2.203c.212.316.438.619.682.915-.103.077-.206.148-.309.219a9.907 9.907 0 01-3.607 1.52c-.663.135-1.353.206-2.035.206a10.078 10.078 0 01-3.93-.792 9.825 9.825 0 01-2.074-1.192c.226-.27.438-.567.645-.863zm13.004-1.597a9.9 9.9 0 01-1.52-3.607 10.25 10.25 0 01-.206-2.036 10.081 10.081 0 01.792-3.93 9.597 9.597 0 01.934-1.712c.116-.174.239-.342.368-.51a10.26 10.26 0 011.301 2.222 9.98 9.98 0 01.586 1.895 10.198 10.198 0 010 4.071c-.135.65-.329 1.288-.586 1.893a9.589 9.589 0 01-.934 1.714 9.201 9.201 0 01-.367.509 9.256 9.256 0 01-.368-.51zm3.099 1.597c.47-.695.87-1.43 1.191-2.203.329-.78.587-1.597.754-2.435.174-.85.264-1.732.264-2.608a12.979 12.979 0 00-1.018-5.043 13.24 13.24 0 00-1.191-2.204 13.37 13.37 0 00-.677-.914c.103-.071.206-.148.31-.22a9.906 9.906 0 013.607-1.52 10.243 10.243 0 012.035-.206 10.182 10.182 0 013.929.793 10.161 10.161 0 014.438 3.665 9.904 9.904 0 011.52 3.607 10.181 10.181 0 010 4.071c-.135.65-.328 1.288-.586 1.893a9.595 9.595 0 01-.934 1.714c-.36.534-.78 1.037-1.23 1.494a10.265 10.265 0 01-3.208 2.164 9.9 9.9 0 01-1.894.587 10.25 10.25 0 01-2.035.206 10.08 10.08 0 01-3.93-.792 9.822 9.822 0 01-2.022-1.154c.239-.276.464-.58.677-.895z" fill="#F0F0F0"/></g><g clip-path="url(#clip1_2501_2309)" fill-rule="evenodd" clip-rule="evenodd"><path d="M147.025.606h-38.861l-13.237 40h38.916l13.182-40z" fill="#3F3736"/><path d="M145.667 1.607h-36.721L96.408 39.57h36.763l12.496-37.963z" fill="#F0F0F0"/><path d="M132.437 38.534H97.842l11.845-35.919h34.595l-11.845 35.92z" fill="#AB5B4D"/><path d="M161.312 25.97a6.86 6.86 0 00-.535 1.858c-.014.178-.02.357-.02.521 0 .858.219 1.543.665 2.065.459.542 1.214.974 2.256 1.296 1.935.597 5.522.898 10.755.898 4.259 0 7.544-.143 9.87-.438 1.46-.186 2.688-.467 3.696-.844 1.434-.535 2.552-1.173 3.347-1.893 1.009-.912 1.818-2.215 2.442-3.889.377-1.022.569-1.893.569-2.613 0-1.16-.562-2.017-1.68-2.579-1.248-.631-3.306-1.001-6.173-1.118l-8.114-.33c-1.365-.047-2.311-.143-2.839-.287-1.118-.309-1.681-.94-1.681-1.893 0-.295.062-.624.186-.974.336-.967.974-1.653 1.927-2.05 1.015-.433 2.647-.646 4.89-.646 2.963 0 4.774.179 5.419.542.809.405 1.214 1.008 1.214 1.81 0 .165-.021.337-.055.508h8.587c.446-1.097.672-2.03.672-2.791 0-.604-.144-1.111-.425-1.53-.24-.356-.618-.679-1.118-.98l-.021-.014a5.877 5.877 0 00-.898-.46c-.412-.157-.954-.295-1.605-.397-1.708-.275-4.596-.412-8.663-.412-3.47 0-6.18.082-8.127.254-2.264.192-4.088.542-5.467 1.036-1.406.507-2.551 1.234-3.429 2.187-.878.947-1.619 2.25-2.222 3.903-.323.871-.48 1.605-.48 2.209 0 1.063.576 1.872 1.721 2.42 1.392.673 3.731 1.078 7.017 1.215l7.16.308c1.399.062 2.373.165 2.922.323 1.145.322 1.715.96 1.715 1.913 0 .288-.055.604-.172.94v.014l-.014.013c-.411 1.022-1.097 1.736-2.064 2.14-1.077.453-2.826.68-5.254.68-2.277 0-3.923-.063-4.931-.193-.638-.082-1.111-.212-1.413-.398h-.014c-.686-.39-1.036-.94-1.036-1.666 0-.206.028-.425.09-.659h-8.649m-40.137 6.639h8.299l.391-1.09 2.386-6.77h7.819c3.19 0 4.781.906 4.781 2.716 0 .385-.782 2.84-.94 3.306l-.617 1.845h8.018l.398-1.09 1.454-4.095c.198-.549.301-1.001.301-1.351 0-.35-.281-.61-.521-.995-.741-1.18-4.335-2.25-4.348-2.091l.02-.206c-.02.192 4.26-.542 6.749-3.244l.028-.028c.384-.411.747-.946 1.083-1.605a5.675 5.675 0 00-.226-5.63c-1.07-1.715-2.97-2.792-5.048-2.86l-1.303-.042a62.569 62.569 0 00-2.023-.027h-18.69l-7.627 22.18-.378 1.091m12.25-11.948l2.922-7.873h8.223c1.379 0 2.408.137 3.087.418 1.001.411 1.495 1.118 1.495 2.106 0 .514-.151 1.124-.446 1.83-.494 1.297-1.262 2.216-2.325 2.765-.96.5-2.325.747-4.088.747h-8.868m74.842 7.566l21.865-.021-1.351 4.568 7.257.02 1.351-4.567h4.369l1.481-4.98h-4.369l4.239-14.04h-9.472l-23.093 13.128-2.27 5.892m10.466-4.918l15.268-8.478-2.428 8.457-12.84.02z" fill="#F0F0F0"/></g><defs><clipPath id="clip0_2501_2309"><path fill="#fff" transform="translate(.695 7.606)" d="M0 0h74.232v26H0z"/></clipPath><clipPath id="clip1_2501_2309"><path fill="#fff" transform="translate(94.927 .606)" d="M0 0h149.712v40H0z"/></clipPath></defs></svg>