<svg width="196" height="56" fill="none" xmlns="http://www.w3.org/2000/svg"><g clip-path="url(#clip0_2501_2307)" fill="#F0F0F0"><path d="M28.965.086c-15.199 0-27.52 12.32-27.52 27.52 0 15.199 12.321 27.519 27.52 27.519 15.2 0 27.52-12.32 27.52-27.52 0-15.198-12.32-27.519-27.52-27.519zm25.723 27.52c0 14.208-11.514 25.723-25.723 25.723-14.208 0-25.723-11.515-25.723-25.723 0-14.209 11.515-25.723 25.723-25.723 14.209 0 25.723 11.514 25.723 25.723z"/><path d="M42.3 15.932c.368.392.921 1.06 1.22 1.45l5.573-3.546a24.104 24.104 0 00-1.059-1.312l-3.523 2.326-.23.207.184-.253 1.566-3.11-1.106-1.105-3.109 1.566-.253.185.207-.23 2.326-3.524a43.029 43.029 0 00-1.313-1.06L39.237 13.1c.438.345 1.036.852 1.405 1.197l3.339-1.727.207-.161-.161.207-1.727 3.316zM29.657 8.885l1.52-3.408.092-.3-.023.323.161 4.56c.53.046 1.083.115 1.635.207L32.79 3.52c-.76-.092-1.52-.138-2.28-.185l-1.497 3.731-.046.276-.046-.276-1.497-3.73c-.76.022-1.52.092-2.28.184l-.253 6.747a21.181 21.181 0 011.635-.207l.162-4.56-.024-.322.093.3 1.52 3.407h1.381zm-12.32 5.366c.875-.921 1.382-2.003.506-3.017-.483-.553-1.29-.668-1.957-.391l-.07.023.024-.07c.092-.253.161-1.105-.553-1.68a1.662 1.662 0 00-1.22-.346c-.83.092-1.451.645-3.201 2.58-.53.575-1.29 1.496-1.75 2.095l4.767 4.514c1.589-1.75 2.21-2.395 3.454-3.708zm-6.195-1.105c.967-1.175 1.98-2.234 2.441-2.649.138-.138.3-.276.507-.322.322-.092.645.138.714.46.069.323-.139.622-.346.876-.53.575-2.395 2.533-2.395 2.533l-.92-.898zm1.865 1.773s1.82-1.912 2.395-2.533c.23-.254.392-.392.553-.46.207-.093.438-.116.645.022.207.138.3.368.253.599-.069.276-.276.53-.46.737-.254.276-2.395 2.556-2.395 2.556l-.99-.921z"/><path d="M28.965 11.301v16.305H12.661A16.275 16.275 0 0128.965 11.3zM45.27 27.606c0 9.027-7.3 16.304-16.305 16.304V27.606H45.27z"/></g><g clip-path="url(#clip1_2501_2307)"><path d="M169.916 6.606v17.36l10.12-17.36h15.797v42h-14.78l.003-17.36-10.132 17.36h-13.96v-17.36l-10.132 17.36h-17.498l24.499-42h16.083z" fill="#F0F0F0"/><path d="M118.834 6.606l-24.5 42h-17.5l24.499-42h17.501z" fill="#0066B1"/><path d="M136.332 6.606l-24.499 42H94.335l24.499-42h17.498z" fill="#003D78"/><path d="M153.833 6.606l-24.499 42h-17.501l24.499-42h17.501z" fill="#E22718"/></g><defs><clipPath id="clip0_2501_2307"><path fill="#fff" transform="translate(.834)" d="M0 0h56v55.211H0z"/></clipPath><clipPath id="clip1_2501_2307"><path fill="#fff" transform="translate(76.834 6.606)" d="M0 0h118.999v42H0z"/></clipPath></defs></svg>