<svg width="80" height="19" fill="none" xmlns="http://www.w3.org/2000/svg"><path d="M46.64 16.131c0 .15.04.23.13.23.07 0 .13-.03.2-.07L71.75.841c.44-.28.83-.43 1.43-.43h5.45c.84 0 1.4.54 1.4 1.35v9.97c0 1.2-.27 1.9-1.4 2.55l-6.61 3.8c-.08.06-.16.08-.22.08-.08 0-.15-.05-.15-.27V6.241c0-.13-.04-.23-.14-.23-.07 0-.12.03-.19.07L53.2 17.371c-.51.32-.92.41-1.39.41H39.79c-.83 0-1.4-.54-1.4-1.34V2.071c0-.1-.05-.19-.13-.19-.07 0-.13.02-.2.06l-11.95 6.89c-.12.07-.15.14-.15.19 0 .05.02.09.11.17l8.53 8.18c.11.11.19.2.19.28 0 .09-.12.14-.27.14H26.8c-.6 0-1.07-.09-1.4-.4l-5.18-4.97c-.06-.06-.1-.08-.15-.08a.452.452 0 00-.17.05l-8.65 5c-.52.3-.88.39-1.4.39H1.88c-.84 0-1.4-.54-1.4-1.34v-9.79c0-1.22.27-1.9 1.4-2.55L8.53.271c.07-.04.12-.05.18-.05.09 0 .15.1.15.31v13.1c0 .13.04.2.14.2.05 0 .12-.04.19-.08L31.65.801c.53-.31.86-.4 1.48-.4h12.09c.84 0 1.4.54 1.4 1.34l.02 14.39z" fill="#F0F0F0"/></svg>