<svg width="56" height="57" fill="none" xmlns="http://www.w3.org/2000/svg"><g clip-path="url(#clip0_1259_5422)" fill="#F0F0F0"><path d="M27.687.605C12.481.605.08 13.005.08 28.21c0 15.206 12.401 27.607 27.607 27.607s27.607-12.4 27.607-27.607C55.284 13.005 42.883.605 27.687.605zm0 52.025c-13.453 0-24.419-10.966-24.419-24.419 0-13.452 10.966-24.419 24.419-24.419 13.453 0 24.419 10.967 24.419 24.42 0 13.452-10.977 24.418-24.419 24.418z"/><path d="M19.781 46.871C12.524 43.78 7.423 36.574 7.423 28.211c0-2.125.33-4.176.946-6.11l11.412 24.77zm13.527.808c-1.785.52-3.676.797-5.632.797-1.955 0-3.836-.277-5.62-.797l5.62-13.124 5.632 13.124zm13.697-25.567a19.96 19.96 0 01.946 6.1c0 8.362-5.111 15.567-12.358 18.648l11.412-24.748z"/><path d="M37.899 10.72a20.527 20.527 0 016.28 5.739L34.084 37.913l-3.4-8.193H24.69l-3.4 8.193L11.194 16.46a20.395 20.395 0 016.28-5.738l7.078 16.523h6.269l7.077-16.523z"/><path d="M27.687 7.947c1.976 0 3.9.287 5.706.818l-5.706 13.74-5.706-13.74a20.182 20.182 0 015.706-.818z"/></g><defs><clipPath id="clip0_1259_5422"><path fill="#fff" transform="translate(0 .211)" d="M0 0h56v56H0z"/></clipPath></defs></svg>