<svg width="56" height="41" fill="none" xmlns="http://www.w3.org/2000/svg"><path d="M28.005 40.327c9.27 0 17.498-3.24 22.595-8.227l-4.594.018c-4.338 3.651-10.69 5.949-17.883 5.949-13.425 0-23.895-8-23.895-17.865 0-11.385 10.479-17.864 23.895-17.864.852 0 1.538.393 1.025 1.135-2.79 3.358-10.735 14.167-12.18 16.51-2.856 4.612-2.792 10.295 4.21 10.698h29.431c1.501 0 1.886-.705 2.426-1.437A15.005 15.005 0 0056 20.211c-.01-8.483-5.976-14.835-14.753-17.965l-1.354 2.032c7.294 2.69 12.117 8.136 12.117 15.933 0 1.355-.202 2.673-.577 3.945-.33 1.098-.96 2.032-2.169 2.032H25.781c-3.011 0-1.849-3.103-.732-4.613 1.62-2.901 10.47-14.963 12.602-17.215.54-.823 2.068-2.535-.037-3.184-2.993-.714-6.232-1.08-9.61-1.08C12.539.086.01 8.03 0 20.202c-.01 12.291 12.538 20.125 28.005 20.125z" fill="#F0F0F0"/></svg>