<svg width="104" height="41" fill="none" xmlns="http://www.w3.org/2000/svg"><g clip-path="url(#clip0_1259_6745)"><path d="M2.779 34.441a3.467 3.467 0 013.472-3.46h11.087l1.388-2.308H5.788a5.79 5.79 0 00-4.63 2.308 5.731 5.731 0 00-1.157 3.46 5.73 5.73 0 001.158 3.461 5.786 5.786 0 004.628 2.31h11.55l1.39-2.308H6.25a3.472 3.472 0 01-3.472-3.46v-.002zm79.869-2.307a3.466 3.466 0 00-3.472-3.461H63.922l1.389 2.308h13.865a1.154 1.154 0 110 2.307H63.922v6.923H66.7v-4.616h10.266l2.674 4.616h3.008l-2.72-4.698a3.464 3.464 0 002.72-3.38m17.423-3.46l-6.594 5.058-6.595-5.058H82.81l9.024 6.922v4.616h3.143v-4.615l9.025-6.923h-3.93zm-54.674 3.432a1.155 1.155 0 011.155-1.125h13.405l1.39-2.307H46.091a3.468 3.468 0 00-3.473 3.46v8.077h17.338l1.39-2.307h-15.95v-2.307h11.782l1.39-2.308H45.396v-1.183zM74.747 14a4.491 4.491 0 01-4.472-.465l-1.717-1.24-11.557-8.343-.038-.027-.035-.025-.081-.057c-.475-.33-1.942-1.322-3.026-1.755l-.014.008a3.321 3.321 0 00-.26-.108l-.02-.008a4.372 4.372 0 00-.85-.221c.441.003.878.009 1.313.019l.289.006c7.23.176 13.653 1.184 18.15 2.698h.002c4.144 1.393 6.653 3.216 6.653 5.209 0 1.588-1.594 3.068-4.338 4.308h.002zm-11.813 2.95c-3.344.433-7.043.674-10.932.674-3.89 0-7.589-.24-10.933-.673-3.054-.55-1.583-2.615-.783-3.501a5.99 5.99 0 01.395-.405c.004-.002.004-.004.004-.004a88.751 88.751 0 011.59-1.568 91.112 91.112 0 017.058-6.137l.004-.003c.06-.049.12-.096.182-.14.425-.316 1.506-1.037 2.483-1.034.976-.003 2.056.718 2.481 1.033.022.015.04.03.059.044l.048.037a.72.72 0 01.052.04l.02.016.008.007c.56.437 1.115.882 1.665 1.333a91.425 91.425 0 015.391 4.804 87.6 87.6 0 011.596 1.572l.014.015c.049.044.182.173.35.355l.002.003c.793.868 2.336 2.976-.754 3.533zm-29.207-3.415a4.489 4.489 0 01-4.47.464c-2.745-1.24-4.339-2.72-4.339-4.308 0-1.993 2.51-3.816 6.653-5.21C36.067 2.97 42.493 1.96 49.723 1.784l.29-.006c.436-.01.873-.016 1.314-.02-.296.046-.58.12-.851.222-.003.001-.008.001-.01.003a4.196 4.196 0 00-.271.113.158.158 0 00-.013-.008c-1.085.433-2.552 1.425-3.027 1.755l-.08.057-.075.053-11.556 8.342-1.717 1.24zm39.14-10.669C68.416 1.54 62.813.63 56.618.325a93.481 93.481 0 00-4.437-.113h-.363c-1.507.002-2.987.04-4.436.113-6.198.304-11.8 1.213-16.25 2.541-6.373 1.901-10.381 4.66-10.381 7.73 0 2.6 2.876 4.979 7.627 6.8 1.929.738 4.167 1.388 6.649 1.92a69.23 69.23 0 006.502 1.067 89.61 89.61 0 0010.47.599c3.673 0 7.197-.212 10.47-.599a69.406 69.406 0 006.503-1.066c2.482-.534 4.72-1.183 6.649-1.921 4.751-1.822 7.627-4.2 7.627-6.8 0-3.07-4.009-5.829-10.382-7.73zM37.25 28.672v4.616H24.08v-4.616h-2.779v11.539h2.778v-4.616h13.17v4.616h2.779V28.672H37.25z" fill="#F0F0F0"/></g><defs><clipPath id="clip0_1259_6745"><path fill="#fff" transform="translate(0 .211)" d="M0 0h103.999v40H0z"/></clipPath></defs></svg>