<svg width="76" height="27" fill="none" xmlns="http://www.w3.org/2000/svg"><g clip-path="url(#clip0_1259_5412)"><path d="M74.83 10.603a12.986 12.986 0 00-.753-2.435 13.241 13.241 0 00-1.191-2.203 12.936 12.936 0 00-1.585-1.92A12.936 12.936 0 0067.18 1.27a12.697 12.697 0 00-2.435-.753 13.128 13.128 0 00-2.609-.264 12.983 12.983 0 00-5.044 1.018c-.766.321-1.507.727-2.202 1.191-.264.174-.515.367-.767.56a12.549 12.549 0 00-2.97-1.752 12.699 12.699 0 00-2.434-.753A13.082 13.082 0 0046.11.252a12.985 12.985 0 00-5.043 1.018 13.236 13.236 0 00-3.014 1.784 12.549 12.549 0 00-3.008-1.784A12.699 12.699 0 0032.61.516 13.082 13.082 0 0030 .252a12.985 12.985 0 00-5.044 1.018c-.766.321-1.507.727-2.202 1.191-.277.187-.542.38-.8.586a12.549 12.549 0 00-3.002-1.778A12.697 12.697 0 0016.52.516a13.081 13.081 0 00-2.61-.264A12.986 12.986 0 008.867 1.27c-.767.32-1.507.726-2.204 1.19a12.96 12.96 0 00-1.92 1.585c-.585.586-1.12 1.23-1.584 1.92a14.68 14.68 0 00-1.165 2.202c-.329.78-.587 1.597-.754 2.435a13.08 13.08 0 00-.264 2.608c0 .877.09 1.759.264 2.61.167.83.425 1.648.754 2.428.322.766.727 1.507 1.191 2.202.464.683.999 1.334 1.585 1.92a12.914 12.914 0 006.557 3.53c.85.174 1.733.264 2.609.264a12.986 12.986 0 005.043-1.018 13.221 13.221 0 002.203-1.192c.27-.186.541-.38.799-.586a12.538 12.538 0 003.002 1.778c.779.329 1.597.586 2.428.754.85.174 1.732.264 2.608.264a12.987 12.987 0 005.044-1.018 13.23 13.23 0 003.014-1.784c.264.206.535.406.812.592.695.47 1.43.87 2.203 1.192.78.329 1.597.586 2.435.754.85.174 1.732.264 2.608.264a12.985 12.985 0 005.044-1.018 13.225 13.225 0 002.203-1.192c.264-.173.515-.367.766-.56.251.193.502.38.767.56.695.47 1.43.87 2.203 1.192.779.329 1.597.586 2.428.754.85.174 1.733.264 2.609.264a12.99 12.99 0 005.043-1.018 13.23 13.23 0 002.203-1.192 12.94 12.94 0 001.92-1.584 12.94 12.94 0 001.584-1.92c.47-.695.87-1.43 1.192-2.203a12.69 12.69 0 00.753-2.434c.174-.857.264-1.733.264-2.609a14.69 14.69 0 00-.283-2.602zM8.28 4.838a9.904 9.904 0 013.607-1.52 10.244 10.244 0 012.036-.206 10.08 10.08 0 013.93.792 9.594 9.594 0 011.712.934c.116.077.232.16.348.245-.232.283-.45.58-.65.882-.47.696-.87 1.43-1.192 2.203-.329.78-.586 1.597-.754 2.435a13.067 13.067 0 000 5.218c.168.83.425 1.648.754 2.428.322.766.728 1.507 1.191 2.202.207.303.426.6.657.883a10.26 10.26 0 01-2.068 1.185 9.906 9.906 0 01-1.893.586c-.663.135-1.353.206-2.035.206a10.08 10.08 0 01-3.93-.792 9.819 9.819 0 01-1.713-.934c-.534-.36-1.037-.78-1.494-1.23a10.268 10.268 0 01-2.164-3.208 9.905 9.905 0 01-.587-1.894 10.244 10.244 0 01-.206-2.035 10.081 10.081 0 01.792-3.93 9.595 9.595 0 01.935-1.713c.36-.534.779-1.037 1.23-1.494.457-.464.96-.882 1.494-1.243zM21.64 18.86a9.906 9.906 0 01-1.52-3.607 10.249 10.249 0 01-.207-2.035 10.08 10.08 0 01.792-3.93 9.591 9.591 0 01.934-1.713c.103-.154.22-.309.335-.463.116.154.226.309.335.463a9.898 9.898 0 011.52 3.607 10.198 10.198 0 010 4.071c-.135.65-.328 1.289-.586 1.894a9.595 9.595 0 01-.934 1.713c-.103.155-.219.31-.335.464a6.08 6.08 0 01-.335-.464zm3.033 1.598c.47-.696.87-1.43 1.192-2.203a13.074 13.074 0 00.754-7.652 12.979 12.979 0 00-.754-2.435 13.227 13.227 0 00-1.192-2.203 12.521 12.521 0 00-.657-.882c.116-.084.232-.168.348-.245a9.905 9.905 0 013.607-1.52 10.245 10.245 0 012.035-.206 10.084 10.084 0 013.93.792 9.595 9.595 0 011.713.934c.122.084.245.167.36.258a12.549 12.549 0 00-1.836 3.072 13.067 13.067 0 00-.753 7.653c.168.83.425 1.648.754 2.428.322.766.728 1.507 1.191 2.202.207.303.42.593.651.876a10.26 10.26 0 01-2.08 1.192 9.906 9.906 0 01-1.894.586 10.25 10.25 0 01-2.036.206 10.08 10.08 0 01-3.93-.792 9.818 9.818 0 01-2.06-1.185c.232-.277.451-.573.657-.876zm13.07-1.598a9.9 9.9 0 01-1.52-3.607 10.241 10.241 0 01-.207-2.035 10.08 10.08 0 01.792-3.93 9.597 9.597 0 01.934-1.713c.103-.154.213-.302.322-.45a10.268 10.268 0 011.256 2.164c.258.612.458 1.25.587 1.893.135.664.206 1.353.206 2.036s-.071 1.372-.206 2.035c-.136.65-.329 1.289-.587 1.894a9.595 9.595 0 01-.934 1.713c-.103.155-.212.303-.322.451-.11-.148-.219-.296-.322-.45zm3.014 1.598c.47-.696.87-1.43 1.192-2.203.328-.78.586-1.598.753-2.435a13.082 13.082 0 000-5.217 12.986 12.986 0 00-.753-2.435 13.235 13.235 0 00-1.836-3.079c.116-.09.238-.174.36-.258a9.904 9.904 0 013.607-1.52 10.244 10.244 0 012.036-.206 10.083 10.083 0 013.93.792 9.595 9.595 0 011.712.934c.103.071.207.142.303.213a13.39 13.39 0 00-.676.915c-.47.695-.87 1.43-1.192 2.203a12.7 12.7 0 00-.753 2.434 13.076 13.076 0 000 5.218c.167.83.425 1.649.753 2.428a13.21 13.21 0 001.192 2.203c.212.316.438.618.683.915a10.267 10.267 0 01-2.023 1.153 9.905 9.905 0 01-1.894.586c-.663.135-1.352.206-2.035.206s-1.372-.071-2.035-.206a10.08 10.08 0 01-1.894-.586 9.818 9.818 0 01-2.074-1.192c.225-.27.438-.567.644-.863zm13.005-1.598a9.9 9.9 0 01-1.52-3.607 10.249 10.249 0 01-.207-2.035 10.2 10.2 0 01.793-3.929 9.591 9.591 0 01.934-1.714c.116-.174.238-.341.367-.508a10.268 10.268 0 011.301 2.222c.258.612.457 1.25.586 1.893a10.181 10.181 0 01-.586 5.965 9.595 9.595 0 01-.934 1.713 9.296 9.296 0 01-.367.51 9.241 9.241 0 01-.367-.51zm3.098 1.598c.47-.696.87-1.43 1.191-2.203.329-.78.587-1.598.754-2.435a13.082 13.082 0 000-5.217 12.979 12.979 0 00-.754-2.435 13.227 13.227 0 00-1.191-2.203 13.422 13.422 0 00-.676-.915c.103-.07.206-.148.309-.219a9.904 9.904 0 013.607-1.52 10.245 10.245 0 012.035-.206 10.084 10.084 0 013.93.792 10.16 10.16 0 014.438 3.665 9.906 9.906 0 011.52 3.607 10.182 10.182 0 01-.587 5.965 9.592 9.592 0 01-.934 1.713c-.36.535-.779 1.038-1.23 1.495a10.271 10.271 0 01-3.208 2.164 9.9 9.9 0 01-1.893.586c-.664.136-1.353.206-2.036.206a10.083 10.083 0 01-3.93-.792 9.828 9.828 0 01-1.712-.934 9.342 9.342 0 01-.31-.219c.239-.277.464-.58.677-.895z" fill="#F0F0F0"/></g><defs><clipPath id="clip0_1259_5412"><path fill="#fff" transform="translate(.884 .211)" d="M0 0h74.232v26H0z"/></clipPath></defs></svg>