<svg width="64" height="42" fill="none" xmlns="http://www.w3.org/2000/svg"><g clip-path="url(#clip0_1259_5418)"><path d="M31.998.77C14.418.77.074 9.95.074 21.21c0 11.26 14.344 20.44 31.924 20.44s31.924-9.18 31.924-20.44C63.922 9.949 49.578.77 31.998.77zm8.837 3.79c2.824.54 5.472 1.34 7.849 2.353 2.047 1.059 3.248 2.306 3.248 3.66 0 2.73-4.896 5.094-11.885 6.13-.483-5.272-1.777-9.779-3.518-12.661 1.506.117 2.941.294 4.306.517zm-8.837-.695c2.648 0 4.872 5.613 5.495 13.156a58.564 58.564 0 01-10.99 0c.624-7.555 2.86-13.156 5.495-13.156zM15.312 6.913c2.377-1.012 5.025-1.8 7.85-2.354 1.352-.223 2.8-.4 4.306-.517-1.742 2.882-3.036 7.401-3.518 12.66-6.99-1.046-11.885-3.4-11.885-6.13 0-1.353 1.2-2.612 3.248-3.66zM2.91 21.21c0-4.107 2.377-7.884 6.342-10.873-.011.141-.023.282-.023.424 0 4.012 6.048 7.46 14.544 8.837-.023.576-.023 1.153-.023 1.741 0 7.107 1.435 13.391 3.624 17.121C13.536 37.13 2.91 29.894 2.91 21.21zm29.794 17.474h-1.412c-2.8-1.071-4.977-8.449-4.977-17.345 0-.47.011-.93.023-1.388a54.826 54.826 0 0011.32 0c.012.459.024.93.024 1.388-.012 8.896-2.189 16.274-4.978 17.345zm3.919-.212c2.188-3.73 3.624-10.014 3.624-17.121 0-.588-.012-1.165-.024-1.742 8.496-1.376 14.544-4.824 14.544-8.837 0-.14-.011-.282-.023-.423 3.965 2.989 6.342 6.766 6.342 10.872 0 8.673-10.625 15.91-24.463 17.251z" fill="#F0F0F0"/></g><defs><clipPath id="clip0_1259_5418"><path fill="#fff" transform="translate(0 .738)" d="M0 0h64v40.947H0z"/></clipPath></defs></svg>