<svg width="116" height="15" fill="none" xmlns="http://www.w3.org/2000/svg"><g clip-path="url(#clip0_1259_6748)" fill-rule="evenodd" clip-rule="evenodd" fill="#F0F0F0"><path opacity=".992" d="M.727.181h6.425v4.182h7.272V.181h6.425v14h-6.425V9.575H7.152v4.606H.727v-14z"/><path opacity=".986" d="M33.455.181h7.03a2494.89 2494.89 0 018.546 14H42a2494.89 2494.89 0 00-8.546-14z"/><path opacity=".987" d="M46.788.181h7.333c1.563 2.55 3.119 5.106 4.667 7.667a185.972 185.972 0 01-3.636 5.97A2373.961 2373.961 0 0146.787.18z"/><path opacity=".986" d="M64.182.181h7.03a2512.774 2512.774 0 00-8.545 14h-7.03c2.822-4.681 5.67-9.348 8.545-14zm13.636 0h7.03a2512.79 2512.79 0 018.546 14h-7.03a2461.615 2461.615 0 00-8.546-14z"/><path opacity=".992" d="M97.151.181h6.424V8.97h11.637v5.212h-18.06v-14z"/><path opacity=".983" d="M31.94 14.181h-7.334C27.362 9.6 30.15 5.033 32.97.484a186.19 186.19 0 013.636 5.97 866.797 866.797 0 00-4.667 7.727zm44.303 0H68.97A2370.97 2370.97 0 0177.303.484a299.775 299.775 0 013.667 5.97 962.145 962.145 0 01-4.727 7.727z"/></g><defs><clipPath id="clip0_1259_6748"><path fill="#fff" transform="translate(.758 .211)" d="M0 0h114.485v14H0z"/></clipPath></defs></svg>