<svg width="78" height="43" fill="none" xmlns="http://www.w3.org/2000/svg"><g clip-path="url(#clip0_1259_6769)"><mask id="mask0_1259_6769" style="mask-type:luminance" maskUnits="userSpaceOnUse" x="0" y="0" width="78" height="42"><path d="M77.797.211H.203v41.706h77.594V.21z" fill="#fff"/></mask><g mask="url(#mask0_1259_6769)" fill="#F0F0F0"><path d="M33.911.247c-.035.036-2.792.084-6.133.096l-6.074.024.084 2.339c.095 2.673.19 5.119.25 6.157.024.394.048.811.048.919.012.274.227.286 5.334.572 9.296.514 13.961.526 22.123.06 1.671-.095 3.64-.215 4.356-.25 1.658-.096 1.957-.12 2.017-.18.047-.06.322-6.61.358-8.376L56.285.45l-.954-.06C53.73.32 33.97.177 33.91.248zM13.328.534c-2.59.06-7.936.299-9.07.394-1.694.167-2.386.406-3.066 1.086C.357 2.849.225 3.41.285 6.059.309 7.276.368 8.243.44 8.315c.072.06.609.143 1.193.19.597.036 1.635.12 2.327.18 1.444.13 1.778.155 5.788.477 1.646.119 3.52.262 4.176.298.657.036 1.838.12 2.625.179.788.072 1.886.143 2.447.191.56.036 1.217.084 1.467.107l.442.036v-.549c0-.31-.084-2.231-.18-4.26-.095-2.04-.178-3.926-.178-4.212V.439L17.54.475c-1.659.024-3.556.047-4.212.06zM57.311 4.58c-.083 2.291-.167 4.403-.19 4.69-.024.298-.024.56 0 .608.023.036.536.036 1.157-.012.608-.048 1.67-.12 2.363-.155a611.371 611.371 0 013.4-.239c1.42-.095 8.485-.656 11.217-.883l2.387-.202.071-.716c.144-1.444.037-4.022-.19-4.642-.275-.764-.943-1.42-1.755-1.719C74.626.88 70.628.642 62.061.5L57.467.415 57.31 4.58zM.56 10.021c.321 2.088.834 3.52 1.61 4.547 1.432 1.885 4.01 3.15 8.878 4.32 3.234.775 10.668 2.23 10.74 2.1.023-.036-.048-1.206-.167-2.578-.12-1.384-.31-3.58-.418-4.892-.107-1.313-.203-2.387-.215-2.399-.012-.012-1.742-.131-3.842-.274-2.1-.144-4.081-.287-4.415-.31-.323-.024-1.003-.084-1.492-.12-.49-.036-1.193-.083-1.551-.12-.358-.035-1.003-.083-1.432-.119-3.58-.262-7.053-.549-7.375-.608l-.405-.06.083.513zm74.341-.263c-1.312.12-2.863.25-3.46.299a61.75 61.75 0 00-1.551.119c-.263.024-.931.071-1.492.12-.56.035-1.277.095-1.61.119-.74.071-1.242.107-5.908.43-2.064.142-3.782.274-3.794.297-.048.036-.86 9.022-.86 9.547v.37l2.125-.382c1.169-.215 3.46-.668 5.095-1.015 6.873-1.431 9.582-2.41 11.468-4.104 1.383-1.253 1.969-2.399 2.422-4.762.203-1.074.203-1.3.023-1.265-.035.012-1.145.12-2.457.227zm-52.647 2.53c.096 1.503.668 8.174.74 8.639l.06.358 1.646.274c2.626.43 6.945 1.05 9.332 1.337 2.864.346 6.861.37 9.487.072 3.961-.466 11.252-1.576 11.42-1.743.035-.036.107-.37.142-.728.072-.704.072-.727.43-5.071.131-1.575.274-3.174.31-3.568l.072-.692-1.289.083c-.716.048-1.54.096-1.838.12-.298.024-1.229.071-2.088.12-.847.047-1.754.095-2.005.118-3.245.299-15.214.299-19.355 0-.322-.023-1.217-.071-1.969-.119a150.94 150.94 0 01-2.088-.12c-.393-.023-1.253-.083-1.897-.119l-1.181-.083.071 1.122zM1.169 30.915c-.907.513-.907.548-.907 5.333s0 4.821.907 5.334l.465.275h13.305v-6.563l-4.797.024-4.809.035v1.791l3.795.035 3.783.024v2.745H2.29v-3.7c0-2.04.035-3.699.095-3.699.047 0 2.876-.012 6.288-.035l6.205-.024.036-.931.036-.919H1.634l-.465.274zm17.111 4.654c0 5.56-.012 5.501.92 6.014.477.275.477.275 6.908.275l6.432.012v-1.862l-6.11-.036-6.121-.024v-2.744l5.942-.024 5.931-.036v-1.79l-5.943-.036-5.942-.023.036-1.385.036-1.372 6.085-.024 6.086-.024.036-.93.036-.92H18.28v4.929zm17.327.107c.036 4.832.048 5.06.275 5.37.13.178.43.429.668.56.43.25.585.25 6.897.25h6.456v-1.908H37.612v-2.745l5.942-.024 5.931-.035.036-.931.036-.92H37.6l.036-1.371.035-1.385 6.086-.023 6.086-.024.036-.931.036-.919H35.57l.036 5.036zm17.397-.072c0 4.845.012 4.988.25 5.382.144.215.454.501.717.632.429.227.715.239 6.073.239h5.609v-1.909h-10.62V30.64h-2.029v4.964zm12.326-1.527l3.425 3.425v2.16c0 1.181.024 2.184.048 2.208.023.023.489.035 1.014.011l.967-.047V37.62l3.484-3.484 3.496-3.496H75.14l-2.65 2.65-2.661 2.66-2.661-2.66-2.65-2.65h-2.624l3.436 3.437z"/></g></g><defs><clipPath id="clip0_1259_6769"><path fill="#fff" transform="translate(.203 .211)" d="M0 0h77.593v42H0z"/></clipPath></defs></svg>