<svg width="52" height="52" fill="none" xmlns="http://www.w3.org/2000/svg"><g clip-path="url(#clip0_1259_5434)"><path d="M37.77 3.491A25.75 25.75 0 0025.868.611a25.75 25.75 0 00-11.904 2.88C5.835 7.78.267 16.355.267 26.211c0 9.856 5.568 18.432 13.76 22.72 3.52 1.792 7.552 2.88 11.84 2.88s8.256-1.088 11.84-2.944a25.453 25.453 0 0013.76-22.656c0-9.856-5.568-18.432-13.696-22.72zM2.828 26.211c0-8.384 4.48-15.68 11.2-19.776 3.264-1.984 7.04-3.136 11.2-3.264L22.347 24.1l-8.32 6.464-8.448 6.592C3.85 33.891 2.827 30.18 2.827 26.211zM37.77 45.923c-3.52 2.112-7.552 3.328-11.904 3.328a22.804 22.804 0 01-11.904-3.328c-3.136-1.855-5.696-4.416-7.616-7.488l7.616-3.136 11.904-4.864 11.904 4.8 7.68 3.136c-1.92 3.136-4.608 5.697-7.68 7.552zm0-15.36l-8.256-6.4L26.57 3.171c4.032.128 7.872 1.28 11.136 3.264 6.72 4.032 11.2 11.392 11.2 19.776 0 3.968-.96 7.68-2.752 10.944l-8.384-6.592z" fill="#F0F0F0"/></g><defs><clipPath id="clip0_1259_5434"><path fill="#fff" transform="translate(0 .611)" d="M0 0h52v51.2H0z"/></clipPath></defs></svg>