<svg width="56" height="56" fill="none" xmlns="http://www.w3.org/2000/svg"><g clip-path="url(#clip0_1259_5403)" fill="#F0F0F0"><path d="M28.131.692C12.932.692.613 13.012.613 28.212c0 15.198 12.32 27.519 27.52 27.519 15.198 0 27.519-12.32 27.519-27.52C55.65 13.013 43.33.692 28.13.692zm25.724 27.52c0 14.208-11.515 25.723-25.723 25.723-14.21 0-25.724-11.515-25.724-25.724 0-14.208 11.515-25.723 25.723-25.723 14.21 0 25.724 11.515 25.724 25.723z"/><path d="M41.466 16.538c.369.391.921 1.06 1.22 1.45l5.574-3.546a24.104 24.104 0 00-1.06-1.313l-3.523 2.326-.23.208.184-.254 1.566-3.109-1.106-1.105-3.108 1.566-.254.184.208-.23 2.325-3.523a42.917 42.917 0 00-1.312-1.06l-3.547 5.573c.438.346 1.037.852 1.405 1.198l3.34-1.727.206-.162-.16.208-1.728 3.316zM28.823 9.491l1.52-3.408.093-.3-.024.323.162 4.56c.53.046 1.082.115 1.635.207l-.254-6.748c-.76-.092-1.52-.138-2.28-.184l-1.496 3.73-.046.277-.046-.276-1.497-3.73c-.76.022-1.52.091-2.28.183l-.253 6.748a21.19 21.19 0 011.635-.207l.16-4.56-.022-.323.092.3 1.52 3.408h1.381zm-12.32 5.366c.875-.921 1.382-2.004.507-3.017-.484-.553-1.29-.668-1.958-.392l-.069.024.023-.07c.092-.253.161-1.105-.553-1.68a1.662 1.662 0 00-1.22-.346c-.829.092-1.45.645-3.201 2.58-.53.575-1.29 1.496-1.75 2.095l4.767 4.513c1.589-1.75 2.21-2.395 3.454-3.707zm-6.195-1.106c.968-1.174 1.98-2.233 2.441-2.648.139-.138.3-.276.507-.322.322-.092.645.138.714.46.069.323-.138.622-.346.875-.53.576-2.395 2.534-2.395 2.534l-.92-.899zm1.866 1.774s1.819-1.912 2.395-2.534c.23-.253.391-.391.552-.46.208-.092.438-.115.645.023.207.138.3.368.254.599-.07.276-.277.53-.461.737-.253.276-2.395 2.556-2.395 2.556l-.99-.921z"/><path d="M28.131 11.907v16.304H11.828a16.275 16.275 0 0116.304-16.304z"/><path d="M44.436 28.211c0 9.028-7.3 16.305-16.305 16.305V28.21h16.305z"/></g><defs><clipPath id="clip0_1259_5403"><path fill="#fff" transform="translate(0 .606)" d="M0 0h56v55.211H0z"/></clipPath></defs></svg>