<svg width="72" height="37" fill="none" xmlns="http://www.w3.org/2000/svg"><g clip-path="url(#clip0_1259_6790)"><path fill-rule="evenodd" clip-rule="evenodd" d="M43.29 22.306c.536 2.772-.916 5.074-2.123 7.308-1.34 2.08-3.554 3.866-6.213 3.599-5.969-.09-11.802-1.006-17.21-2.638a1.065 1.065 0 01-.627-.447c-.111-.313.046-.604.269-.804 4.94-4.001 10.818-5.856 16.629-7.801 2.167-.626 4.47-1.297 6.906-.983 1.005.134 2.01.827 2.37 1.766zm20.362-11.845c2.771 2.28 5.275 5.386 4.425 9.141-1.386 5.543-7.42 8.494-12.225 10.37-2.616.873-5.253 1.767-8.114 2.035-.179-.022-.47.022-.514-.246l.067-.313c4.067-4.582 7.151-9.722 9.857-14.93a123.23 123.23 0 003.486-7.13c.157-.179.314-.268.492-.335 1.005.089 1.721.871 2.526 1.408zM24.649 4.56l-.09.335c-5.878 6.683-9.744 14.438-13.41 22.15-.715.67-1.408-.225-2.056-.515-3.264-2.146-6.214-5.61-5.365-9.723 1.364-5.363 6.884-8.224 11.49-10.168 2.726-1.028 5.565-1.855 8.56-2.325.313 0 .714-.045.87.246zm29.169 1.073c.335.178.737.245.938.58.18.38-.178.626-.38.872-4.626 3.62-9.923 5.633-15.332 7.398-2.75.671-5.522 1.878-8.583 1.207a2.847 2.847 0 01-1.766-1.341c-.76-2.1.268-4.291 1.162-6.124 1.184-2.302 3.286-5.006 6.191-5.05 6.258-.046 12.159.893 17.77 2.458zm7.733.178c4.739 2.593 10.103 7.152 9.544 13.232-.648 5.632-5.9 9.566-10.594 11.935-13.702 6.55-32.946 6.75-47.094 1.029-4.784-1.99-10.148-5.41-12.16-10.55-1.542-4.224.335-8.627 3.487-11.555C11.327 3.912 19.731 1.856 28.382.67 37.77-.47 47.648.536 56.052 3.42c1.878.693 3.733 1.453 5.499 2.391z" fill="#F0F0F0"/></g><defs><clipPath id="clip0_1259_6790"><path fill="#fff" transform="translate(.698 .211)" d="M0 0h70.605v36H0z"/></clipPath></defs></svg>