<svg width="86" height="33" fill="none" xmlns="http://www.w3.org/2000/svg"><g clip-path="url(#clip0_1259_5415)"><path d="M43.13.47C20.069.47 1.543 7.403 1.543 16.083c0 8.615 18.655 15.611 41.587 15.611 22.93 0 41.587-6.996 41.587-15.611C84.78 7.532 66.06.47 43.13.47zm0 29.863c-22.025 0-39.838-6.348-39.838-14.251C3.292 8.244 21.17 1.83 43.13 1.83c22.024 0 39.838 6.348 39.838 14.25.064 7.904-17.814 14.252-39.838 14.252zm16.388-11.077v.13c0 .064.13.13.195.194 0 0 .064.065 0 .13-.26.582-.519.906-.843 1.36a5.63 5.63 0 01-1.036 1.101c-.583.518-1.49 1.036-2.202.713-.324-.195-.454-.584-.454-.972 0-.972.454-2.008 1.296-3.045.971-1.23 2.137-1.878 2.85-1.49.777.324.583 1.231.194 1.879zM38.92 12.778a1.25 1.25 0 01.454-1.166.498.498 0 01.647-.065c.195.13.065.519-.064.843-.195.323-.519.583-.843.583-.13-.065-.194-.065-.194-.195zm4.21-9.716c-21.246 0-38.477 5.894-38.477 13.085 0 7.125 17.23 13.02 38.478 13.02 21.247 0 38.477-5.895 38.477-13.085 0-7.19-17.23-13.02-38.477-13.02zM23.374 24.697c-2.268 0-4.276-1.36-4.535-3.822-.13-1.36.26-2.526 1.037-3.562.647-.907 1.813-1.62 2.785-1.814.324-.065.713 0 .907.194.259.324.194.648-.065.842-.712.389-1.62 1.037-2.073 1.879-.388.712-.453 1.62.13 2.397.907 1.36 3.433 1.425 5.83-.778a13.35 13.35 0 001.62-1.684c1.036-1.166 1.36-1.62 2.785-3.563v-.064l-.065-.065c-.907 0-1.75.324-2.526.907-.195.194-.519.13-.713-.065-.13-.26-.065-.583.194-.713 1.231-.906 2.656-1.036 4.016-1.295 0 0 .13 0 .195-.13.583-.712 1.036-1.425 1.62-2.137.647-.778 1.424-1.425 2.007-2.008.843-.713 1.425-.972 1.944-1.296.13-.065 0-.194-.065-.194-3.11-.583-6.348-1.36-9.393-.195-2.137.778-3.044 2.462-2.59 3.628.323.777 1.36.907 2.396.453.842-.388 1.555-1.036 2.137-1.878.324-.454.907-.13.584.648-.907 2.137-2.656 3.821-4.73 3.886-1.813.065-2.914-1.23-2.914-2.85 0-3.174 3.563-5.312 7.32-5.636 4.534-.388 8.81.842 13.279 1.36 3.433.39 6.737.454 10.17-.388.389-.065.713.194.648.583-.065.583-.518 1.166-1.62 1.814-1.295.712-2.656.907-4.08.907-3.434 0-6.608-1.296-9.912-2.008 0 .13.065.323-.064.388-1.814 1.36-3.498 2.72-4.6 4.6-.064.064 0 .064.065.064.972-.065 1.814-.065 2.72-.13.13 0 .13-.064.13-.194-.064-.648.13-1.425.713-1.943s1.36-.583 1.814-.194c.583.453.518 1.23.194 1.813s-.842.907-1.295 1.102c0 0-.13 0-.065.13 0 .129.712.517.777.647.065.065 0 .259-.065.324a.494.494 0 01-.324.13c-.13 0-.194-.065-.323-.13-.324-.194-.713-.454-.907-.777-.065-.13-.13-.13-.324-.13-.972.065-2.462.194-3.498.324-.26 0-.26.065-.324.194-1.62 2.656-3.369 5.571-5.312 7.514-2.073 2.332-3.822 2.915-5.635 2.915zm44.242-13.085c-.323.518-6.412 9.846-6.801 10.753-.13.324-.13.519 0 .713.324.453 1.036.194 1.49-.13 1.295-.907 2.202-2.008 3.239-2.98.064-.064.13-.064.194 0 .13.13.389.324.518.454.065.065.065.13 0 .194a20.699 20.699 0 01-3.11 3.174c-1.619 1.231-3.238 1.555-4.08.778a1.517 1.517 0 01-.454-1.102c0-.194-.13-.194-.194-.129-.972.972-2.656 2.008-4.146 1.23-1.295-.647-1.554-2.137-1.295-3.433 0 0 0-.194-.194-.129-.26.194-.583.389-1.037.583-.518.194-.777.26-1.295.26-.648 0-1.167-.26-1.555-.908-.195-.324-.324-.842-.324-1.23 0-.065-.065-.13-.13 0-1.036 1.554-2.008 3.109-3.044 4.728-.065.065-.13.13-.194.13h-2.009c-.13 0-.194-.065-.13-.195.39-.712 2.333-3.562 3.693-6.024.389-.648.324-1.036.065-1.166-.26-.194-.842.065-1.36.454-1.296.971-2.397 2.526-2.98 3.238-.324.39-.648 1.037-1.49 1.944-1.36 1.49-3.174 2.332-4.858 1.749-.972-.324-1.62-1.102-1.879-2.008-.065-.195-.13-.26-.259-.13-.26.324-.842.842-1.36 1.166-.065.065-.195.13-.324.065-.13-.065-.454-.518-.518-.713-.065-.13 0-.194.064-.259.713-.583 1.037-.971 1.36-1.295.195-.26.39-.583.584-1.102.388-1.036 1.36-2.98 3.239-4.016a6.724 6.724 0 012.267-.777c.324-.065.648 0 .712.259.065.13.13.389.195.518.064.13 0 .195-.13.26-1.101.453-2.202 1.1-2.98 2.137-.906 1.166-1.1 2.591-.518 3.368.454.583 1.101.713 1.814.454 1.036-.324 1.878-1.23 2.332-2.332.453-1.166.583-2.462.194-3.692-.065-.195 0-.39.13-.454.259-.194.648-.388.712-.453.26-.13.519-.065.648.13.389.518.583 1.295.583 2.137 0 .194.065.194.194.065.648-.713 1.296-1.425 1.944-2.008.648-.519 1.49-.907 2.202-.907.972 0 1.49.712 1.425 1.878 0 .13.13.13.195.065.323-.453.518-.648.842-.907.712-.583 1.36-.842 2.137-.777.907.065 1.62.907 1.49 1.814-.065.583-.453 1.166-.971 1.425a1.274 1.274 0 01-1.425-.13c-.324-.259-.39-.712-.324-1.101 0-.065-.065-.194-.195-.065-.907.907-.971 2.073-.388 2.656.647.583 1.554.194 2.267-.26 1.295-.841 2.267-1.942 3.368-2.85.778-.582 1.62-1.1 2.591-1.23.519-.065 1.037-.065 1.555.194.713.26 1.101.842 1.166 1.36 0 .13.13.195.194.065.518-.842 3.498-5.247 3.757-5.7.065-.13.13-.194.324-.194h2.073c.194.259.194.323.194.388z" fill="#F0F0F0"/></g><defs><clipPath id="clip0_1259_5415"><path fill="#fff" transform="translate(.895 .211)" d="M0 0h84.21v32H0z"/></clipPath></defs></svg>