<svg width="90" height="37" fill="none" xmlns="http://www.w3.org/2000/svg"><g clip-path="url(#clip0_1259_6766)"><path d="M44.601.516c-21.778 0-39.88 6.151-43.532 14.25a7.278 7.278 0 00-.693 3.064 7 7 0 00.702 3.019c0 .028.03.057.041.086.012.029.062.13.095.192 3.974 7.95 21.894 13.949 43.402 13.949 24.429 0 44.229-7.737 44.229-17.28C88.845 8.253 69.03.516 44.6.516zm-3.278 3.659c1.549 1.413.592 4.485-2.369 8.73-3.293 4.701-6.456 7.283-10.214 8.23L36.908 3.36h.032c2.088-.092 3.5.02 4.383.816zm18.53 17.328a.317.317 0 01-.145-.26.31.31 0 01.072-.2.327.327 0 01.185-.111l3.681-.741a.266.266 0 00.122-.06.254.254 0 00.074-.112l.592-1.75a.25.25 0 00-.035-.22.26.26 0 00-.2-.11l-6.878-.379a1.124 1.124 0 00-.664.178L53.9 19.565a1.44 1.44 0 00-.538.636 1.395 1.395 0 00-.09.817c.77 4.02-.743 6.206-8.676 7.157-10.816 1.292-19.09.158-21.55-.256l-.08-.014a.818.818 0 00-.512.078.782.782 0 00-.353.367l-.782 1.706c-8.144-2.421-13.797-6.091-15.16-10.296v-.037a7.2 7.2 0 01-.103-.36v-.025a6.24 6.24 0 01-.196-1.55c0-6.976 11.745-12.864 27.81-14.713h.057S25.5 20.998 24.1 24.039a.314.314 0 00.14.41c.048.026.101.04.156.041h.456c4.827.164 10.66.336 17.952-1.459 7.747-1.91 13.596-7.392 15.834-11.38 2.272-4.05.972-7.16.72-8.226 14.295 2.194 23.44 7.723 23.64 14.153a8.523 8.523 0 01-1.042 3.756c-2.683 4.474-10.308 8.185-20.457 10.178 3.995-4.383.868-8.369-1.646-10v-.009z" fill="#F0F0F0"/></g><defs><clipPath id="clip0_1259_6766"><path fill="#fff" transform="translate(.36 .211)" d="M0 0h89.28v36H0z"/></clipPath></defs></svg>