<svg width="80" height="19" viewBox="0 0 80 19" fill="none" xmlns="http://www.w3.org/2000/svg">
<path d="M46.6405 16.1314C46.6405 16.2814 46.6805 16.3614 46.7705 16.3614C46.8405 16.3614 46.9005 16.3314 46.9705 16.2914L71.7505 0.841436C72.1905 0.561436 72.5805 0.411436 73.1805 0.411436H78.6305C79.4705 0.411436 80.0305 0.951436 80.0305 1.76144V11.7314C80.0305 12.9314 79.7605 13.6314 78.6305 14.2814L72.0205 18.0814C71.9405 18.1414 71.8605 18.1614 71.8005 18.1614C71.7205 18.1614 71.6505 18.1114 71.6505 17.8914V6.24144C71.6505 6.11144 71.6105 6.01144 71.5105 6.01144C71.4405 6.01144 71.3905 6.04144 71.3205 6.08144L53.2005 17.3714C52.6905 17.6914 52.2805 17.7814 51.8105 17.7814H39.7905C38.9605 17.7814 38.3905 17.2414 38.3905 16.4414V2.07144C38.3905 1.97144 38.3405 1.88144 38.2605 1.88144C38.1905 1.88144 38.1305 1.90144 38.0605 1.94144L26.1105 8.83144C25.9905 8.90143 25.9605 8.97144 25.9605 9.02144C25.9605 9.07144 25.9805 9.11143 26.0705 9.19143L34.6005 17.3714C34.7105 17.4814 34.7905 17.5714 34.7905 17.6514C34.7905 17.7414 34.6705 17.7914 34.5205 17.7914H26.8005C26.2005 17.7914 25.7305 17.7014 25.4005 17.3914L20.2205 12.4214C20.1605 12.3614 20.1205 12.3414 20.0705 12.3414C20.011 12.3467 19.9533 12.3637 19.9005 12.3914L11.2505 17.3914C10.7305 17.6914 10.3705 17.7814 9.85047 17.7814H1.88047C1.04047 17.7814 0.480469 17.2414 0.480469 16.4414V6.65144C0.480469 5.43144 0.750469 4.75144 1.88047 4.10144L8.53047 0.271436C8.60047 0.231436 8.65047 0.221436 8.71047 0.221436C8.80047 0.221436 8.86047 0.321436 8.86047 0.531436V13.6314C8.86047 13.7614 8.90047 13.8314 9.00047 13.8314C9.05047 13.8314 9.12047 13.7914 9.19047 13.7514L31.6505 0.801436C32.1805 0.491436 32.5105 0.401436 33.1305 0.401436H45.2205C46.0605 0.401436 46.6205 0.941436 46.6205 1.74144L46.6405 16.1314Z" fill="#F0F0F0"/>
</svg>
