<svg width="116" height="15" viewBox="0 0 116 15" fill="none" xmlns="http://www.w3.org/2000/svg">
<g clip-path="url(#clip0_1259_6748)">
<path opacity="0.992" fill-rule="evenodd" clip-rule="evenodd" d="M0.727295 0.181152C2.86871 0.181152 5.01013 0.181152 7.15154 0.181152C7.15154 1.57509 7.15154 2.96903 7.15154 4.36297C9.57578 4.36297 12 4.36297 14.4243 4.36297C14.4243 2.96903 14.4243 1.57509 14.4243 0.181152C16.5657 0.181152 18.7071 0.181152 20.8485 0.181152C20.8485 4.84782 20.8485 9.51449 20.8485 14.1812C18.7071 14.1812 16.5657 14.1812 14.4243 14.1812C14.4243 12.6458 14.4243 11.1104 14.4243 9.57509C12 9.57509 9.57578 9.57509 7.15154 9.57509C7.15154 11.1104 7.15154 12.6458 7.15154 14.1812C5.01013 14.1812 2.86871 14.1812 0.727295 14.1812C0.727295 9.51449 0.727295 4.84782 0.727295 0.181152Z" fill="#F0F0F0"/>
<path opacity="0.986" fill-rule="evenodd" clip-rule="evenodd" d="M33.4548 0.181152C35.7983 0.181152 38.1417 0.181152 40.4851 0.181152C43.3495 4.8394 46.198 9.50606 49.0306 14.1812C46.6871 14.1812 44.3437 14.1812 42.0003 14.1812C39.1677 9.50606 36.3192 4.8394 33.4548 0.181152Z" fill="#F0F0F0"/>
<path opacity="0.987" fill-rule="evenodd" clip-rule="evenodd" d="M46.7878 0.181152C49.2323 0.181152 51.6768 0.181152 54.1212 0.181152C55.6841 2.73096 57.2396 5.28652 58.7878 7.84782C57.6128 9.86103 56.4006 11.851 55.1515 13.8175C52.3477 9.28049 49.5598 4.73504 46.7878 0.181152Z" fill="#F0F0F0"/>
<path opacity="0.986" fill-rule="evenodd" clip-rule="evenodd" d="M64.1819 0.181152C66.5256 0.181152 68.8686 0.181152 71.2122 0.181152C68.348 4.8394 65.4995 9.50606 62.6668 14.1812C60.3233 14.1812 57.9799 14.1812 55.6365 14.1812C58.4593 9.49958 61.3077 4.83289 64.1819 0.181152Z" fill="#F0F0F0"/>
<path opacity="0.986" fill-rule="evenodd" clip-rule="evenodd" d="M77.8181 0.181152C80.1618 0.181152 82.5048 0.181152 84.8484 0.181152C87.7127 4.8394 90.5611 9.50606 93.3939 14.1812C91.0502 14.1812 88.7072 14.1812 86.3636 14.1812C83.5302 9.50436 80.6818 4.83771 77.8181 0.181152Z" fill="#F0F0F0"/>
<path opacity="0.992" fill-rule="evenodd" clip-rule="evenodd" d="M97.1511 0.181152C99.2923 0.181152 101.434 0.181152 103.575 0.181152C103.575 3.11044 103.575 6.03974 103.575 8.96903C107.454 8.96903 111.333 8.96903 115.212 8.96903C115.212 10.7064 115.212 12.4438 115.212 14.1812C109.192 14.1812 103.171 14.1812 97.1511 14.1812C97.1511 9.51449 97.1511 4.84782 97.1511 0.181152Z" fill="#F0F0F0"/>
<path opacity="0.983" fill-rule="evenodd" clip-rule="evenodd" d="M31.9393 14.1811C29.4949 14.1811 27.0504 14.1811 24.606 14.1811C27.3621 9.59862 30.15 5.03295 32.9696 0.484131C34.2187 2.45069 35.4309 4.44059 36.606 6.45383C35.036 9.0231 33.4805 11.5989 31.9393 14.1811Z" fill="#F0F0F0"/>
<path opacity="0.983" fill-rule="evenodd" clip-rule="evenodd" d="M76.2425 14.1811C73.8182 14.1811 71.394 14.1811 68.9697 14.1811C71.7309 9.60874 74.5085 5.04306 77.3031 0.484131C78.5485 2.45983 79.7709 4.44972 80.9697 6.45383C79.4055 9.03801 77.8297 11.6138 76.2425 14.1811Z" fill="#F0F0F0"/>
</g>
<defs>
<clipPath id="clip0_1259_6748">
<rect width="114.485" height="14" fill="white" transform="translate(0.757568 0.211426)"/>
</clipPath>
</defs>
</svg>
